<svg width="1440" height="1024" viewBox="0 0 1440 1024" fill="none" xmlns="http://www.w3.org/2000/svg">
<rect width="1440" height="1024" fill="#1D243A"/>
<path d="M1340 932H1400V992H1340V932Z" fill="white" fill-opacity="0.01"/>
<path d="M1358.13 942C1357.3 942.471 1356.51 942.989 1355.75 943.551C1354.45 944.512 1353.26 945.602 1352.19 946.8C1348.49 950.933 1346.25 956.361 1346.25 962.307C1346.25 975.254 1356.88 985.75 1370 985.75C1383.12 985.75 1393.75 975.254 1393.75 962.307C1393.75 956.361 1391.51 950.933 1387.81 946.8C1386.74 945.602 1385.55 944.512 1384.25 943.551C1383.49 942.989 1382.7 942.471 1381.88 942" stroke="white" stroke-width="9.22772" stroke-linecap="round" stroke-linejoin="round"/>
<path d="M1370 937V962" stroke="white" stroke-width="9.22772" stroke-linecap="round" stroke-linejoin="round"/>
<rect x="270" y="312" width="400" height="400" rx="8" fill="#E57E1F"/>
<path d="M470.154 490.872C493.558 490.872 512.53 471.9 512.53 448.496C512.53 425.093 493.558 406.12 470.154 406.12C446.751 406.12 427.778 425.093 427.778 448.496C427.778 471.9 446.751 490.872 470.154 490.872Z" stroke="white" stroke-width="9.81203" stroke-linecap="round" stroke-linejoin="round"/>
<path d="M565.5 618C565.5 565.342 522.812 522.654 470.154 522.654C417.496 522.654 374.808 565.342 374.808 618" stroke="white" stroke-width="9.81203" stroke-linecap="round" stroke-linejoin="round"/>
<rect x="770" y="312" width="400" height="400" rx="8" fill="#E57E1F"/>
<path d="M1015.58 421.308H1061V466.731M1061 557.577V603H1015.58M924.731 603H879.308V557.577M879.308 466.731V421.308H924.731" stroke="white" stroke-width="9.81203" stroke-linecap="round" stroke-linejoin="round"/>
<path d="M899.496 512.154H1040.81" stroke="white" stroke-width="9.81203" stroke-linecap="round" stroke-linejoin="round"/>
<path d="M455.936 189.144C452.224 189.144 449.408 188.184 447.488 186.264C445.611 184.344 444.843 181.464 445.184 177.624L445.888 169.88C446.016 168.557 445.845 167.619 445.376 167.064C444.949 166.509 444.139 166.232 442.944 166.232H441.152V159.192H442.944C444.139 159.192 444.949 158.915 445.376 158.36C445.845 157.805 446.016 156.867 445.888 155.544L445.184 148.056C444.8 144.259 445.568 141.4 447.488 139.48C449.408 137.517 452.224 136.536 455.936 136.536H459.84V143.704H457.408C455.616 143.704 454.421 144.067 453.824 144.792C453.227 145.517 453.013 146.627 453.184 148.12L453.696 154.456C453.867 156.248 453.781 157.763 453.44 159C453.141 160.237 452.437 161.261 451.328 162.072C450.261 162.883 448.704 163.544 446.656 164.056V161.624C448.704 162.051 450.261 162.669 451.328 163.48C452.437 164.248 453.141 165.251 453.44 166.488C453.781 167.725 453.867 169.24 453.696 171.032L453.184 177.56C453.056 179.011 453.269 180.12 453.824 180.888C454.421 181.613 455.616 181.976 457.408 181.976H459.84V189.144H455.936ZM477.811 189.144C474.099 189.144 471.283 188.184 469.363 186.264C467.486 184.344 466.718 181.464 467.059 177.624L467.763 169.88C467.891 168.557 467.72 167.619 467.251 167.064C466.824 166.509 466.014 166.232 464.819 166.232H463.027V159.192H464.819C466.014 159.192 466.824 158.915 467.251 158.36C467.72 157.805 467.891 156.867 467.763 155.544L467.059 148.056C466.675 144.259 467.443 141.4 469.363 139.48C471.283 137.517 474.099 136.536 477.811 136.536H481.715V143.704H479.283C477.491 143.704 476.296 144.067 475.699 144.792C475.102 145.517 474.888 146.627 475.059 148.12L475.571 154.456C475.742 156.248 475.656 157.763 475.315 159C475.016 160.237 474.312 161.261 473.203 162.072C472.136 162.883 470.579 163.544 468.531 164.056V161.624C470.579 162.051 472.136 162.669 473.203 163.48C474.312 164.248 475.016 165.251 475.315 166.488C475.656 167.725 475.742 169.24 475.571 171.032L475.059 177.56C474.931 179.011 475.144 180.12 475.699 180.888C476.296 181.613 477.491 181.976 479.283 181.976H481.715V189.144H477.811ZM499.686 189.144C495.974 189.144 493.158 188.184 491.238 186.264C489.361 184.344 488.593 181.464 488.934 177.624L489.638 169.88C489.766 168.557 489.595 167.619 489.126 167.064C488.699 166.509 487.889 166.232 486.694 166.232H484.902V159.192H486.694C487.889 159.192 488.699 158.915 489.126 158.36C489.595 157.805 489.766 156.867 489.638 155.544L488.934 148.056C488.55 144.259 489.318 141.4 491.238 139.48C493.158 137.517 495.974 136.536 499.686 136.536H503.59V143.704H501.158C499.366 143.704 498.171 144.067 497.574 144.792C496.977 145.517 496.763 146.627 496.934 148.12L497.446 154.456C497.617 156.248 497.531 157.763 497.19 159C496.891 160.237 496.187 161.261 495.078 162.072C494.011 162.883 492.454 163.544 490.406 164.056V161.624C492.454 162.051 494.011 162.669 495.078 163.48C496.187 164.248 496.891 165.251 497.19 166.488C497.531 167.725 497.617 169.24 497.446 171.032L496.934 177.56C496.806 179.011 497.019 180.12 497.574 180.888C498.171 181.613 499.366 181.976 501.158 181.976H503.59V189.144H499.686ZM522.165 183V137.816H532.213V183H522.165ZM529.909 183V174.168H552.245V183H529.909ZM557.144 183V151.896H566.936V183H557.144ZM562.072 147.608C560.536 147.608 559.256 147.096 558.232 146.072C557.25 145.005 556.76 143.725 556.76 142.232C556.76 140.696 557.25 139.416 558.232 138.392C559.256 137.368 560.536 136.856 562.072 136.856C563.608 136.856 564.866 137.368 565.848 138.392C566.829 139.416 567.32 140.696 567.32 142.232C567.32 143.725 566.829 145.005 565.848 146.072C564.866 147.096 563.608 147.608 562.072 147.608ZM591.751 183.64C589.66 183.64 587.74 183.213 585.991 182.36C584.242 181.464 582.812 180.291 581.703 178.84C580.594 177.347 579.954 175.683 579.783 173.848V160.728C579.954 158.893 580.594 157.272 581.703 155.864C582.812 154.413 584.242 153.283 585.991 152.472C587.74 151.661 589.66 151.256 591.751 151.256C594.695 151.256 597.298 151.96 599.559 153.368C601.863 154.776 603.655 156.696 604.935 159.128C606.258 161.56 606.919 164.333 606.919 167.448C606.919 170.563 606.258 173.336 604.935 175.768C603.655 178.2 601.863 180.12 599.559 181.528C597.298 182.936 594.695 183.64 591.751 183.64ZM590.023 174.808C591.388 174.808 592.583 174.488 593.607 173.848C594.674 173.208 595.506 172.333 596.103 171.224C596.7 170.115 596.999 168.856 596.999 167.448C596.999 165.997 596.7 164.717 596.103 163.608C595.506 162.499 594.674 161.645 593.607 161.048C592.583 160.408 591.388 160.088 590.023 160.088C588.658 160.088 587.442 160.408 586.375 161.048C585.308 161.645 584.476 162.499 583.879 163.608C583.324 164.717 583.047 165.997 583.047 167.448C583.047 168.899 583.346 170.179 583.943 171.288C584.54 172.397 585.351 173.272 586.375 173.912C587.442 174.509 588.658 174.808 590.023 174.808ZM573.831 183V136.536H583.623V159.512L582.023 167.064L583.495 174.616V183H573.831ZM611.894 183V151.896H621.686V183H611.894ZM621.686 165.912L617.59 162.712C618.4 159.085 619.766 156.269 621.686 154.264C623.606 152.259 626.272 151.256 629.686 151.256C631.179 151.256 632.48 151.491 633.59 151.96C634.742 152.387 635.744 153.069 636.598 154.008L630.774 161.368C630.347 160.899 629.814 160.536 629.174 160.28C628.534 160.024 627.808 159.896 626.998 159.896C625.376 159.896 624.075 160.408 623.094 161.432C622.155 162.413 621.686 163.907 621.686 165.912ZM651.323 183.64C648.464 183.64 645.904 182.936 643.643 181.528C641.424 180.12 639.654 178.2 638.331 175.768C637.051 173.336 636.411 170.563 636.411 167.448C636.411 164.333 637.051 161.56 638.331 159.128C639.654 156.696 641.424 154.776 643.643 153.368C645.904 151.96 648.464 151.256 651.323 151.256C653.414 151.256 655.291 151.661 656.955 152.472C658.662 153.283 660.048 154.413 661.115 155.864C662.182 157.272 662.779 158.893 662.907 160.728V174.168C662.779 176.003 662.182 177.645 661.115 179.096C660.091 180.504 658.726 181.613 657.019 182.424C655.312 183.235 653.414 183.64 651.323 183.64ZM653.307 174.808C655.398 174.808 657.083 174.125 658.363 172.76C659.643 171.352 660.283 169.581 660.283 167.448C660.283 165.997 659.984 164.717 659.387 163.608C658.832 162.499 658.022 161.645 656.955 161.048C655.931 160.408 654.736 160.088 653.371 160.088C652.006 160.088 650.79 160.408 649.723 161.048C648.699 161.645 647.867 162.499 647.227 163.608C646.63 164.717 646.331 165.997 646.331 167.448C646.331 168.856 646.63 170.115 647.227 171.224C647.824 172.333 648.656 173.208 649.723 173.848C650.79 174.488 651.984 174.808 653.307 174.808ZM659.899 183V174.616L661.371 167.064L659.899 159.512V151.896H669.499V183H659.899ZM676.394 183V151.896H686.186V183H676.394ZM686.186 165.912L682.09 162.712C682.9 159.085 684.266 156.269 686.186 154.264C688.106 152.259 690.772 151.256 694.186 151.256C695.679 151.256 696.98 151.491 698.09 151.96C699.242 152.387 700.244 153.069 701.098 154.008L695.274 161.368C694.847 160.899 694.314 160.536 693.674 160.28C693.034 160.024 692.308 159.896 691.498 159.896C689.876 159.896 688.575 160.408 687.594 161.432C686.655 162.413 686.186 163.907 686.186 165.912ZM713.056 183.128L700.256 151.896H710.816L718.944 176.664H715.04L723.36 151.896H733.92L720.608 183.128H713.056ZM705.056 196.12L714.4 175.96L720.608 183.128L715.104 196.12H705.056ZM750.727 183V137.816H757.767L760.775 146.84V183H750.727ZM781.895 183L755.271 148.888L757.767 137.816L784.391 171.928L781.895 183ZM781.895 183L779.207 173.976V137.816H789.255V183H781.895ZM810.073 183.64C807.214 183.64 804.654 182.936 802.393 181.528C800.174 180.12 798.404 178.2 797.081 175.768C795.801 173.336 795.161 170.563 795.161 167.448C795.161 164.333 795.801 161.56 797.081 159.128C798.404 156.696 800.174 154.776 802.393 153.368C804.654 151.96 807.214 151.256 810.073 151.256C812.164 151.256 814.041 151.661 815.705 152.472C817.412 153.283 818.798 154.413 819.865 155.864C820.932 157.272 821.529 158.893 821.657 160.728V174.168C821.529 176.003 820.932 177.645 819.865 179.096C818.841 180.504 817.476 181.613 815.769 182.424C814.062 183.235 812.164 183.64 810.073 183.64ZM812.057 174.808C814.148 174.808 815.833 174.125 817.113 172.76C818.393 171.352 819.033 169.581 819.033 167.448C819.033 165.997 818.734 164.717 818.137 163.608C817.582 162.499 816.772 161.645 815.705 161.048C814.681 160.408 813.486 160.088 812.121 160.088C810.756 160.088 809.54 160.408 808.473 161.048C807.449 161.645 806.617 162.499 805.977 163.608C805.38 164.717 805.081 165.997 805.081 167.448C805.081 168.856 805.38 170.115 805.977 171.224C806.574 172.333 807.406 173.208 808.473 173.848C809.54 174.488 810.734 174.808 812.057 174.808ZM818.649 183V174.616L820.121 167.064L818.649 159.512V151.896H828.249V183H818.649ZM835.144 183V151.896H844.936V183H835.144ZM855.048 183V164.824C855.048 163.245 854.557 162.029 853.576 161.176C852.637 160.28 851.464 159.832 850.056 159.832C849.074 159.832 848.2 160.045 847.432 160.472C846.664 160.856 846.045 161.411 845.576 162.136C845.149 162.861 844.936 163.757 844.936 164.824L841.16 163.16C841.16 160.685 841.693 158.573 842.76 156.824C843.826 155.032 845.277 153.667 847.112 152.728C848.946 151.747 851.016 151.256 853.32 151.256C855.496 151.256 857.437 151.747 859.144 152.728C860.893 153.709 862.28 155.075 863.304 156.824C864.328 158.573 864.84 160.664 864.84 163.096V183H855.048ZM874.952 183V164.824C874.952 163.245 874.461 162.029 873.48 161.176C872.541 160.28 871.368 159.832 869.96 159.832C868.978 159.832 868.104 160.045 867.336 160.472C866.568 160.856 865.949 161.411 865.479 162.136C865.053 162.861 864.84 163.757 864.84 164.824L859.208 164.056C859.293 161.411 859.912 159.149 861.064 157.272C862.258 155.352 863.816 153.88 865.736 152.856C867.698 151.789 869.896 151.256 872.328 151.256C874.717 151.256 876.829 151.768 878.664 152.792C880.541 153.773 882.013 155.203 883.08 157.08C884.189 158.915 884.744 161.133 884.744 163.736V183H874.952ZM906.378 183.704C903.008 183.704 900 183.021 897.355 181.656C894.752 180.248 892.704 178.307 891.211 175.832C889.717 173.357 888.971 170.563 888.971 167.448C888.971 164.333 889.696 161.56 891.147 159.128C892.64 156.653 894.645 154.712 897.163 153.304C899.68 151.896 902.517 151.192 905.675 151.192C908.747 151.192 911.456 151.853 913.803 153.176C916.149 154.499 917.984 156.333 919.307 158.68C920.672 161.027 921.354 163.715 921.354 166.744C921.354 167.299 921.312 167.896 921.227 168.536C921.184 169.133 921.077 169.837 920.907 170.648L894.091 170.712V163.992L916.747 163.928L912.523 166.744C912.48 164.952 912.203 163.48 911.691 162.328C911.179 161.133 910.411 160.237 909.387 159.64C908.405 159 907.189 158.68 905.739 158.68C904.203 158.68 902.859 159.043 901.707 159.768C900.597 160.451 899.723 161.432 899.083 162.712C898.485 163.992 898.187 165.549 898.187 167.384C898.187 169.219 898.507 170.797 899.147 172.12C899.829 173.4 900.768 174.403 901.963 175.128C903.2 175.811 904.651 176.152 906.315 176.152C907.851 176.152 909.237 175.896 910.475 175.384C911.712 174.829 912.8 174.019 913.739 172.952L919.115 178.328C917.579 180.12 915.723 181.464 913.547 182.36C911.371 183.256 908.981 183.704 906.378 183.704ZM940.445 189.144H936.541V181.976H938.973C940.765 181.976 941.938 181.613 942.493 180.888C943.09 180.12 943.325 179.011 943.197 177.56L942.685 171.032C942.514 169.24 942.578 167.725 942.877 166.488C943.218 165.251 943.922 164.248 944.989 163.48C946.098 162.669 947.677 162.051 949.725 161.624V164.056C947.677 163.544 946.098 162.883 944.989 162.072C943.922 161.261 943.218 160.237 942.877 159C942.578 157.763 942.514 156.248 942.685 154.456L943.197 148.12C943.367 146.627 943.154 145.517 942.557 144.792C941.959 144.067 940.765 143.704 938.973 143.704H936.541V136.536H940.445C944.157 136.536 946.973 137.517 948.893 139.48C950.813 141.4 951.581 144.259 951.197 148.056L950.493 155.544C950.365 156.867 950.514 157.805 950.941 158.36C951.41 158.915 952.242 159.192 953.437 159.192H955.229V166.232H953.437C952.242 166.232 951.41 166.509 950.941 167.064C950.514 167.619 950.365 168.557 950.493 169.88L951.197 177.624C951.581 181.464 950.813 184.344 948.893 186.264C946.973 188.184 944.157 189.144 940.445 189.144ZM962.32 189.144H958.416V181.976H960.848C962.64 181.976 963.813 181.613 964.368 180.888C964.965 180.12 965.2 179.011 965.072 177.56L964.56 171.032C964.389 169.24 964.453 167.725 964.752 166.488C965.093 165.251 965.797 164.248 966.864 163.48C967.973 162.669 969.552 162.051 971.6 161.624V164.056C969.552 163.544 967.973 162.883 966.864 162.072C965.797 161.261 965.093 160.237 964.752 159C964.453 157.763 964.389 156.248 964.56 154.456L965.072 148.12C965.242 146.627 965.029 145.517 964.432 144.792C963.834 144.067 962.64 143.704 960.848 143.704H958.416V136.536H962.32C966.032 136.536 968.848 137.517 970.768 139.48C972.688 141.4 973.456 144.259 973.072 148.056L972.368 155.544C972.24 156.867 972.389 157.805 972.816 158.36C973.285 158.915 974.117 159.192 975.312 159.192H977.104V166.232H975.312C974.117 166.232 973.285 166.509 972.816 167.064C972.389 167.619 972.24 168.557 972.368 169.88L973.072 177.624C973.456 181.464 972.688 184.344 970.768 186.264C968.848 188.184 966.032 189.144 962.32 189.144ZM984.195 189.144H980.291V181.976H982.723C984.515 181.976 985.688 181.613 986.243 180.888C986.84 180.12 987.075 179.011 986.947 177.56L986.435 171.032C986.264 169.24 986.328 167.725 986.627 166.488C986.968 165.251 987.672 164.248 988.739 163.48C989.848 162.669 991.427 162.051 993.475 161.624V164.056C991.427 163.544 989.848 162.883 988.739 162.072C987.672 161.261 986.968 160.237 986.627 159C986.328 157.763 986.264 156.248 986.435 154.456L986.947 148.12C987.117 146.627 986.904 145.517 986.307 144.792C985.709 144.067 984.515 143.704 982.723 143.704H980.291V136.536H984.195C987.907 136.536 990.723 137.517 992.643 139.48C994.563 141.4 995.331 144.259 994.947 148.056L994.243 155.544C994.115 156.867 994.264 157.805 994.691 158.36C995.16 158.915 995.992 159.192 997.187 159.192H998.979V166.232H997.187C995.992 166.232 995.16 166.509 994.691 167.064C994.264 167.619 994.115 168.557 994.243 169.88L994.947 177.624C995.331 181.464 994.563 184.344 992.643 186.264C990.723 188.184 987.907 189.144 984.195 189.144Z" fill="white"/>
</svg>
