<svg width="1440" height="1024" viewBox="0 0 1440 1024" fill="none" xmlns="http://www.w3.org/2000/svg">
<rect width="1440" height="1024" fill="#1D243A"/>
<rect x="439" y="432" width="561" height="189" rx="8" fill="white"/>
<rect x="568" y="481.424" width="391" height="55.2386" rx="8" fill="#D9D9D9"/>
<path d="M519.226 483.362H524.969C529.387 483.362 532.969 486.944 532.969 491.362V496.68M532.969 523.315V528.632C532.969 533.051 529.387 536.632 524.969 536.632H519.226M491.742 536.632H486C481.582 536.632 478 533.051 478 528.632V523.315M478 496.68V491.362C478 486.944 481.582 483.362 486 483.362H491.742" stroke="black" stroke-width="6.10762" stroke-linecap="round" stroke-linejoin="round"/>
<path d="M484.108 509.997H526.861" stroke="black" stroke-width="6.10762" stroke-linecap="round" stroke-linejoin="round"/>
<path d="M617 568C617 561.373 622.373 556 629 556H811C817.627 556 823 561.373 823 568V590C823 596.627 817.627 602 811 602H629C622.373 602 617 596.627 617 590V568Z" fill="#E57E1F"/>
<path d="M679.025 592.04L695.105 568.44H698.585L682.505 592.04H679.025ZM679.025 594V592.04L681.545 591.32H698.265V594H679.025ZM679.785 569.16V566.48H698.585V568.44L696.025 569.16H679.785ZM710.423 594.4C708.609 594.4 706.956 593.96 705.463 593.08C703.996 592.2 702.823 591.013 701.943 589.52C701.089 588.027 700.663 586.36 700.663 584.52C700.663 582.707 701.089 581.067 701.943 579.6C702.823 578.133 703.996 576.973 705.463 576.12C706.956 575.24 708.609 574.8 710.423 574.8C712.263 574.8 713.916 575.227 715.383 576.08C716.849 576.933 718.009 578.107 718.863 579.6C719.743 581.067 720.182 582.707 720.182 584.52C720.182 586.387 719.743 588.067 718.863 589.56C718.009 591.027 716.849 592.2 715.383 593.08C713.916 593.96 712.263 594.4 710.423 594.4ZM710.423 591.68C711.756 591.68 712.929 591.373 713.943 590.76C714.983 590.147 715.796 589.293 716.383 588.2C716.996 587.107 717.303 585.88 717.303 584.52C717.303 583.16 716.996 581.96 716.383 580.92C715.796 579.853 714.983 579.013 713.943 578.4C712.929 577.787 711.756 577.48 710.423 577.48C709.116 577.48 707.943 577.787 706.903 578.4C705.863 579.013 705.049 579.853 704.463 580.92C703.876 581.96 703.583 583.16 703.583 584.52C703.583 585.907 703.876 587.147 704.463 588.24C705.049 589.307 705.863 590.147 706.903 590.76C707.943 591.373 709.116 591.68 710.423 591.68ZM733.317 594.4C731.424 594.4 729.73 593.973 728.237 593.12C726.744 592.267 725.557 591.093 724.677 589.6C723.824 588.107 723.397 586.427 723.397 584.56C723.397 582.72 723.824 581.067 724.677 579.6C725.53 578.107 726.69 576.933 728.157 576.08C729.624 575.227 731.264 574.8 733.077 574.8C734.784 574.8 736.29 575.187 737.597 575.96C738.93 576.733 739.97 577.813 740.717 579.2C741.49 580.56 741.877 582.133 741.877 583.92C741.877 584.133 741.864 584.387 741.837 584.68C741.81 584.947 741.757 585.267 741.677 585.64H725.397V583.24H740.157L739.157 584.12C739.184 582.733 738.944 581.547 738.437 580.56C737.957 579.547 737.25 578.773 736.317 578.24C735.41 577.68 734.304 577.4 732.997 577.4C731.637 577.4 730.45 577.693 729.437 578.28C728.424 578.867 727.624 579.693 727.037 580.76C726.477 581.8 726.197 583.04 726.197 584.48C726.197 585.92 726.49 587.187 727.077 588.28C727.69 589.373 728.53 590.227 729.597 590.84C730.69 591.453 731.944 591.76 733.357 591.76C734.504 591.76 735.557 591.56 736.517 591.16C737.477 590.733 738.29 590.107 738.957 589.28L740.757 591.12C739.877 592.16 738.784 592.973 737.477 593.56C736.197 594.12 734.81 594.4 733.317 594.4ZM758.28 594L748.68 584.36L758.12 575.2H761.6L751.32 585.08L751.4 583.48L762 594H758.28ZM746.16 594V565.68H748.96V594H746.16Z" fill="white"/>
<path d="M19.596 1005L11.672 985.4H15.172L21.36 1001.28H20.128L26.372 985.4H29.816L21.836 1005H19.596ZM35.4383 1005.28C34.1316 1005.28 32.9463 1004.97 31.8823 1004.36C30.8183 1003.72 29.969 1002.87 29.3343 1001.81C28.7183 1000.74 28.4103 999.559 28.4103 998.252C28.4103 996.945 28.7183 995.769 29.3343 994.724C29.969 993.679 30.8183 992.848 31.8823 992.232C32.9463 991.597 34.1316 991.28 35.4383 991.28C36.7636 991.28 37.9583 991.588 39.0223 992.204C40.0863 992.82 40.9263 993.66 41.5423 994.724C42.177 995.769 42.4943 996.945 42.4943 998.252C42.4943 999.559 42.177 1000.74 41.5423 1001.81C40.9263 1002.87 40.0863 1003.72 39.0223 1004.36C37.9583 1004.97 36.7636 1005.28 35.4383 1005.28ZM35.4383 1002.31C36.2036 1002.31 36.8756 1002.14 37.4543 1001.81C38.0516 1001.45 38.509 1000.97 38.8263 1000.35C39.1623 999.736 39.3303 999.036 39.3303 998.252C39.3303 997.468 39.1623 996.777 38.8263 996.18C38.4903 995.583 38.033 995.116 37.4543 994.78C36.8756 994.425 36.2036 994.248 35.4383 994.248C34.6916 994.248 34.0196 994.425 33.4223 994.78C32.8436 995.116 32.3863 995.583 32.0503 996.18C31.733 996.777 31.5743 997.468 31.5743 998.252C31.5743 999.036 31.733 999.736 32.0503 1000.35C32.3863 1000.97 32.8436 1001.45 33.4223 1001.81C34.0196 1002.14 34.6916 1002.31 35.4383 1002.31ZM51.2997 1005.28C49.9557 1005.28 48.7423 1004.98 47.6597 1004.38C46.5957 1003.77 45.7463 1002.93 45.1117 1001.86C44.4957 1000.8 44.1877 999.605 44.1877 998.28C44.1877 996.955 44.4957 995.769 45.1117 994.724C45.7277 993.66 46.5583 992.82 47.6037 992.204C48.6677 991.588 49.8437 991.28 51.1317 991.28C52.3823 991.28 53.4837 991.569 54.4357 992.148C55.4063 992.727 56.1623 993.52 56.7037 994.528C57.2637 995.536 57.5437 996.684 57.5437 997.972C57.5437 998.196 57.525 998.429 57.4877 998.672C57.469 998.896 57.4317 999.148 57.3757 999.428H46.3437V996.908H55.7797L54.6317 997.916C54.5943 997.095 54.4357 996.404 54.1557 995.844C53.8757 995.284 53.4743 994.855 52.9517 994.556C52.4477 994.257 51.8223 994.108 51.0757 994.108C50.2917 994.108 49.6103 994.276 49.0317 994.612C48.453 994.948 48.005 995.424 47.6877 996.04C47.3703 996.637 47.2117 997.356 47.2117 998.196C47.2117 999.036 47.3797 999.773 47.7157 1000.41C48.0517 1001.04 48.5277 1001.54 49.1437 1001.89C49.7597 1002.23 50.469 1002.4 51.2717 1002.4C51.9623 1002.4 52.597 1002.27 53.1757 1002.03C53.773 1001.79 54.277 1001.43 54.6877 1000.97L56.6477 1002.96C55.9943 1003.72 55.201 1004.3 54.2677 1004.69C53.3343 1005.08 52.345 1005.28 51.2997 1005.28ZM60.0127 1005V991.56H63.0927V1005H60.0127ZM63.0927 997.524L62.0287 996.992C62.0287 995.293 62.402 993.921 63.1487 992.876C63.914 991.812 65.062 991.28 66.5927 991.28C67.2647 991.28 67.8714 991.401 68.4127 991.644C68.954 991.887 69.458 992.279 69.9247 992.82L67.9087 994.892C67.666 994.631 67.3954 994.444 67.0967 994.332C66.798 994.22 66.4527 994.164 66.0607 994.164C65.202 994.164 64.4927 994.435 63.9327 994.976C63.3727 995.517 63.0927 996.367 63.0927 997.524ZM83.7007 1005.28C82.3754 1005.28 81.1714 1004.97 80.0887 1004.36C79.0247 1003.74 78.1847 1002.9 77.5687 1001.84C76.9527 1000.77 76.6447 999.587 76.6447 998.28C76.6447 996.955 76.9527 995.769 77.5687 994.724C78.1847 993.66 79.0247 992.82 80.0887 992.204C81.1714 991.588 82.3754 991.28 83.7007 991.28C84.746 991.28 85.7167 991.485 86.6127 991.896C87.5274 992.288 88.302 992.857 88.9367 993.604L86.9207 995.648C86.5287 995.181 86.0527 994.836 85.4927 994.612C84.9514 994.369 84.354 994.248 83.7007 994.248C82.9354 994.248 82.254 994.425 81.6567 994.78C81.078 995.116 80.6207 995.583 80.2847 996.18C79.9674 996.777 79.8087 997.477 79.8087 998.28C79.8087 999.064 79.9674 999.764 80.2847 1000.38C80.6207 1000.98 81.078 1001.45 81.6567 1001.81C82.254 1002.14 82.9354 1002.31 83.7007 1002.31C84.354 1002.31 84.9514 1002.2 85.4927 1001.98C86.0527 1001.73 86.5287 1001.38 86.9207 1000.91L88.9367 1002.96C88.302 1003.7 87.5274 1004.28 86.6127 1004.69C85.7167 1005.08 84.746 1005.28 83.7007 1005.28ZM97.0438 1005.28C95.7371 1005.28 94.5518 1004.97 93.4878 1004.36C92.4238 1003.72 91.5744 1002.87 90.9398 1001.81C90.3238 1000.74 90.0158 999.559 90.0158 998.252C90.0158 996.945 90.3238 995.769 90.9398 994.724C91.5744 993.679 92.4238 992.848 93.4878 992.232C94.5518 991.597 95.7371 991.28 97.0438 991.28C98.3691 991.28 99.5638 991.588 100.628 992.204C101.692 992.82 102.532 993.66 103.148 994.724C103.782 995.769 104.1 996.945 104.1 998.252C104.1 999.559 103.782 1000.74 103.148 1001.81C102.532 1002.87 101.692 1003.72 100.628 1004.36C99.5638 1004.97 98.3691 1005.28 97.0438 1005.28ZM97.0438 1002.31C97.8091 1002.31 98.4811 1002.14 99.0598 1001.81C99.6571 1001.45 100.114 1000.97 100.432 1000.35C100.768 999.736 100.936 999.036 100.936 998.252C100.936 997.468 100.768 996.777 100.432 996.18C100.096 995.583 99.6384 995.116 99.0598 994.78C98.4811 994.425 97.8091 994.248 97.0438 994.248C96.2971 994.248 95.6251 994.425 95.0278 994.78C94.4491 995.116 93.9918 995.583 93.6558 996.18C93.3384 996.777 93.1798 997.468 93.1798 998.252C93.1798 999.036 93.3384 999.736 93.6558 1000.35C93.9918 1000.97 94.4491 1001.45 95.0278 1001.81C95.6251 1002.14 96.2971 1002.31 97.0438 1002.31ZM112.289 1005.28C111.076 1005.28 109.974 1004.97 108.985 1004.36C108.014 1003.74 107.24 1002.91 106.661 1001.86C106.101 1000.8 105.821 999.615 105.821 998.308C105.821 996.983 106.101 995.797 106.661 994.752C107.24 993.688 108.014 992.848 108.985 992.232C109.974 991.597 111.076 991.28 112.289 991.28C113.316 991.28 114.221 991.504 115.005 991.952C115.808 992.381 116.442 992.979 116.909 993.744C117.376 994.509 117.609 995.377 117.609 996.348V1000.21C117.609 1001.18 117.376 1002.05 116.909 1002.82C116.461 1003.58 115.836 1004.19 115.033 1004.64C114.23 1005.07 113.316 1005.28 112.289 1005.28ZM112.793 1002.37C113.558 1002.37 114.221 1002.2 114.781 1001.86C115.36 1001.51 115.808 1001.02 116.125 1000.41C116.442 999.792 116.601 999.083 116.601 998.28C116.601 997.477 116.442 996.768 116.125 996.152C115.808 995.536 115.36 995.06 114.781 994.724C114.221 994.369 113.558 994.192 112.793 994.192C112.046 994.192 111.384 994.369 110.805 994.724C110.245 995.06 109.797 995.536 109.461 996.152C109.144 996.768 108.985 997.477 108.985 998.28C108.985 999.083 109.144 999.792 109.461 1000.41C109.797 1001.02 110.245 1001.51 110.805 1001.86C111.384 1002.2 112.046 1002.37 112.793 1002.37ZM119.485 1005H116.405V1001.39L116.937 998.112L116.405 994.864V984.84H119.485V1005ZM129.147 1005.28C127.803 1005.28 126.59 1004.98 125.507 1004.38C124.443 1003.77 123.594 1002.93 122.959 1001.86C122.343 1000.8 122.035 999.605 122.035 998.28C122.035 996.955 122.343 995.769 122.959 994.724C123.575 993.66 124.406 992.82 125.451 992.204C126.515 991.588 127.691 991.28 128.979 991.28C130.23 991.28 131.331 991.569 132.283 992.148C133.254 992.727 134.01 993.52 134.551 994.528C135.111 995.536 135.391 996.684 135.391 997.972C135.391 998.196 135.373 998.429 135.335 998.672C135.317 998.896 135.279 999.148 135.223 999.428H124.191V996.908H133.627L132.479 997.916C132.442 997.095 132.283 996.404 132.003 995.844C131.723 995.284 131.322 994.855 130.799 994.556C130.295 994.257 129.67 994.108 128.923 994.108C128.139 994.108 127.458 994.276 126.879 994.612C126.301 994.948 125.853 995.424 125.535 996.04C125.218 996.637 125.059 997.356 125.059 998.196C125.059 999.036 125.227 999.773 125.563 1000.41C125.899 1001.04 126.375 1001.54 126.991 1001.89C127.607 1002.23 128.317 1002.4 129.119 1002.4C129.81 1002.4 130.445 1002.27 131.023 1002.03C131.621 1001.79 132.125 1001.43 132.535 1000.97L134.495 1002.96C133.842 1003.72 133.049 1004.3 132.115 1004.69C131.182 1005.08 130.193 1005.28 129.147 1005.28ZM152.678 1005V997.244C152.678 996.348 152.388 995.611 151.81 995.032C151.25 994.453 150.522 994.164 149.626 994.164C149.028 994.164 148.496 994.295 148.03 994.556C147.563 994.817 147.199 995.181 146.938 995.648C146.676 996.115 146.546 996.647 146.546 997.244L145.342 996.572C145.342 995.545 145.566 994.64 146.014 993.856C146.462 993.053 147.078 992.428 147.862 991.98C148.664 991.513 149.56 991.28 150.55 991.28C151.558 991.28 152.454 991.504 153.238 991.952C154.022 992.4 154.638 993.025 155.086 993.828C155.534 994.612 155.758 995.527 155.758 996.572V1005H152.678ZM143.466 1005V984.84H146.546V1005H143.466ZM164.516 1005.28C163.302 1005.28 162.201 1004.97 161.212 1004.36C160.241 1003.74 159.466 1002.91 158.888 1001.86C158.328 1000.8 158.048 999.615 158.048 998.308C158.048 996.983 158.328 995.797 158.888 994.752C159.466 993.688 160.241 992.848 161.212 992.232C162.201 991.597 163.302 991.28 164.516 991.28C165.542 991.28 166.448 991.504 167.232 991.952C168.034 992.381 168.669 992.979 169.136 993.744C169.602 994.509 169.836 995.377 169.836 996.348V1000.21C169.836 1001.18 169.602 1002.05 169.136 1002.82C168.688 1003.58 168.062 1004.19 167.26 1004.64C166.457 1005.07 165.542 1005.28 164.516 1005.28ZM165.02 1002.37C166.158 1002.37 167.073 1001.99 167.764 1001.22C168.473 1000.45 168.828 999.475 168.828 998.28C168.828 997.477 168.669 996.768 168.352 996.152C168.034 995.536 167.586 995.06 167.008 994.724C166.448 994.369 165.785 994.192 165.02 994.192C164.273 994.192 163.61 994.369 163.032 994.724C162.472 995.06 162.024 995.536 161.688 996.152C161.37 996.768 161.212 997.477 161.212 998.28C161.212 999.083 161.37 999.792 161.688 1000.41C162.024 1001.02 162.472 1001.51 163.032 1001.86C163.61 1002.2 164.273 1002.37 165.02 1002.37ZM168.632 1005V1001.39L169.164 998.112L168.632 994.864V991.56H171.712V1005H168.632ZM184.342 1005V997.244C184.342 996.348 184.053 995.611 183.474 995.032C182.914 994.453 182.186 994.164 181.29 994.164C180.693 994.164 180.161 994.295 179.694 994.556C179.227 994.817 178.863 995.181 178.602 995.648C178.341 996.115 178.21 996.647 178.21 997.244L177.006 996.572C177.006 995.545 177.23 994.64 177.678 993.856C178.126 993.053 178.742 992.428 179.526 991.98C180.329 991.513 181.225 991.28 182.214 991.28C183.222 991.28 184.118 991.541 184.902 992.064C185.686 992.568 186.302 993.231 186.75 994.052C187.198 994.855 187.422 995.695 187.422 996.572V1005H184.342ZM175.13 1005V991.56H178.21V1005H175.13ZM196.18 1005.28C194.966 1005.28 193.865 1004.97 192.876 1004.36C191.905 1003.74 191.13 1002.91 190.552 1001.86C189.992 1000.8 189.712 999.615 189.712 998.308C189.712 996.983 189.992 995.797 190.552 994.752C191.13 993.688 191.905 992.848 192.876 992.232C193.865 991.597 194.966 991.28 196.18 991.28C197.206 991.28 198.112 991.504 198.896 991.952C199.698 992.381 200.333 992.979 200.8 993.744C201.266 994.509 201.5 995.377 201.5 996.348V1000.21C201.5 1001.18 201.266 1002.05 200.8 1002.82C200.352 1003.58 199.726 1004.19 198.924 1004.64C198.121 1005.07 197.206 1005.28 196.18 1005.28ZM196.684 1002.37C197.449 1002.37 198.112 1002.2 198.672 1001.86C199.25 1001.51 199.698 1001.02 200.016 1000.41C200.333 999.792 200.492 999.083 200.492 998.28C200.492 997.477 200.333 996.768 200.016 996.152C199.698 995.536 199.25 995.06 198.672 994.724C198.112 994.369 197.449 994.192 196.684 994.192C195.937 994.192 195.274 994.369 194.696 994.724C194.136 995.06 193.688 995.536 193.352 996.152C193.034 996.768 192.876 997.477 192.876 998.28C192.876 999.083 193.034 999.792 193.352 1000.41C193.688 1001.02 194.136 1001.51 194.696 1001.86C195.274 1002.2 195.937 1002.37 196.684 1002.37ZM203.376 1005H200.296V1001.39L200.828 998.112L200.296 994.864V984.84H203.376V1005ZM206.794 1005V991.56H209.874V1005H206.794ZM215.726 1005V996.992C215.726 996.096 215.446 995.405 214.886 994.92C214.326 994.416 213.635 994.164 212.814 994.164C212.254 994.164 211.75 994.276 211.302 994.5C210.873 994.724 210.527 995.051 210.266 995.48C210.005 995.891 209.874 996.395 209.874 996.992L208.67 996.32C208.67 995.293 208.894 994.407 209.342 993.66C209.79 992.913 210.397 992.335 211.162 991.924C211.927 991.495 212.786 991.28 213.738 991.28C214.69 991.28 215.549 991.485 216.314 991.896C217.079 992.307 217.686 992.885 218.134 993.632C218.582 994.379 218.806 995.275 218.806 996.32V1005H215.726ZM224.658 1005V996.992C224.658 996.096 224.378 995.405 223.818 994.92C223.258 994.416 222.567 994.164 221.746 994.164C221.205 994.164 220.71 994.276 220.262 994.5C219.814 994.724 219.459 995.051 219.198 995.48C218.937 995.891 218.806 996.395 218.806 996.992L217.07 996.32C217.163 995.293 217.462 994.407 217.966 993.66C218.47 992.913 219.114 992.335 219.898 991.924C220.701 991.495 221.578 991.28 222.53 991.28C223.501 991.28 224.378 991.485 225.162 991.896C225.946 992.307 226.571 992.885 227.038 993.632C227.505 994.379 227.738 995.275 227.738 996.32V1005H224.658ZM236.539 1005.28C235.326 1005.28 234.224 1004.97 233.235 1004.36C232.264 1003.74 231.49 1002.91 230.911 1001.86C230.351 1000.8 230.071 999.615 230.071 998.308C230.071 996.983 230.351 995.797 230.911 994.752C231.49 993.688 232.264 992.848 233.235 992.232C234.224 991.597 235.326 991.28 236.539 991.28C237.566 991.28 238.471 991.504 239.255 991.952C240.058 992.381 240.692 992.979 241.159 993.744C241.626 994.509 241.859 995.377 241.859 996.348V1000.21C241.859 1001.18 241.626 1002.05 241.159 1002.82C240.711 1003.58 240.086 1004.19 239.283 1004.64C238.48 1005.07 237.566 1005.28 236.539 1005.28ZM237.043 1002.37C238.182 1002.37 239.096 1001.99 239.787 1001.22C240.496 1000.45 240.851 999.475 240.851 998.28C240.851 997.477 240.692 996.768 240.375 996.152C240.058 995.536 239.61 995.06 239.031 994.724C238.471 994.369 237.808 994.192 237.043 994.192C236.296 994.192 235.634 994.369 235.055 994.724C234.495 995.06 234.047 995.536 233.711 996.152C233.394 996.768 233.235 997.477 233.235 998.28C233.235 999.083 233.394 999.792 233.711 1000.41C234.047 1001.02 234.495 1001.51 235.055 1001.86C235.634 1002.2 236.296 1002.37 237.043 1002.37ZM240.655 1005V1001.39L241.187 998.112L240.655 994.864V991.56H243.735V1005H240.655ZM249.197 1005V985.96H252.277V1005H249.197ZM245.977 994.36V991.56H255.497V994.36H245.977ZM257.763 1005V991.56H260.843V1005H257.763ZM259.303 989.096C258.781 989.096 258.342 988.919 257.987 988.564C257.651 988.209 257.483 987.771 257.483 987.248C257.483 986.725 257.651 986.287 257.987 985.932C258.342 985.577 258.781 985.4 259.303 985.4C259.845 985.4 260.283 985.577 260.619 985.932C260.955 986.287 261.123 986.725 261.123 987.248C261.123 987.771 260.955 988.209 260.619 988.564C260.283 988.919 259.845 989.096 259.303 989.096ZM269.898 1010.88C268.479 1010.88 267.238 1010.62 266.174 1010.1C265.11 1009.59 264.251 1008.87 263.598 1007.94L265.614 1005.92C266.155 1006.6 266.771 1007.1 267.462 1007.44C268.153 1007.77 268.983 1007.94 269.954 1007.94C271.167 1007.94 272.129 1007.62 272.838 1006.99C273.547 1006.37 273.902 1005.52 273.902 1004.44V1001.14L274.434 998.168L273.902 995.172V991.56H276.982V1004.44C276.982 1005.73 276.683 1006.85 276.086 1007.8C275.489 1008.77 274.658 1009.53 273.594 1010.07C272.53 1010.61 271.298 1010.88 269.898 1010.88ZM269.758 1004.72C268.563 1004.72 267.481 1004.43 266.51 1003.85C265.558 1003.25 264.802 1002.44 264.242 1001.42C263.701 1000.39 263.43 999.241 263.43 997.972C263.43 996.703 263.701 995.564 264.242 994.556C264.802 993.548 265.558 992.755 266.51 992.176C267.481 991.579 268.563 991.28 269.758 991.28C270.822 991.28 271.755 991.495 272.558 991.924C273.361 992.353 273.986 992.951 274.434 993.716C274.882 994.463 275.106 995.34 275.106 996.348V999.652C275.106 1000.64 274.873 1001.52 274.406 1002.28C273.958 1003.05 273.333 1003.65 272.53 1004.08C271.727 1004.51 270.803 1004.72 269.758 1004.72ZM270.374 1001.81C271.121 1001.81 271.774 1001.65 272.334 1001.33C272.894 1001.01 273.323 1000.58 273.622 1000.02C273.939 999.437 274.098 998.765 274.098 998C274.098 997.235 273.939 996.572 273.622 996.012C273.323 995.433 272.894 994.985 272.334 994.668C271.774 994.351 271.121 994.192 270.374 994.192C269.627 994.192 268.965 994.351 268.386 994.668C267.826 994.985 267.387 995.433 267.07 996.012C266.753 996.572 266.594 997.235 266.594 998C266.594 998.747 266.753 999.409 267.07 999.988C267.387 1000.57 267.826 1001.01 268.386 1001.33C268.965 1001.65 269.627 1001.81 270.374 1001.81ZM286.037 1005V991.56H289.117V1005H286.037ZM287.577 989.096C287.054 989.096 286.615 988.919 286.261 988.564C285.925 988.209 285.757 987.771 285.757 987.248C285.757 986.725 285.925 986.287 286.261 985.932C286.615 985.577 287.054 985.4 287.577 985.4C288.118 985.4 288.557 985.577 288.893 985.932C289.229 986.287 289.397 986.725 289.397 987.248C289.397 987.771 289.229 988.209 288.893 988.564C288.557 988.919 288.118 989.096 287.577 989.096ZM301.783 1005V997.244C301.783 996.348 301.494 995.611 300.915 995.032C300.355 994.453 299.627 994.164 298.731 994.164C298.134 994.164 297.602 994.295 297.135 994.556C296.669 994.817 296.305 995.181 296.043 995.648C295.782 996.115 295.651 996.647 295.651 997.244L294.447 996.572C294.447 995.545 294.671 994.64 295.119 993.856C295.567 993.053 296.183 992.428 296.967 991.98C297.77 991.513 298.666 991.28 299.655 991.28C300.663 991.28 301.559 991.541 302.343 992.064C303.127 992.568 303.743 993.231 304.191 994.052C304.639 994.855 304.863 995.695 304.863 996.572V1005H301.783ZM292.571 1005V991.56H295.651V1005H292.571Z" fill="#A0A0A0"/>
<path d="M429.313 248.594C426.181 248.594 423.481 248.09 421.213 247.082C418.981 246.038 416.929 244.472 415.057 242.384L420.565 236.93C421.789 238.334 423.139 239.432 424.615 240.224C426.127 240.98 427.873 241.358 429.853 241.358C431.653 241.358 433.039 241.034 434.011 240.386C435.019 239.738 435.523 238.838 435.523 237.686C435.523 236.642 435.199 235.796 434.551 235.148C433.903 234.5 433.039 233.942 431.959 233.474C430.915 233.006 429.745 232.556 428.449 232.124C427.189 231.692 425.929 231.206 424.669 230.666C423.409 230.09 422.239 229.388 421.159 228.56C420.115 227.696 419.269 226.634 418.621 225.374C417.973 224.078 417.649 222.458 417.649 220.514C417.649 218.174 418.207 216.158 419.323 214.466C420.475 212.774 422.059 211.496 424.075 210.632C426.091 209.732 428.413 209.282 431.041 209.282C433.705 209.282 436.135 209.75 438.331 210.686C440.563 211.622 442.399 212.9 443.839 214.52L438.331 219.974C437.179 218.786 436.009 217.904 434.821 217.328C433.669 216.752 432.355 216.464 430.879 216.464C429.403 216.464 428.233 216.752 427.369 217.328C426.505 217.868 426.073 218.66 426.073 219.704C426.073 220.676 426.397 221.468 427.045 222.08C427.693 222.656 428.539 223.16 429.583 223.592C430.663 224.024 431.833 224.456 433.093 224.888C434.389 225.32 435.667 225.824 436.927 226.4C438.187 226.976 439.339 227.714 440.383 228.614C441.463 229.478 442.327 230.594 442.975 231.962C443.623 233.294 443.947 234.95 443.947 236.93C443.947 240.566 442.651 243.428 440.059 245.516C437.467 247.568 433.885 248.594 429.313 248.594ZM461.124 248.594C458.424 248.594 455.976 248 453.78 246.812C451.584 245.624 449.856 243.986 448.596 241.898C447.336 239.81 446.706 237.47 446.706 234.878C446.706 232.25 447.336 229.91 448.596 227.858C449.892 225.77 451.638 224.132 453.834 222.944C456.03 221.756 458.496 221.162 461.232 221.162C463.284 221.162 465.156 221.522 466.848 222.242C468.576 222.926 470.106 223.97 471.438 225.374L466.146 230.666C465.534 229.982 464.814 229.478 463.986 229.154C463.194 228.83 462.276 228.668 461.232 228.668C460.044 228.668 458.982 228.938 458.046 229.478C457.146 229.982 456.426 230.702 455.886 231.638C455.382 232.538 455.13 233.6 455.13 234.824C455.13 236.048 455.382 237.128 455.886 238.064C456.426 239 457.164 239.738 458.1 240.278C459.036 240.818 460.08 241.088 461.232 241.088C462.312 241.088 463.266 240.908 464.094 240.548C464.958 240.152 465.696 239.612 466.308 238.928L471.546 244.22C470.178 245.66 468.63 246.758 466.902 247.514C465.174 248.234 463.248 248.594 461.124 248.594ZM485.552 248.54C483.14 248.54 480.98 247.946 479.072 246.758C477.2 245.57 475.706 243.95 474.59 241.898C473.51 239.846 472.97 237.506 472.97 234.878C472.97 232.25 473.51 229.91 474.59 227.858C475.706 225.806 477.2 224.186 479.072 222.998C480.98 221.81 483.14 221.216 485.552 221.216C487.316 221.216 488.9 221.558 490.304 222.242C491.744 222.926 492.914 223.88 493.814 225.104C494.714 226.292 495.218 227.66 495.326 229.208V240.548C495.218 242.096 494.714 243.482 493.814 244.706C492.95 245.894 491.798 246.83 490.358 247.514C488.918 248.198 487.316 248.54 485.552 248.54ZM487.226 241.088C488.99 241.088 490.412 240.512 491.492 239.36C492.572 238.172 493.112 236.678 493.112 234.878C493.112 233.654 492.86 232.574 492.356 231.638C491.888 230.702 491.204 229.982 490.304 229.478C489.44 228.938 488.432 228.668 487.28 228.668C486.128 228.668 485.102 228.938 484.202 229.478C483.338 229.982 482.636 230.702 482.096 231.638C481.592 232.574 481.34 233.654 481.34 234.878C481.34 236.066 481.592 237.128 482.096 238.064C482.6 239 483.302 239.738 484.202 240.278C485.102 240.818 486.11 241.088 487.226 241.088ZM492.788 248V240.926L494.03 234.554L492.788 228.182V221.756H500.888V248H492.788ZM524.039 248V233.042C524.039 231.674 523.607 230.576 522.743 229.748C521.915 228.884 520.853 228.452 519.557 228.452C518.657 228.452 517.865 228.65 517.181 229.046C516.497 229.406 515.957 229.946 515.561 230.666C515.165 231.35 514.967 232.142 514.967 233.042L511.781 231.476C511.781 229.424 512.231 227.624 513.131 226.076C514.031 224.528 515.273 223.34 516.857 222.512C518.477 221.648 520.295 221.216 522.311 221.216C524.255 221.216 525.965 221.684 527.441 222.62C528.953 223.52 530.141 224.726 531.005 226.238C531.869 227.75 532.301 229.406 532.301 231.206V248H524.039ZM506.705 248V221.756H514.967V248H506.705ZM559.555 248.594C557.143 248.594 555.001 248.108 553.129 247.136C551.293 246.128 549.853 244.76 548.809 243.032C547.765 241.268 547.243 239.252 547.243 236.984V221.756H555.505V236.876C555.505 237.776 555.649 238.55 555.937 239.198C556.261 239.846 556.729 240.35 557.341 240.71C557.953 241.07 558.691 241.25 559.555 241.25C560.779 241.25 561.751 240.872 562.471 240.116C563.191 239.324 563.551 238.244 563.551 236.876V221.756H571.813V236.93C571.813 239.234 571.291 241.268 570.247 243.032C569.203 244.76 567.763 246.128 565.927 247.136C564.091 248.108 561.967 248.594 559.555 248.594ZM583.426 248L574.354 221.756H582.454L588.07 240.818L585.694 240.872L591.904 221.756H598.6L604.864 240.872L602.434 240.818L608.104 221.756H616.204L607.132 248H600.382L594.28 229.856H596.332L590.122 248H583.426ZM644.802 248.54C643.038 248.54 641.418 248.198 639.942 247.514C638.466 246.83 637.26 245.894 636.324 244.706C635.388 243.482 634.848 242.096 634.704 240.548V229.478C634.848 227.93 635.388 226.526 636.324 225.266C637.26 224.006 638.466 223.016 639.942 222.296C641.418 221.576 643.038 221.216 644.802 221.216C647.286 221.216 649.482 221.81 651.39 222.998C653.334 224.186 654.846 225.806 655.926 227.858C657.042 229.91 657.6 232.25 657.6 234.878C657.6 237.506 657.042 239.846 655.926 241.898C654.846 243.95 653.334 245.57 651.39 246.758C649.482 247.946 647.286 248.54 644.802 248.54ZM643.29 241.088C644.478 241.088 645.504 240.818 646.368 240.278C647.268 239.738 647.97 239 648.474 238.064C648.978 237.128 649.23 236.066 649.23 234.878C649.23 233.654 648.978 232.574 648.474 231.638C647.97 230.702 647.268 229.982 646.368 229.478C645.504 228.938 644.496 228.668 643.344 228.668C642.192 228.668 641.166 228.938 640.266 229.478C639.402 229.982 638.718 230.702 638.214 231.638C637.71 232.574 637.458 233.654 637.458 234.878C637.458 236.066 637.692 237.128 638.16 238.064C638.664 239 639.366 239.738 640.266 240.278C641.166 240.818 642.174 241.088 643.29 241.088ZM629.682 259.07V221.756H637.944V228.506L636.594 234.878L637.836 241.25V259.07H629.682ZM672.759 248.54C670.347 248.54 668.187 247.946 666.279 246.758C664.407 245.57 662.913 243.95 661.797 241.898C660.717 239.846 660.177 237.506 660.177 234.878C660.177 232.25 660.717 229.91 661.797 227.858C662.913 225.806 664.407 224.186 666.279 222.998C668.187 221.81 670.347 221.216 672.759 221.216C674.523 221.216 676.107 221.558 677.511 222.242C678.951 222.926 680.121 223.88 681.021 225.104C681.921 226.292 682.425 227.66 682.533 229.208V240.548C682.425 242.096 681.921 243.482 681.021 244.706C680.157 245.894 679.005 246.83 677.565 247.514C676.125 248.198 674.523 248.54 672.759 248.54ZM674.433 241.088C676.197 241.088 677.619 240.512 678.699 239.36C679.779 238.172 680.319 236.678 680.319 234.878C680.319 233.654 680.067 232.574 679.563 231.638C679.095 230.702 678.411 229.982 677.511 229.478C676.647 228.938 675.639 228.668 674.487 228.668C673.335 228.668 672.309 228.938 671.409 229.478C670.545 229.982 669.843 230.702 669.303 231.638C668.799 232.574 668.547 233.654 668.547 234.878C668.547 236.066 668.799 237.128 669.303 238.064C669.807 239 670.509 239.738 671.409 240.278C672.309 240.818 673.317 241.088 674.433 241.088ZM679.995 248V240.926L681.237 234.554L679.995 228.182V221.756H688.095V248H679.995ZM703.47 248.648C701.922 248.648 700.392 248.45 698.88 248.054C697.404 247.658 696.018 247.1 694.722 246.38C693.462 245.624 692.382 244.76 691.482 243.788L696.18 239.036C697.044 239.972 698.07 240.71 699.258 241.25C700.446 241.754 701.742 242.006 703.146 242.006C704.118 242.006 704.856 241.862 705.36 241.574C705.9 241.286 706.17 240.89 706.17 240.386C706.17 239.738 705.846 239.252 705.198 238.928C704.586 238.568 703.794 238.262 702.822 238.01C701.85 237.722 700.824 237.416 699.744 237.092C698.664 236.768 697.638 236.318 696.666 235.742C695.694 235.166 694.902 234.374 694.29 233.366C693.678 232.322 693.372 231.008 693.372 229.424C693.372 227.732 693.804 226.274 694.668 225.05C695.532 223.79 696.756 222.8 698.34 222.08C699.924 221.36 701.778 221 703.902 221C706.134 221 708.186 221.396 710.058 222.188C711.966 222.944 713.514 224.078 714.702 225.59L710.004 230.342C709.176 229.37 708.24 228.686 707.196 228.29C706.188 227.894 705.198 227.696 704.226 227.696C703.29 227.696 702.588 227.84 702.12 228.128C701.652 228.38 701.418 228.758 701.418 229.262C701.418 229.802 701.724 230.234 702.336 230.558C702.948 230.882 703.74 231.17 704.712 231.422C705.684 231.674 706.71 231.98 707.79 232.34C708.87 232.7 709.896 233.186 710.868 233.798C711.84 234.41 712.632 235.238 713.244 236.282C713.856 237.29 714.162 238.622 714.162 240.278C714.162 242.834 713.19 244.868 711.246 246.38C709.338 247.892 706.746 248.648 703.47 248.648ZM741.564 248.594C738.864 248.594 736.416 248 734.22 246.812C732.06 245.588 730.35 243.932 729.09 241.844C727.83 239.756 727.2 237.416 727.2 234.824C727.2 232.232 727.83 229.91 729.09 227.858C730.35 225.806 732.06 224.186 734.22 222.998C736.38 221.774 738.828 221.162 741.564 221.162C744.3 221.162 746.748 221.756 748.908 222.944C751.068 224.132 752.778 225.77 754.038 227.858C755.298 229.91 755.928 232.232 755.928 234.824C755.928 237.416 755.298 239.756 754.038 241.844C752.778 243.932 751.068 245.588 748.908 246.812C746.748 248 744.3 248.594 741.564 248.594ZM741.564 241.088C742.752 241.088 743.796 240.836 744.696 240.332C745.596 239.792 746.28 239.054 746.748 238.118C747.252 237.146 747.504 236.048 747.504 234.824C747.504 233.6 747.252 232.538 746.748 231.638C746.244 230.702 745.542 229.982 744.642 229.478C743.778 228.938 742.752 228.668 741.564 228.668C740.412 228.668 739.386 228.938 738.486 229.478C737.586 229.982 736.884 230.702 736.38 231.638C735.876 232.574 735.624 233.654 735.624 234.878C735.624 236.066 735.876 237.146 736.38 238.118C736.884 239.054 737.586 239.792 738.486 240.332C739.386 240.836 740.412 241.088 741.564 241.088ZM760.041 248V221.756H768.303V248H760.041ZM776.835 248V232.664C776.835 231.332 776.421 230.306 775.593 229.586C774.801 228.83 773.811 228.452 772.623 228.452C771.795 228.452 771.057 228.632 770.409 228.992C769.761 229.316 769.239 229.784 768.843 230.396C768.483 231.008 768.303 231.764 768.303 232.664L765.117 231.26C765.117 229.172 765.567 227.39 766.467 225.914C767.367 224.402 768.591 223.25 770.139 222.458C771.687 221.63 773.433 221.216 775.377 221.216C777.213 221.216 778.851 221.63 780.291 222.458C781.767 223.286 782.937 224.438 783.801 225.914C784.665 227.39 785.097 229.154 785.097 231.206V248H776.835ZM793.629 248V232.664C793.629 231.332 793.215 230.306 792.387 229.586C791.595 228.83 790.605 228.452 789.417 228.452C788.589 228.452 787.851 228.632 787.203 228.992C786.555 229.316 786.033 229.784 785.637 230.396C785.277 231.008 785.097 231.764 785.097 232.664L780.345 232.016C780.417 229.784 780.939 227.876 781.911 226.292C782.919 224.672 784.233 223.43 785.853 222.566C787.509 221.666 789.363 221.216 791.415 221.216C793.431 221.216 795.213 221.648 796.761 222.512C798.345 223.34 799.587 224.546 800.487 226.13C801.423 227.678 801.891 229.55 801.891 231.746V248H793.629ZM821.195 248V210.902H829.457V248H821.195ZM815.255 228.776V221.756H835.397V228.776H815.255ZM851.47 248.594C848.626 248.594 846.088 248.018 843.856 246.866C841.66 245.678 839.932 244.04 838.672 241.952C837.412 239.864 836.782 237.506 836.782 234.878C836.782 232.25 837.394 229.91 838.618 227.858C839.878 225.77 841.57 224.132 843.694 222.944C845.818 221.756 848.212 221.162 850.876 221.162C853.468 221.162 855.754 221.72 857.734 222.836C859.714 223.952 861.262 225.5 862.378 227.48C863.53 229.46 864.106 231.728 864.106 234.284C864.106 234.752 864.07 235.256 863.998 235.796C863.962 236.3 863.872 236.894 863.728 237.578L841.102 237.632V231.962L860.218 231.908L856.654 234.284C856.618 232.772 856.384 231.53 855.952 230.558C855.52 229.55 854.872 228.794 854.008 228.29C853.18 227.75 852.154 227.48 850.93 227.48C849.634 227.48 848.5 227.786 847.528 228.398C846.592 228.974 845.854 229.802 845.314 230.882C844.81 231.962 844.558 233.276 844.558 234.824C844.558 236.372 844.828 237.704 845.368 238.82C845.944 239.9 846.736 240.746 847.744 241.358C848.788 241.934 850.012 242.222 851.416 242.222C852.712 242.222 853.882 242.006 854.926 241.574C855.97 241.106 856.888 240.422 857.68 239.522L862.216 244.058C860.92 245.57 859.354 246.704 857.518 247.46C855.682 248.216 853.666 248.594 851.47 248.594ZM878.377 248V208.796H886.639V248H878.377ZM905.417 248.594C902.573 248.594 900.035 248.018 897.803 246.866C895.607 245.678 893.879 244.04 892.619 241.952C891.359 239.864 890.729 237.506 890.729 234.878C890.729 232.25 891.341 229.91 892.565 227.858C893.825 225.77 895.517 224.132 897.641 222.944C899.765 221.756 902.159 221.162 904.823 221.162C907.415 221.162 909.701 221.72 911.681 222.836C913.661 223.952 915.209 225.5 916.325 227.48C917.477 229.46 918.053 231.728 918.053 234.284C918.053 234.752 918.017 235.256 917.945 235.796C917.909 236.3 917.819 236.894 917.675 237.578L895.049 237.632V231.962L914.165 231.908L910.601 234.284C910.565 232.772 910.331 231.53 909.899 230.558C909.467 229.55 908.819 228.794 907.955 228.29C907.127 227.75 906.101 227.48 904.877 227.48C903.581 227.48 902.447 227.786 901.475 228.398C900.539 228.974 899.801 229.802 899.261 230.882C898.757 231.962 898.505 233.276 898.505 234.824C898.505 236.372 898.775 237.704 899.315 238.82C899.891 239.9 900.683 240.746 901.691 241.358C902.735 241.934 903.959 242.222 905.363 242.222C906.659 242.222 907.829 242.006 908.873 241.574C909.917 241.106 910.835 240.422 911.627 239.522L916.163 244.058C914.867 245.57 913.301 246.704 911.465 247.46C909.629 248.216 907.613 248.594 905.417 248.594ZM939.375 248V233.042C939.375 231.674 938.943 230.576 938.079 229.748C937.251 228.884 936.189 228.452 934.893 228.452C933.993 228.452 933.201 228.65 932.517 229.046C931.833 229.406 931.293 229.946 930.897 230.666C930.501 231.35 930.303 232.142 930.303 233.042L927.117 231.476C927.117 229.424 927.567 227.624 928.467 226.076C929.367 224.528 930.609 223.34 932.193 222.512C933.813 221.648 935.631 221.216 937.647 221.216C939.591 221.216 941.301 221.684 942.777 222.62C944.289 223.52 945.477 224.726 946.341 226.238C947.205 227.75 947.637 229.406 947.637 231.206V248H939.375ZM922.041 248V221.756H930.303V248H922.041ZM965.903 248.594C963.059 248.594 960.521 248.018 958.289 246.866C956.093 245.678 954.365 244.04 953.105 241.952C951.845 239.864 951.215 237.506 951.215 234.878C951.215 232.25 951.827 229.91 953.051 227.858C954.311 225.77 956.003 224.132 958.127 222.944C960.251 221.756 962.645 221.162 965.309 221.162C967.901 221.162 970.187 221.72 972.167 222.836C974.147 223.952 975.695 225.5 976.811 227.48C977.963 229.46 978.539 231.728 978.539 234.284C978.539 234.752 978.503 235.256 978.431 235.796C978.395 236.3 978.305 236.894 978.161 237.578L955.535 237.632V231.962L974.651 231.908L971.087 234.284C971.051 232.772 970.817 231.53 970.385 230.558C969.953 229.55 969.305 228.794 968.441 228.29C967.613 227.75 966.587 227.48 965.363 227.48C964.067 227.48 962.933 227.786 961.961 228.398C961.025 228.974 960.287 229.802 959.747 230.882C959.243 231.962 958.991 233.276 958.991 234.824C958.991 236.372 959.261 237.704 959.801 238.82C960.377 239.9 961.169 240.746 962.177 241.358C963.221 241.934 964.445 242.222 965.849 242.222C967.145 242.222 968.315 242.006 969.359 241.574C970.403 241.106 971.321 240.422 972.113 239.522L976.649 244.058C975.353 245.57 973.787 246.704 971.951 247.46C970.115 248.216 968.099 248.594 965.903 248.594ZM999.861 248V233.042C999.861 231.674 999.429 230.576 998.565 229.748C997.737 228.884 996.675 228.452 995.379 228.452C994.479 228.452 993.687 228.65 993.003 229.046C992.319 229.406 991.779 229.946 991.383 230.666C990.987 231.35 990.789 232.142 990.789 233.042L987.603 231.476C987.603 229.424 988.053 227.624 988.953 226.076C989.853 224.528 991.095 223.34 992.679 222.512C994.299 221.648 996.117 221.216 998.133 221.216C1000.08 221.216 1001.79 221.684 1003.26 222.62C1004.78 223.52 1005.96 224.726 1006.83 226.238C1007.69 227.75 1008.12 229.406 1008.12 231.206V248H999.861ZM982.527 248V221.756H990.789V248H982.527ZM1013.43 254.48L1017.37 247.136L1019.8 246.434C1019.55 246.974 1019.24 247.424 1018.88 247.784C1018.52 248.108 1018.11 248.27 1017.64 248.27C1016.6 248.27 1015.64 247.838 1014.78 246.974C1013.92 246.11 1013.48 245.03 1013.48 243.734C1013.48 242.33 1013.95 241.124 1014.89 240.116C1015.86 239.108 1017.05 238.604 1018.45 238.604C1019.78 238.604 1020.94 239.108 1021.91 240.116C1022.92 241.088 1023.42 242.294 1023.42 243.734C1023.42 244.31 1023.31 244.976 1023.1 245.732C1022.88 246.488 1022.45 247.478 1021.8 248.702L1017.43 256.694L1013.43 254.48ZM316.024 316.594C313.324 316.594 310.876 316 308.68 314.812C306.52 313.588 304.81 311.932 303.55 309.844C302.29 307.756 301.66 305.416 301.66 302.824C301.66 300.232 302.29 297.91 303.55 295.858C304.81 293.806 306.52 292.186 308.68 290.998C310.84 289.774 313.288 289.162 316.024 289.162C318.76 289.162 321.208 289.756 323.368 290.944C325.528 292.132 327.238 293.77 328.498 295.858C329.758 297.91 330.388 300.232 330.388 302.824C330.388 305.416 329.758 307.756 328.498 309.844C327.238 311.932 325.528 313.588 323.368 314.812C321.208 316 318.76 316.594 316.024 316.594ZM316.024 309.088C317.212 309.088 318.256 308.836 319.156 308.332C320.056 307.792 320.74 307.054 321.208 306.118C321.712 305.146 321.964 304.048 321.964 302.824C321.964 301.6 321.712 300.538 321.208 299.638C320.704 298.702 320.002 297.982 319.102 297.478C318.238 296.938 317.212 296.668 316.024 296.668C314.872 296.668 313.846 296.938 312.946 297.478C312.046 297.982 311.344 298.702 310.84 299.638C310.336 300.574 310.084 301.654 310.084 302.878C310.084 304.066 310.336 305.146 310.84 306.118C311.344 307.054 312.046 307.792 312.946 308.332C313.846 308.836 314.872 309.088 316.024 309.088ZM337.322 316V287.488C337.322 285.364 337.79 283.456 338.726 281.764C339.698 280.036 341.048 278.686 342.776 277.714C344.504 276.706 346.556 276.202 348.932 276.202C350.732 276.202 352.298 276.508 353.63 277.12C354.998 277.696 356.186 278.506 357.194 279.55L352.01 284.734C351.65 284.374 351.236 284.104 350.768 283.924C350.336 283.708 349.814 283.6 349.202 283.6C348.086 283.6 347.204 283.924 346.556 284.572C345.908 285.22 345.584 286.102 345.584 287.218V316H337.322ZM331.544 296.776V289.756H353.144V296.776H331.544ZM380.736 316.594C377.892 316.594 375.354 316.018 373.122 314.866C370.926 313.678 369.198 312.04 367.938 309.952C366.678 307.864 366.048 305.506 366.048 302.878C366.048 300.25 366.66 297.91 367.884 295.858C369.144 293.77 370.836 292.132 372.96 290.944C375.084 289.756 377.478 289.162 380.142 289.162C382.734 289.162 385.02 289.72 387 290.836C388.98 291.952 390.528 293.5 391.644 295.48C392.796 297.46 393.372 299.728 393.372 302.284C393.372 302.752 393.336 303.256 393.264 303.796C393.228 304.3 393.138 304.894 392.994 305.578L370.368 305.632V299.962L389.484 299.908L385.92 302.284C385.884 300.772 385.65 299.53 385.218 298.558C384.786 297.55 384.138 296.794 383.274 296.29C382.446 295.75 381.42 295.48 380.196 295.48C378.9 295.48 377.766 295.786 376.794 296.398C375.858 296.974 375.12 297.802 374.58 298.882C374.076 299.962 373.824 301.276 373.824 302.824C373.824 304.372 374.094 305.704 374.634 306.82C375.21 307.9 376.002 308.746 377.01 309.358C378.054 309.934 379.278 310.222 380.682 310.222C381.978 310.222 383.148 310.006 384.192 309.574C385.236 309.106 386.154 308.422 386.946 307.522L391.482 312.058C390.186 313.57 388.62 314.704 386.784 315.46C384.948 316.216 382.932 316.594 380.736 316.594ZM410.32 316.594C407.476 316.594 404.938 316.018 402.706 314.866C400.51 313.678 398.782 312.04 397.522 309.952C396.262 307.864 395.632 305.506 395.632 302.878C395.632 300.25 396.244 297.91 397.468 295.858C398.728 293.77 400.42 292.132 402.544 290.944C404.668 289.756 407.062 289.162 409.726 289.162C412.318 289.162 414.604 289.72 416.584 290.836C418.564 291.952 420.112 293.5 421.228 295.48C422.38 297.46 422.956 299.728 422.956 302.284C422.956 302.752 422.92 303.256 422.848 303.796C422.812 304.3 422.722 304.894 422.578 305.578L399.952 305.632V299.962L419.068 299.908L415.504 302.284C415.468 300.772 415.234 299.53 414.802 298.558C414.37 297.55 413.722 296.794 412.858 296.29C412.03 295.75 411.004 295.48 409.78 295.48C408.484 295.48 407.35 295.786 406.378 296.398C405.442 296.974 404.704 297.802 404.164 298.882C403.66 299.962 403.408 301.276 403.408 302.824C403.408 304.372 403.678 305.704 404.218 306.82C404.794 307.9 405.586 308.746 406.594 309.358C407.638 309.934 408.862 310.222 410.266 310.222C411.562 310.222 412.732 310.006 413.776 309.574C414.82 309.106 415.738 308.422 416.53 307.522L421.066 312.058C419.77 313.57 418.204 314.704 416.368 315.46C414.532 316.216 412.516 316.594 410.32 316.594ZM444.278 316V301.042C444.278 299.674 443.846 298.576 442.982 297.748C442.154 296.884 441.092 296.452 439.796 296.452C438.896 296.452 438.104 296.65 437.42 297.046C436.736 297.406 436.196 297.946 435.8 298.666C435.404 299.35 435.206 300.142 435.206 301.042L432.02 299.476C432.02 297.424 432.47 295.624 433.37 294.076C434.27 292.528 435.512 291.34 437.096 290.512C438.716 289.648 440.534 289.216 442.55 289.216C444.494 289.216 446.204 289.684 447.68 290.62C449.192 291.52 450.38 292.726 451.244 294.238C452.108 295.75 452.54 297.406 452.54 299.206V316H444.278ZM426.944 316V289.756H435.206V316H426.944ZM479.092 316.54C476.68 316.54 474.52 315.946 472.612 314.758C470.74 313.57 469.246 311.95 468.13 309.898C467.05 307.846 466.51 305.506 466.51 302.878C466.51 300.25 467.05 297.91 468.13 295.858C469.246 293.806 470.74 292.186 472.612 290.998C474.52 289.81 476.68 289.216 479.092 289.216C480.856 289.216 482.44 289.558 483.844 290.242C485.284 290.926 486.454 291.88 487.354 293.104C488.254 294.292 488.758 295.66 488.866 297.208V308.548C488.758 310.096 488.254 311.482 487.354 312.706C486.49 313.894 485.338 314.83 483.898 315.514C482.458 316.198 480.856 316.54 479.092 316.54ZM480.766 309.088C482.53 309.088 483.952 308.512 485.032 307.36C486.112 306.172 486.652 304.678 486.652 302.878C486.652 301.654 486.4 300.574 485.896 299.638C485.428 298.702 484.744 297.982 483.844 297.478C482.98 296.938 481.972 296.668 480.82 296.668C479.668 296.668 478.642 296.938 477.742 297.478C476.878 297.982 476.176 298.702 475.636 299.638C475.132 300.574 474.88 301.654 474.88 302.878C474.88 304.066 475.132 305.128 475.636 306.064C476.14 307 476.842 307.738 477.742 308.278C478.642 308.818 479.65 309.088 480.766 309.088ZM486.328 316V308.926L487.57 302.554L486.328 296.182V289.756H494.428V316H486.328ZM500.245 316V289.756H508.507V316H500.245ZM508.507 301.582L505.051 298.882C505.735 295.822 506.887 293.446 508.507 291.754C510.127 290.062 512.377 289.216 515.257 289.216C516.517 289.216 517.615 289.414 518.551 289.81C519.523 290.17 520.369 290.746 521.089 291.538L516.175 297.748C515.815 297.352 515.365 297.046 514.825 296.83C514.285 296.614 513.673 296.506 512.989 296.506C511.621 296.506 510.523 296.938 509.695 297.802C508.903 298.63 508.507 299.89 508.507 301.582ZM527.28 316V278.902H535.542V316H527.28ZM521.34 296.776V289.756H541.482V296.776H521.34ZM545.122 316V289.756H553.384V316H545.122ZM549.28 286.138C547.984 286.138 546.904 285.706 546.04 284.842C545.212 283.942 544.798 282.862 544.798 281.602C544.798 280.306 545.212 279.226 546.04 278.362C546.904 277.498 547.984 277.066 549.28 277.066C550.576 277.066 551.638 277.498 552.466 278.362C553.294 279.226 553.708 280.306 553.708 281.602C553.708 282.862 553.294 283.942 552.466 284.842C551.638 285.706 550.576 286.138 549.28 286.138ZM575.996 316L566.816 302.392L575.942 289.756H585.176L574.16 303.958L574.43 300.556L585.716 316H575.996ZM559.202 316V276.796H567.464V316H559.202ZM600.48 316.594C597.636 316.594 595.098 316.018 592.866 314.866C590.67 313.678 588.942 312.04 587.682 309.952C586.422 307.864 585.792 305.506 585.792 302.878C585.792 300.25 586.404 297.91 587.628 295.858C588.888 293.77 590.58 292.132 592.704 290.944C594.828 289.756 597.222 289.162 599.886 289.162C602.478 289.162 604.764 289.72 606.744 290.836C608.724 291.952 610.272 293.5 611.388 295.48C612.54 297.46 613.116 299.728 613.116 302.284C613.116 302.752 613.08 303.256 613.008 303.796C612.972 304.3 612.882 304.894 612.738 305.578L590.112 305.632V299.962L609.228 299.908L605.664 302.284C605.628 300.772 605.394 299.53 604.962 298.558C604.53 297.55 603.882 296.794 603.018 296.29C602.19 295.75 601.164 295.48 599.94 295.48C598.644 295.48 597.51 295.786 596.538 296.398C595.602 296.974 594.864 297.802 594.324 298.882C593.82 299.962 593.568 301.276 593.568 302.824C593.568 304.372 593.838 305.704 594.378 306.82C594.954 307.9 595.746 308.746 596.754 309.358C597.798 309.934 599.022 310.222 600.426 310.222C601.722 310.222 602.892 310.006 603.936 309.574C604.98 309.106 605.898 308.422 606.69 307.522L611.226 312.058C609.93 313.57 608.364 314.704 606.528 315.46C604.692 316.216 602.676 316.594 600.48 316.594ZM617.104 316V276.796H625.366V316H617.104ZM654.104 316.594C651.404 316.594 648.956 316 646.76 314.812C644.6 313.588 642.89 311.932 641.63 309.844C640.37 307.756 639.74 305.416 639.74 302.824C639.74 300.232 640.37 297.91 641.63 295.858C642.89 293.806 644.6 292.186 646.76 290.998C648.92 289.774 651.368 289.162 654.104 289.162C656.84 289.162 659.288 289.756 661.448 290.944C663.608 292.132 665.318 293.77 666.578 295.858C667.838 297.91 668.468 300.232 668.468 302.824C668.468 305.416 667.838 307.756 666.578 309.844C665.318 311.932 663.608 313.588 661.448 314.812C659.288 316 656.84 316.594 654.104 316.594ZM654.104 309.088C655.292 309.088 656.336 308.836 657.236 308.332C658.136 307.792 658.82 307.054 659.288 306.118C659.792 305.146 660.044 304.048 660.044 302.824C660.044 301.6 659.792 300.538 659.288 299.638C658.784 298.702 658.082 297.982 657.182 297.478C656.318 296.938 655.292 296.668 654.104 296.668C652.952 296.668 651.926 296.938 651.026 297.478C650.126 297.982 649.424 298.702 648.92 299.638C648.416 300.574 648.164 301.654 648.164 302.878C648.164 304.066 648.416 305.146 648.92 306.118C649.424 307.054 650.126 307.792 651.026 308.332C651.926 308.836 652.952 309.088 654.104 309.088ZM672.581 316V289.756H680.843V316H672.581ZM689.375 316V300.664C689.375 299.332 688.961 298.306 688.133 297.586C687.341 296.83 686.351 296.452 685.163 296.452C684.335 296.452 683.597 296.632 682.949 296.992C682.301 297.316 681.779 297.784 681.383 298.396C681.023 299.008 680.843 299.764 680.843 300.664L677.657 299.26C677.657 297.172 678.107 295.39 679.007 293.914C679.907 292.402 681.131 291.25 682.679 290.458C684.227 289.63 685.973 289.216 687.917 289.216C689.753 289.216 691.391 289.63 692.831 290.458C694.307 291.286 695.477 292.438 696.341 293.914C697.205 295.39 697.637 297.154 697.637 299.206V316H689.375ZM706.169 316V300.664C706.169 299.332 705.755 298.306 704.927 297.586C704.135 296.83 703.145 296.452 701.957 296.452C701.129 296.452 700.391 296.632 699.743 296.992C699.095 297.316 698.573 297.784 698.177 298.396C697.817 299.008 697.637 299.764 697.637 300.664L692.885 300.016C692.957 297.784 693.479 295.876 694.451 294.292C695.459 292.672 696.773 291.43 698.393 290.566C700.049 289.666 701.903 289.216 703.955 289.216C705.971 289.216 707.753 289.648 709.301 290.512C710.885 291.34 712.127 292.546 713.027 294.13C713.963 295.678 714.431 297.55 714.431 299.746V316H706.169ZM733.735 316V278.902H741.997V316H733.735ZM727.795 296.776V289.756H747.937V296.776H727.795ZM764.01 316.594C761.166 316.594 758.628 316.018 756.396 314.866C754.2 313.678 752.472 312.04 751.212 309.952C749.952 307.864 749.322 305.506 749.322 302.878C749.322 300.25 749.934 297.91 751.158 295.858C752.418 293.77 754.11 292.132 756.234 290.944C758.358 289.756 760.752 289.162 763.416 289.162C766.008 289.162 768.294 289.72 770.274 290.836C772.254 291.952 773.802 293.5 774.918 295.48C776.07 297.46 776.646 299.728 776.646 302.284C776.646 302.752 776.61 303.256 776.538 303.796C776.502 304.3 776.412 304.894 776.268 305.578L753.642 305.632V299.962L772.758 299.908L769.194 302.284C769.158 300.772 768.924 299.53 768.492 298.558C768.06 297.55 767.412 296.794 766.548 296.29C765.72 295.75 764.694 295.48 763.47 295.48C762.174 295.48 761.04 295.786 760.068 296.398C759.132 296.974 758.394 297.802 757.854 298.882C757.35 299.962 757.098 301.276 757.098 302.824C757.098 304.372 757.368 305.704 757.908 306.82C758.484 307.9 759.276 308.746 760.284 309.358C761.328 309.934 762.552 310.222 763.956 310.222C765.252 310.222 766.422 310.006 767.466 309.574C768.51 309.106 769.428 308.422 770.22 307.522L774.756 312.058C773.46 313.57 771.894 314.704 770.058 315.46C768.222 316.216 766.206 316.594 764.01 316.594ZM780.634 316V289.756H788.896V316H780.634ZM788.896 301.582L785.44 298.882C786.124 295.822 787.276 293.446 788.896 291.754C790.516 290.062 792.766 289.216 795.646 289.216C796.906 289.216 798.004 289.414 798.94 289.81C799.912 290.17 800.758 290.746 801.478 291.538L796.564 297.748C796.204 297.352 795.754 297.046 795.214 296.83C794.674 296.614 794.062 296.506 793.378 296.506C792.01 296.506 790.912 296.938 790.084 297.802C789.292 298.63 788.896 299.89 788.896 301.582ZM815.343 316.594C812.931 316.594 810.789 316.108 808.917 315.136C807.081 314.128 805.641 312.76 804.597 311.032C803.553 309.268 803.031 307.252 803.031 304.984V289.756H811.293V304.876C811.293 305.776 811.437 306.55 811.725 307.198C812.049 307.846 812.517 308.35 813.129 308.71C813.741 309.07 814.479 309.25 815.343 309.25C816.567 309.25 817.539 308.872 818.259 308.116C818.979 307.324 819.339 306.244 819.339 304.876V289.756H827.601V304.93C827.601 307.234 827.079 309.268 826.035 311.032C824.991 312.76 823.551 314.128 821.715 315.136C819.879 316.108 817.755 316.594 815.343 316.594ZM843.912 327.772C841.032 327.772 838.494 327.268 836.298 326.26C834.138 325.288 832.428 323.902 831.168 322.102L836.244 317.026C837.18 318.142 838.224 318.988 839.376 319.564C840.564 320.14 841.986 320.428 843.642 320.428C845.694 320.428 847.296 319.924 848.448 318.916C849.636 317.908 850.23 316.486 850.23 314.65V307.954L851.634 302.23L850.392 296.506V289.756H858.492V314.434C858.492 317.134 857.862 319.474 856.602 321.454C855.342 323.434 853.614 324.982 851.418 326.098C849.222 327.214 846.72 327.772 843.912 327.772ZM843.534 315.19C841.122 315.19 838.98 314.614 837.108 313.462C835.236 312.31 833.76 310.744 832.68 308.764C831.6 306.784 831.06 304.588 831.06 302.176C831.06 299.728 831.6 297.532 832.68 295.588C833.76 293.608 835.236 292.06 837.108 290.944C838.98 289.792 841.122 289.216 843.534 289.216C845.334 289.216 846.936 289.558 848.34 290.242C849.78 290.89 850.932 291.826 851.796 293.05C852.696 294.238 853.2 295.624 853.308 297.208V307.198C853.2 308.746 852.696 310.132 851.796 311.356C850.932 312.544 849.78 313.48 848.34 314.164C846.9 314.848 845.298 315.19 843.534 315.19ZM845.1 307.846C846.252 307.846 847.242 307.594 848.07 307.09C848.934 306.586 849.582 305.92 850.014 305.092C850.482 304.228 850.716 303.256 850.716 302.176C850.716 301.096 850.482 300.124 850.014 299.26C849.582 298.396 848.934 297.712 848.07 297.208C847.242 296.704 846.252 296.452 845.1 296.452C843.984 296.452 842.994 296.704 842.13 297.208C841.266 297.712 840.6 298.396 840.132 299.26C839.664 300.124 839.43 301.096 839.43 302.176C839.43 303.184 839.664 304.138 840.132 305.038C840.6 305.902 841.248 306.586 842.076 307.09C842.94 307.594 843.948 307.846 845.1 307.846ZM878.332 316V278.902H886.594V316H878.332ZM872.392 296.776V289.756H892.534V296.776H872.392ZM908.607 316.594C905.763 316.594 903.225 316.018 900.993 314.866C898.797 313.678 897.069 312.04 895.809 309.952C894.549 307.864 893.919 305.506 893.919 302.878C893.919 300.25 894.531 297.91 895.755 295.858C897.015 293.77 898.707 292.132 900.831 290.944C902.955 289.756 905.349 289.162 908.013 289.162C910.605 289.162 912.891 289.72 914.871 290.836C916.851 291.952 918.399 293.5 919.515 295.48C920.667 297.46 921.243 299.728 921.243 302.284C921.243 302.752 921.207 303.256 921.135 303.796C921.099 304.3 921.009 304.894 920.865 305.578L898.239 305.632V299.962L917.355 299.908L913.791 302.284C913.755 300.772 913.521 299.53 913.089 298.558C912.657 297.55 912.009 296.794 911.145 296.29C910.317 295.75 909.291 295.48 908.067 295.48C906.771 295.48 905.637 295.786 904.665 296.398C903.729 296.974 902.991 297.802 902.451 298.882C901.947 299.962 901.695 301.276 901.695 302.824C901.695 304.372 901.965 305.704 902.505 306.82C903.081 307.9 903.873 308.746 904.881 309.358C905.925 309.934 907.149 310.222 908.553 310.222C909.849 310.222 911.019 310.006 912.063 309.574C913.107 309.106 914.025 308.422 914.817 307.522L919.353 312.058C918.057 313.57 916.491 314.704 914.655 315.46C912.819 316.216 910.803 316.594 908.607 316.594ZM950.635 316.54C948.871 316.54 947.251 316.18 945.775 315.46C944.299 314.704 943.093 313.714 942.157 312.49C941.221 311.23 940.681 309.826 940.537 308.278V297.208C940.681 295.66 941.221 294.292 942.157 293.104C943.093 291.88 944.299 290.926 945.775 290.242C947.251 289.558 948.871 289.216 950.635 289.216C953.119 289.216 955.315 289.81 957.223 290.998C959.167 292.186 960.679 293.806 961.759 295.858C962.875 297.91 963.433 300.25 963.433 302.878C963.433 305.506 962.875 307.846 961.759 309.898C960.679 311.95 959.167 313.57 957.223 314.758C955.315 315.946 953.119 316.54 950.635 316.54ZM949.177 309.088C950.329 309.088 951.337 308.818 952.201 308.278C953.101 307.738 953.803 307 954.307 306.064C954.811 305.128 955.063 304.066 955.063 302.878C955.063 301.654 954.811 300.574 954.307 299.638C953.803 298.702 953.101 297.982 952.201 297.478C951.337 296.938 950.329 296.668 949.177 296.668C948.025 296.668 946.999 296.938 946.099 297.478C945.199 297.982 944.497 298.702 943.993 299.638C943.525 300.574 943.291 301.654 943.291 302.878C943.291 304.102 943.543 305.182 944.047 306.118C944.551 307.054 945.235 307.792 946.099 308.332C946.999 308.836 948.025 309.088 949.177 309.088ZM935.515 316V276.796H943.777V296.182L942.427 302.554L943.669 308.926V316H935.515ZM967.63 316V289.756H975.892V316H967.63ZM975.892 301.582L972.436 298.882C973.12 295.822 974.272 293.446 975.892 291.754C977.512 290.062 979.762 289.216 982.642 289.216C983.902 289.216 985 289.414 985.936 289.81C986.908 290.17 987.754 290.746 988.474 291.538L983.56 297.748C983.2 297.352 982.75 297.046 982.21 296.83C981.67 296.614 981.058 296.506 980.374 296.506C979.006 296.506 977.908 296.938 977.08 297.802C976.288 298.63 975.892 299.89 975.892 301.582ZM1002.9 316.594C1000.05 316.594 997.515 316.018 995.283 314.866C993.087 313.678 991.359 312.04 990.099 309.952C988.839 307.864 988.209 305.506 988.209 302.878C988.209 300.25 988.821 297.91 990.045 295.858C991.305 293.77 992.997 292.132 995.121 290.944C997.245 289.756 999.639 289.162 1002.3 289.162C1004.89 289.162 1007.18 289.72 1009.16 290.836C1011.14 291.952 1012.69 293.5 1013.8 295.48C1014.96 297.46 1015.53 299.728 1015.53 302.284C1015.53 302.752 1015.5 303.256 1015.42 303.796C1015.39 304.3 1015.3 304.894 1015.15 305.578L992.529 305.632V299.962L1011.64 299.908L1008.08 302.284C1008.04 300.772 1007.81 299.53 1007.38 298.558C1006.95 297.55 1006.3 296.794 1005.43 296.29C1004.61 295.75 1003.58 295.48 1002.36 295.48C1001.06 295.48 999.927 295.786 998.955 296.398C998.019 296.974 997.281 297.802 996.741 298.882C996.237 299.962 995.985 301.276 995.985 302.824C995.985 304.372 996.255 305.704 996.795 306.82C997.371 307.9 998.163 308.746 999.171 309.358C1000.21 309.934 1001.44 310.222 1002.84 310.222C1004.14 310.222 1005.31 310.006 1006.35 309.574C1007.4 309.106 1008.31 308.422 1009.11 307.522L1013.64 312.058C1012.35 313.57 1010.78 314.704 1008.94 315.46C1007.11 316.216 1005.09 316.594 1002.9 316.594ZM1036.85 316V301.042C1036.85 299.674 1036.42 298.576 1035.56 297.748C1034.73 296.884 1033.67 296.452 1032.37 296.452C1031.47 296.452 1030.68 296.65 1030 297.046C1029.31 297.406 1028.77 297.946 1028.38 298.666C1027.98 299.35 1027.78 300.142 1027.78 301.042L1024.6 299.476C1024.6 297.424 1025.05 295.624 1025.95 294.076C1026.85 292.528 1028.09 291.34 1029.67 290.512C1031.29 289.648 1033.11 289.216 1035.13 289.216C1037.07 289.216 1038.78 289.684 1040.26 290.62C1041.77 291.52 1042.96 292.726 1043.82 294.238C1044.68 295.75 1045.12 297.406 1045.12 299.206V316H1036.85ZM1019.52 316V289.756H1027.78V316H1019.52ZM1061.55 327.772C1058.67 327.772 1056.13 327.268 1053.93 326.26C1051.77 325.288 1050.06 323.902 1048.8 322.102L1053.88 317.026C1054.81 318.142 1055.86 318.988 1057.01 319.564C1058.2 320.14 1059.62 320.428 1061.28 320.428C1063.33 320.428 1064.93 319.924 1066.08 318.916C1067.27 317.908 1067.86 316.486 1067.86 314.65V307.954L1069.27 302.23L1068.03 296.506V289.756H1076.13V314.434C1076.13 317.134 1075.5 319.474 1074.24 321.454C1072.98 323.434 1071.25 324.982 1069.05 326.098C1066.86 327.214 1064.35 327.772 1061.55 327.772ZM1061.17 315.19C1058.76 315.19 1056.61 314.614 1054.74 313.462C1052.87 312.31 1051.39 310.744 1050.31 308.764C1049.23 306.784 1048.69 304.588 1048.69 302.176C1048.69 299.728 1049.23 297.532 1050.31 295.588C1051.39 293.608 1052.87 292.06 1054.74 290.944C1056.61 289.792 1058.76 289.216 1061.17 289.216C1062.97 289.216 1064.57 289.558 1065.97 290.242C1067.41 290.89 1068.57 291.826 1069.43 293.05C1070.33 294.238 1070.83 295.624 1070.94 297.208V307.198C1070.83 308.746 1070.33 310.132 1069.43 311.356C1068.57 312.544 1067.41 313.48 1065.97 314.164C1064.53 314.848 1062.93 315.19 1061.17 315.19ZM1062.73 307.846C1063.89 307.846 1064.88 307.594 1065.7 307.09C1066.57 306.586 1067.22 305.92 1067.65 305.092C1068.12 304.228 1068.35 303.256 1068.35 302.176C1068.35 301.096 1068.12 300.124 1067.65 299.26C1067.22 298.396 1066.57 297.712 1065.7 297.208C1064.88 296.704 1063.89 296.452 1062.73 296.452C1061.62 296.452 1060.63 296.704 1059.76 297.208C1058.9 297.712 1058.23 298.396 1057.77 299.26C1057.3 300.124 1057.06 301.096 1057.06 302.176C1057.06 303.184 1057.3 304.138 1057.77 305.038C1058.23 305.902 1058.88 306.586 1059.71 307.09C1060.57 307.594 1061.58 307.846 1062.73 307.846ZM1094.92 316.594C1092.07 316.594 1089.54 316.018 1087.3 314.866C1085.11 313.678 1083.38 312.04 1082.12 309.952C1080.86 307.864 1080.23 305.506 1080.23 302.878C1080.23 300.25 1080.84 297.91 1082.07 295.858C1083.33 293.77 1085.02 292.132 1087.14 290.944C1089.27 289.756 1091.66 289.162 1094.32 289.162C1096.92 289.162 1099.2 289.72 1101.18 290.836C1103.16 291.952 1104.71 293.5 1105.83 295.48C1106.98 297.46 1107.55 299.728 1107.55 302.284C1107.55 302.752 1107.52 303.256 1107.45 303.796C1107.41 304.3 1107.32 304.894 1107.18 305.578L1084.55 305.632V299.962L1103.67 299.908L1100.1 302.284C1100.07 300.772 1099.83 299.53 1099.4 298.558C1098.97 297.55 1098.32 296.794 1097.46 296.29C1096.63 295.75 1095.6 295.48 1094.38 295.48C1093.08 295.48 1091.95 295.786 1090.98 296.398C1090.04 296.974 1089.3 297.802 1088.76 298.882C1088.26 299.962 1088.01 301.276 1088.01 302.824C1088.01 304.372 1088.28 305.704 1088.82 306.82C1089.39 307.9 1090.18 308.746 1091.19 309.358C1092.24 309.934 1093.46 310.222 1094.86 310.222C1096.16 310.222 1097.33 310.006 1098.37 309.574C1099.42 309.106 1100.34 308.422 1101.13 307.522L1105.66 312.058C1104.37 313.57 1102.8 314.704 1100.97 315.46C1099.13 316.216 1097.11 316.594 1094.92 316.594ZM1128.88 316V301.042C1128.88 299.674 1128.44 298.576 1127.58 297.748C1126.75 296.884 1125.69 296.452 1124.39 296.452C1123.49 296.452 1122.7 296.65 1122.02 297.046C1121.33 297.406 1120.79 297.946 1120.4 298.666C1120 299.35 1119.8 300.142 1119.8 301.042L1116.62 299.476C1116.62 297.424 1117.07 295.624 1117.97 294.076C1118.87 292.528 1120.11 291.34 1121.69 290.512C1123.31 289.648 1125.13 289.216 1127.15 289.216C1129.09 289.216 1130.8 289.684 1132.28 290.62C1133.79 291.52 1134.98 292.726 1135.84 294.238C1136.71 295.75 1137.14 297.406 1137.14 299.206V316H1128.88ZM1111.54 316V289.756H1119.8V316H1111.54Z" fill="white"/>
<rect x="350" y="18" width="739" height="73" rx="8" fill="#2C8A00"/>
<path d="M521.664 67.688C520.152 67.688 519.032 67.2773 518.304 66.456C517.595 65.6533 517.305 64.4773 517.436 62.928L517.744 59.288C517.8 58.6347 517.735 58.1587 517.548 57.86C517.361 57.5613 517.007 57.412 516.484 57.412H515.7V55.032H516.484C517.007 55.032 517.361 54.8827 517.548 54.584C517.735 54.2667 517.8 53.7907 517.744 53.156L517.436 49.6C517.305 48.0507 517.595 46.8747 518.304 46.072C519.032 45.2507 520.152 44.84 521.664 44.84H523.232V47.276H521.888C521.104 47.276 520.572 47.4533 520.292 47.808C520.031 48.144 519.937 48.704 520.012 49.488L520.264 52.596C520.339 53.38 520.301 54.0427 520.152 54.584C520.021 55.1253 519.732 55.5733 519.284 55.928C518.855 56.2827 518.229 56.572 517.408 56.796V55.732C518.229 55.9187 518.855 56.1893 519.284 56.544C519.732 56.88 520.021 57.3187 520.152 57.86C520.301 58.4013 520.339 59.064 520.264 59.848L520.012 63.04C519.956 63.824 520.059 64.3933 520.32 64.748C520.581 65.084 521.104 65.252 521.888 65.252H523.232V67.688H521.664ZM530.797 67.688C529.285 67.688 528.165 67.2773 527.437 66.456C526.727 65.6533 526.438 64.4773 526.569 62.928L526.877 59.288C526.933 58.6347 526.867 58.1587 526.681 57.86C526.494 57.5613 526.139 57.412 525.617 57.412H524.833V55.032H525.617C526.139 55.032 526.494 54.8827 526.681 54.584C526.867 54.2667 526.933 53.7907 526.877 53.156L526.569 49.6C526.438 48.0507 526.727 46.8747 527.437 46.072C528.165 45.2507 529.285 44.84 530.797 44.84H532.365V47.276H531.021C530.237 47.276 529.705 47.4533 529.425 47.808C529.163 48.144 529.07 48.704 529.145 49.488L529.397 52.596C529.471 53.38 529.434 54.0427 529.285 54.584C529.154 55.1253 528.865 55.5733 528.417 55.928C527.987 56.2827 527.362 56.572 526.541 56.796V55.732C527.362 55.9187 527.987 56.1893 528.417 56.544C528.865 56.88 529.154 57.3187 529.285 57.86C529.434 58.4013 529.471 59.064 529.397 59.848L529.145 63.04C529.089 63.824 529.191 64.3933 529.453 64.748C529.714 65.084 530.237 65.252 531.021 65.252H532.365V67.688H530.797ZM539.93 67.688C538.418 67.688 537.298 67.2773 536.57 66.456C535.86 65.6533 535.571 64.4773 535.702 62.928L536.01 59.288C536.066 58.6347 536 58.1587 535.814 57.86C535.627 57.5613 535.272 57.412 534.75 57.412H533.966V55.032H534.75C535.272 55.032 535.627 54.8827 535.814 54.584C536 54.2667 536.066 53.7907 536.01 53.156L535.702 49.6C535.571 48.0507 535.86 46.8747 536.57 46.072C537.298 45.2507 538.418 44.84 539.93 44.84H541.498V47.276H540.154C539.37 47.276 538.838 47.4533 538.558 47.808C538.296 48.144 538.203 48.704 538.278 49.488L538.53 52.596C538.604 53.38 538.567 54.0427 538.418 54.584C538.287 55.1253 537.998 55.5733 537.55 55.928C537.12 56.2827 536.495 56.572 535.674 56.796V55.732C536.495 55.9187 537.12 56.1893 537.55 56.544C537.998 56.88 538.287 57.3187 538.418 57.86C538.567 58.4013 538.604 59.064 538.53 59.848L538.278 63.04C538.222 63.824 538.324 64.3933 538.586 64.748C538.847 65.084 539.37 65.252 540.154 65.252H541.498V67.688H539.93ZM550.132 65V45.4H553.352V65H550.132ZM559.221 65V45.96H562.301V65H559.221ZM556.001 54.36V51.56H565.521V54.36H556.001ZM573.62 65.28C572.276 65.28 571.063 64.9813 569.98 64.384C568.916 63.768 568.067 62.928 567.432 61.864C566.816 60.8 566.508 59.6053 566.508 58.28C566.508 56.9547 566.816 55.7693 567.432 54.724C568.048 53.66 568.879 52.82 569.924 52.204C570.988 51.588 572.164 51.28 573.452 51.28C574.703 51.28 575.804 51.5693 576.756 52.148C577.727 52.7267 578.483 53.52 579.024 54.528C579.584 55.536 579.864 56.684 579.864 57.972C579.864 58.196 579.845 58.4293 579.808 58.672C579.789 58.896 579.752 59.148 579.696 59.428H568.664V56.908H578.1L576.952 57.916C576.915 57.0947 576.756 56.404 576.476 55.844C576.196 55.284 575.795 54.8547 575.272 54.556C574.768 54.2573 574.143 54.108 573.396 54.108C572.612 54.108 571.931 54.276 571.352 54.612C570.773 54.948 570.325 55.424 570.008 56.04C569.691 56.6373 569.532 57.356 569.532 58.196C569.532 59.036 569.7 59.7733 570.036 60.408C570.372 61.0427 570.848 61.5373 571.464 61.892C572.08 62.228 572.789 62.396 573.592 62.396C574.283 62.396 574.917 62.2747 575.496 62.032C576.093 61.7893 576.597 61.4347 577.008 60.968L578.968 62.956C578.315 63.7213 577.521 64.3 576.588 64.692C575.655 65.084 574.665 65.28 573.62 65.28ZM582.333 65V51.56H585.413V65H582.333ZM591.265 65V56.992C591.265 56.096 590.985 55.4053 590.425 54.92C589.865 54.416 589.174 54.164 588.353 54.164C587.793 54.164 587.289 54.276 586.841 54.5C586.412 54.724 586.066 55.0507 585.805 55.48C585.544 55.8907 585.413 56.3947 585.413 56.992L584.209 56.32C584.209 55.2933 584.433 54.4067 584.881 53.66C585.329 52.9133 585.936 52.3347 586.701 51.924C587.466 51.4947 588.325 51.28 589.277 51.28C590.229 51.28 591.088 51.4853 591.853 51.896C592.618 52.3067 593.225 52.8853 593.673 53.632C594.121 54.3787 594.345 55.2747 594.345 56.32V65H591.265ZM600.197 65V56.992C600.197 56.096 599.917 55.4053 599.357 54.92C598.797 54.416 598.106 54.164 597.285 54.164C596.744 54.164 596.249 54.276 595.801 54.5C595.353 54.724 594.998 55.0507 594.737 55.48C594.476 55.8907 594.345 56.3947 594.345 56.992L592.609 56.32C592.702 55.2933 593.001 54.4067 593.505 53.66C594.009 52.9133 594.653 52.3347 595.437 51.924C596.24 51.4947 597.117 51.28 598.069 51.28C599.04 51.28 599.917 51.4853 600.701 51.896C601.485 52.3067 602.11 52.8853 602.577 53.632C603.044 54.3787 603.277 55.2747 603.277 56.32V65H600.197ZM612.812 67.688H611.244V65.252H612.588C613.372 65.252 613.894 65.084 614.156 64.748C614.417 64.3933 614.52 63.824 614.464 63.04L614.212 59.848C614.156 59.064 614.193 58.4013 614.324 57.86C614.454 57.3187 614.734 56.88 615.164 56.544C615.612 56.1893 616.246 55.9187 617.068 55.732V56.796C616.246 56.572 615.612 56.2827 615.164 55.928C614.734 55.5733 614.454 55.1253 614.324 54.584C614.193 54.0427 614.156 53.38 614.212 52.596L614.464 49.488C614.538 48.704 614.436 48.144 614.156 47.808C613.894 47.4533 613.372 47.276 612.588 47.276H611.244V44.84H612.812C614.324 44.84 615.444 45.2507 616.172 46.072C616.9 46.8747 617.189 48.0507 617.04 49.6L616.732 53.156C616.676 53.7907 616.741 54.2667 616.928 54.584C617.114 54.8827 617.469 55.032 617.992 55.032H618.776V57.412H617.992C617.469 57.412 617.114 57.5613 616.928 57.86C616.741 58.1587 616.676 58.6347 616.732 59.288L617.04 62.928C617.17 64.4773 616.872 65.6533 616.144 66.456C615.434 67.2773 614.324 67.688 612.812 67.688ZM621.944 67.688H620.376V65.252H621.72C622.504 65.252 623.027 65.084 623.288 64.748C623.55 64.3933 623.652 63.824 623.596 63.04L623.344 59.848C623.288 59.064 623.326 58.4013 623.456 57.86C623.587 57.3187 623.867 56.88 624.296 56.544C624.744 56.1893 625.379 55.9187 626.2 55.732V56.796C625.379 56.572 624.744 56.2827 624.296 55.928C623.867 55.5733 623.587 55.1253 623.456 54.584C623.326 54.0427 623.288 53.38 623.344 52.596L623.596 49.488C623.671 48.704 623.568 48.144 623.288 47.808C623.027 47.4533 622.504 47.276 621.72 47.276H620.376V44.84H621.944C623.456 44.84 624.576 45.2507 625.304 46.072C626.032 46.8747 626.322 48.0507 626.172 49.6L625.864 53.156C625.808 53.7907 625.874 54.2667 626.06 54.584C626.247 54.8827 626.602 55.032 627.124 55.032H627.908V57.412H627.124C626.602 57.412 626.247 57.5613 626.06 57.86C625.874 58.1587 625.808 58.6347 625.864 59.288L626.172 62.928C626.303 64.4773 626.004 65.6533 625.276 66.456C624.567 67.2773 623.456 67.688 621.944 67.688ZM631.077 67.688H629.509V65.252H630.853C631.637 65.252 632.16 65.084 632.421 64.748C632.683 64.3933 632.785 63.824 632.729 63.04L632.477 59.848C632.421 59.064 632.459 58.4013 632.589 57.86C632.72 57.3187 633 56.88 633.429 56.544C633.877 56.1893 634.512 55.9187 635.333 55.732V56.796C634.512 56.572 633.877 56.2827 633.429 55.928C633 55.5733 632.72 55.1253 632.589 54.584C632.459 54.0427 632.421 53.38 632.477 52.596L632.729 49.488C632.804 48.704 632.701 48.144 632.421 47.808C632.16 47.4533 631.637 47.276 630.853 47.276H629.509V44.84H631.077C632.589 44.84 633.709 45.2507 634.437 46.072C635.165 46.8747 635.455 48.0507 635.305 49.6L634.997 53.156C634.941 53.7907 635.007 54.2667 635.193 54.584C635.38 54.8827 635.735 55.032 636.257 55.032H637.041V57.412H636.257C635.735 57.412 635.38 57.5613 635.193 57.86C635.007 58.1587 634.941 58.6347 634.997 59.288L635.305 62.928C635.436 64.4773 635.137 65.6533 634.409 66.456C633.7 67.2773 632.589 67.688 631.077 67.688ZM645.088 65V51.56H648.168V65H645.088ZM646.628 49.096C646.105 49.096 645.666 48.9187 645.312 48.564C644.976 48.2093 644.808 47.7707 644.808 47.248C644.808 46.7253 644.976 46.2867 645.312 45.932C645.666 45.5773 646.105 45.4 646.628 45.4C647.169 45.4 647.608 45.5773 647.944 45.932C648.28 46.2867 648.448 46.7253 648.448 47.248C648.448 47.7707 648.28 48.2093 647.944 48.564C647.608 48.9187 647.169 49.096 646.628 49.096ZM656.018 65.28C655.271 65.28 654.553 65.1867 653.862 65C653.171 64.7947 652.537 64.5147 651.958 64.16C651.379 63.7867 650.875 63.3387 650.446 62.816L652.406 60.856C652.873 61.3973 653.405 61.808 654.002 62.088C654.618 62.3493 655.309 62.48 656.074 62.48C656.765 62.48 657.287 62.3773 657.642 62.172C657.997 61.9667 658.174 61.668 658.174 61.276C658.174 60.8653 658.006 60.548 657.67 60.324C657.334 60.1 656.895 59.9133 656.354 59.764C655.831 59.596 655.271 59.428 654.674 59.26C654.095 59.092 653.535 58.868 652.994 58.588C652.471 58.2893 652.042 57.888 651.706 57.384C651.37 56.88 651.202 56.2267 651.202 55.424C651.202 54.5653 651.398 53.828 651.79 53.212C652.201 52.596 652.77 52.12 653.498 51.784C654.245 51.448 655.131 51.28 656.158 51.28C657.241 51.28 658.193 51.476 659.014 51.868C659.854 52.2413 660.554 52.8107 661.114 53.576L659.154 55.536C658.762 55.0507 658.314 54.6867 657.81 54.444C657.306 54.2013 656.727 54.08 656.074 54.08C655.458 54.08 654.982 54.1733 654.646 54.36C654.31 54.5467 654.142 54.8173 654.142 55.172C654.142 55.5453 654.31 55.8347 654.646 56.04C654.982 56.2453 655.411 56.4227 655.934 56.572C656.475 56.7213 657.035 56.8893 657.614 57.076C658.211 57.244 658.771 57.4867 659.294 57.804C659.835 58.1027 660.274 58.5133 660.61 59.036C660.946 59.54 661.114 60.2027 661.114 61.024C661.114 62.3307 660.657 63.3667 659.742 64.132C658.827 64.8973 657.586 65.28 656.018 65.28ZM673.655 65.28C672.908 65.28 672.189 65.1867 671.499 65C670.808 64.7947 670.173 64.5147 669.595 64.16C669.016 63.7867 668.512 63.3387 668.083 62.816L670.043 60.856C670.509 61.3973 671.041 61.808 671.639 62.088C672.255 62.3493 672.945 62.48 673.711 62.48C674.401 62.48 674.924 62.3773 675.279 62.172C675.633 61.9667 675.811 61.668 675.811 61.276C675.811 60.8653 675.643 60.548 675.307 60.324C674.971 60.1 674.532 59.9133 673.991 59.764C673.468 59.596 672.908 59.428 672.311 59.26C671.732 59.092 671.172 58.868 670.631 58.588C670.108 58.2893 669.679 57.888 669.343 57.384C669.007 56.88 668.839 56.2267 668.839 55.424C668.839 54.5653 669.035 53.828 669.427 53.212C669.837 52.596 670.407 52.12 671.135 51.784C671.881 51.448 672.768 51.28 673.795 51.28C674.877 51.28 675.829 51.476 676.651 51.868C677.491 52.2413 678.191 52.8107 678.751 53.576L676.791 55.536C676.399 55.0507 675.951 54.6867 675.447 54.444C674.943 54.2013 674.364 54.08 673.711 54.08C673.095 54.08 672.619 54.1733 672.283 54.36C671.947 54.5467 671.779 54.8173 671.779 55.172C671.779 55.5453 671.947 55.8347 672.283 56.04C672.619 56.2453 673.048 56.4227 673.571 56.572C674.112 56.7213 674.672 56.8893 675.251 57.076C675.848 57.244 676.408 57.4867 676.931 57.804C677.472 58.1027 677.911 58.5133 678.247 59.036C678.583 59.54 678.751 60.2027 678.751 61.024C678.751 62.3307 678.293 63.3667 677.379 64.132C676.464 64.8973 675.223 65.28 673.655 65.28ZM686.806 65.28C685.667 65.28 684.65 65.028 683.754 64.524C682.877 64.02 682.186 63.3293 681.682 62.452C681.197 61.556 680.954 60.5293 680.954 59.372V51.56H684.034V59.232C684.034 59.8853 684.137 60.4453 684.342 60.912C684.566 61.36 684.883 61.7053 685.294 61.948C685.723 62.1907 686.227 62.312 686.806 62.312C687.702 62.312 688.383 62.0507 688.85 61.528C689.335 60.9867 689.578 60.2213 689.578 59.232V51.56H692.658V59.372C692.658 60.548 692.406 61.584 691.902 62.48C691.417 63.3573 690.735 64.048 689.858 64.552C688.981 65.0373 687.963 65.28 686.806 65.28ZM701.943 65.28C700.618 65.28 699.414 64.972 698.331 64.356C697.267 63.74 696.427 62.9 695.811 61.836C695.195 60.772 694.887 59.5867 694.887 58.28C694.887 56.9547 695.195 55.7693 695.811 54.724C696.427 53.66 697.267 52.82 698.331 52.204C699.414 51.588 700.618 51.28 701.943 51.28C702.988 51.28 703.959 51.4853 704.855 51.896C705.77 52.288 706.544 52.8573 707.179 53.604L705.163 55.648C704.771 55.1813 704.295 54.836 703.735 54.612C703.194 54.3693 702.596 54.248 701.943 54.248C701.178 54.248 700.496 54.4253 699.899 54.78C699.32 55.116 698.863 55.5827 698.527 56.18C698.21 56.7773 698.051 57.4773 698.051 58.28C698.051 59.064 698.21 59.764 698.527 60.38C698.863 60.9773 699.32 61.4533 699.899 61.808C700.496 62.144 701.178 62.312 701.943 62.312C702.596 62.312 703.194 62.2 703.735 61.976C704.295 61.7333 704.771 61.3787 705.163 60.912L707.179 62.956C706.544 63.7027 705.77 64.2813 704.855 64.692C703.959 65.084 702.988 65.28 701.943 65.28ZM715.314 65.28C713.989 65.28 712.785 64.972 711.702 64.356C710.638 63.74 709.798 62.9 709.182 61.836C708.566 60.772 708.258 59.5867 708.258 58.28C708.258 56.9547 708.566 55.7693 709.182 54.724C709.798 53.66 710.638 52.82 711.702 52.204C712.785 51.588 713.989 51.28 715.314 51.28C716.359 51.28 717.33 51.4853 718.226 51.896C719.141 52.288 719.915 52.8573 720.55 53.604L718.534 55.648C718.142 55.1813 717.666 54.836 717.106 54.612C716.565 54.3693 715.967 54.248 715.314 54.248C714.549 54.248 713.867 54.4253 713.27 54.78C712.691 55.116 712.234 55.5827 711.898 56.18C711.581 56.7773 711.422 57.4773 711.422 58.28C711.422 59.064 711.581 59.764 711.898 60.38C712.234 60.9773 712.691 61.4533 713.27 61.808C713.867 62.144 714.549 62.312 715.314 62.312C715.967 62.312 716.565 62.2 717.106 61.976C717.666 61.7333 718.142 61.3787 718.534 60.912L720.55 62.956C719.915 63.7027 719.141 64.2813 718.226 64.692C717.33 65.084 716.359 65.28 715.314 65.28ZM728.741 65.28C727.397 65.28 726.184 64.9813 725.101 64.384C724.037 63.768 723.188 62.928 722.553 61.864C721.937 60.8 721.629 59.6053 721.629 58.28C721.629 56.9547 721.937 55.7693 722.553 54.724C723.169 53.66 724 52.82 725.045 52.204C726.109 51.588 727.285 51.28 728.573 51.28C729.824 51.28 730.925 51.5693 731.877 52.148C732.848 52.7267 733.604 53.52 734.145 54.528C734.705 55.536 734.985 56.684 734.985 57.972C734.985 58.196 734.966 58.4293 734.929 58.672C734.91 58.896 734.873 59.148 734.817 59.428H723.785V56.908H733.221L732.073 57.916C732.036 57.0947 731.877 56.404 731.597 55.844C731.317 55.284 730.916 54.8547 730.393 54.556C729.889 54.2573 729.264 54.108 728.517 54.108C727.733 54.108 727.052 54.276 726.473 54.612C725.894 54.948 725.446 55.424 725.129 56.04C724.812 56.6373 724.653 57.356 724.653 58.196C724.653 59.036 724.821 59.7733 725.157 60.408C725.493 61.0427 725.969 61.5373 726.585 61.892C727.201 62.228 727.91 62.396 728.713 62.396C729.404 62.396 730.038 62.2747 730.617 62.032C731.214 61.7893 731.718 61.4347 732.129 60.968L734.089 62.956C733.436 63.7213 732.642 64.3 731.709 64.692C730.776 65.084 729.786 65.28 728.741 65.28ZM741.85 65.28C741.103 65.28 740.385 65.1867 739.694 65C739.003 64.7947 738.369 64.5147 737.79 64.16C737.211 63.7867 736.707 63.3387 736.278 62.816L738.238 60.856C738.705 61.3973 739.237 61.808 739.834 62.088C740.45 62.3493 741.141 62.48 741.906 62.48C742.597 62.48 743.119 62.3773 743.474 62.172C743.829 61.9667 744.006 61.668 744.006 61.276C744.006 60.8653 743.838 60.548 743.502 60.324C743.166 60.1 742.727 59.9133 742.186 59.764C741.663 59.596 741.103 59.428 740.506 59.26C739.927 59.092 739.367 58.868 738.826 58.588C738.303 58.2893 737.874 57.888 737.538 57.384C737.202 56.88 737.034 56.2267 737.034 55.424C737.034 54.5653 737.23 53.828 737.622 53.212C738.033 52.596 738.602 52.12 739.33 51.784C740.077 51.448 740.963 51.28 741.99 51.28C743.073 51.28 744.025 51.476 744.846 51.868C745.686 52.2413 746.386 52.8107 746.946 53.576L744.986 55.536C744.594 55.0507 744.146 54.6867 743.642 54.444C743.138 54.2013 742.559 54.08 741.906 54.08C741.29 54.08 740.814 54.1733 740.478 54.36C740.142 54.5467 739.974 54.8173 739.974 55.172C739.974 55.5453 740.142 55.8347 740.478 56.04C740.814 56.2453 741.243 56.4227 741.766 56.572C742.307 56.7213 742.867 56.8893 743.446 57.076C744.043 57.244 744.603 57.4867 745.126 57.804C745.667 58.1027 746.106 58.5133 746.442 59.036C746.778 59.54 746.946 60.2027 746.946 61.024C746.946 62.3307 746.489 63.3667 745.574 64.132C744.659 64.8973 743.418 65.28 741.85 65.28ZM754.021 65L747.889 51.56H751.305L755.981 62.508H753.965L758.669 51.56H761.945L755.813 65H754.021ZM769.454 65.28C768.147 65.28 766.962 64.972 765.898 64.356C764.834 63.7213 763.985 62.872 763.35 61.808C762.734 60.744 762.426 59.5587 762.426 58.252C762.426 56.9453 762.734 55.7693 763.35 54.724C763.985 53.6787 764.834 52.848 765.898 52.232C766.962 51.5973 768.147 51.28 769.454 51.28C770.779 51.28 771.974 51.588 773.038 52.204C774.102 52.82 774.942 53.66 775.558 54.724C776.193 55.7693 776.51 56.9453 776.51 58.252C776.51 59.5587 776.193 60.744 775.558 61.808C774.942 62.872 774.102 63.7213 773.038 64.356C771.974 64.972 770.779 65.28 769.454 65.28ZM769.454 62.312C770.219 62.312 770.891 62.144 771.47 61.808C772.067 61.4533 772.525 60.968 772.842 60.352C773.178 59.736 773.346 59.036 773.346 58.252C773.346 57.468 773.178 56.7773 772.842 56.18C772.506 55.5827 772.049 55.116 771.47 54.78C770.891 54.4253 770.219 54.248 769.454 54.248C768.707 54.248 768.035 54.4253 767.438 54.78C766.859 55.116 766.402 55.5827 766.066 56.18C765.749 56.7773 765.59 57.468 765.59 58.252C765.59 59.036 765.749 59.736 766.066 60.352C766.402 60.968 766.859 61.4533 767.438 61.808C768.035 62.144 768.707 62.312 769.454 62.312ZM779.071 65V44.84H782.151V65H779.071ZM793.229 65V45.96H796.309V65H793.229ZM790.009 54.36V51.56H799.529V54.36H790.009ZM807.628 65.28C806.284 65.28 805.07 64.9813 803.988 64.384C802.924 63.768 802.074 62.928 801.44 61.864C800.824 60.8 800.516 59.6053 800.516 58.28C800.516 56.9547 800.824 55.7693 801.44 54.724C802.056 53.66 802.886 52.82 803.932 52.204C804.996 51.588 806.172 51.28 807.46 51.28C808.71 51.28 809.812 51.5693 810.764 52.148C811.734 52.7267 812.49 53.52 813.032 54.528C813.592 55.536 813.872 56.684 813.872 57.972C813.872 58.196 813.853 58.4293 813.816 58.672C813.797 58.896 813.76 59.148 813.704 59.428H802.672V56.908H812.108L810.96 57.916C810.922 57.0947 810.764 56.404 810.484 55.844C810.204 55.284 809.802 54.8547 809.28 54.556C808.776 54.2573 808.15 54.108 807.404 54.108C806.62 54.108 805.938 54.276 805.36 54.612C804.781 54.948 804.333 55.424 804.016 56.04C803.698 56.6373 803.54 57.356 803.54 58.196C803.54 59.036 803.708 59.7733 804.044 60.408C804.38 61.0427 804.856 61.5373 805.472 61.892C806.088 62.228 806.797 62.396 807.6 62.396C808.29 62.396 808.925 62.2747 809.504 62.032C810.101 61.7893 810.605 61.4347 811.016 60.968L812.976 62.956C812.322 63.7213 811.529 64.3 810.596 64.692C809.662 65.084 808.673 65.28 807.628 65.28ZM816.341 65V51.56H819.421V65H816.341ZM819.421 57.524L818.357 56.992C818.357 55.2933 818.73 53.9213 819.477 52.876C820.242 51.812 821.39 51.28 822.921 51.28C823.593 51.28 824.199 51.4013 824.741 51.644C825.282 51.8867 825.786 52.2787 826.253 52.82L824.237 54.892C823.994 54.6307 823.723 54.444 823.425 54.332C823.126 54.22 822.781 54.164 822.389 54.164C821.53 54.164 820.821 54.4347 820.261 54.976C819.701 55.5173 819.421 56.3667 819.421 57.524ZM833.259 65.28C832.12 65.28 831.103 65.028 830.207 64.524C829.33 64.02 828.639 63.3293 828.135 62.452C827.65 61.556 827.407 60.5293 827.407 59.372V51.56H830.487V59.232C830.487 59.8853 830.59 60.4453 830.795 60.912C831.019 61.36 831.336 61.7053 831.747 61.948C832.176 62.1907 832.68 62.312 833.259 62.312C834.155 62.312 834.836 62.0507 835.303 61.528C835.788 60.9867 836.031 60.2213 836.031 59.232V51.56H839.111V59.372C839.111 60.548 838.859 61.584 838.355 62.48C837.87 63.3573 837.188 64.048 836.311 64.552C835.434 65.0373 834.416 65.28 833.259 65.28ZM847.808 70.88C846.389 70.88 845.148 70.6187 844.084 70.096C843.02 69.592 842.161 68.8733 841.508 67.94L843.524 65.924C844.065 66.596 844.681 67.1 845.372 67.436C846.063 67.772 846.893 67.94 847.864 67.94C849.077 67.94 850.039 67.6227 850.748 66.988C851.457 66.372 851.812 65.5227 851.812 64.44V61.136L852.344 58.168L851.812 55.172V51.56H854.892V64.44C854.892 65.728 854.593 66.848 853.996 67.8C853.399 68.7707 852.568 69.5267 851.504 70.068C850.44 70.6093 849.208 70.88 847.808 70.88ZM847.668 64.72C846.473 64.72 845.391 64.4307 844.42 63.852C843.468 63.2547 842.712 62.4427 842.152 61.416C841.611 60.3893 841.34 59.2413 841.34 57.972C841.34 56.7027 841.611 55.564 842.152 54.556C842.712 53.548 843.468 52.7547 844.42 52.176C845.391 51.5787 846.473 51.28 847.668 51.28C848.732 51.28 849.665 51.4947 850.468 51.924C851.271 52.3533 851.896 52.9507 852.344 53.716C852.792 54.4627 853.016 55.34 853.016 56.348V59.652C853.016 60.6413 852.783 61.5187 852.316 62.284C851.868 63.0493 851.243 63.6467 850.44 64.076C849.637 64.5053 848.713 64.72 847.668 64.72ZM848.284 61.808C849.031 61.808 849.684 61.6493 850.244 61.332C850.804 61.0147 851.233 60.576 851.532 60.016C851.849 59.4373 852.008 58.7653 852.008 58C852.008 57.2347 851.849 56.572 851.532 56.012C851.233 55.4333 850.804 54.9853 850.244 54.668C849.684 54.3507 849.031 54.192 848.284 54.192C847.537 54.192 846.875 54.3507 846.296 54.668C845.736 54.9853 845.297 55.4333 844.98 56.012C844.663 56.572 844.504 57.2347 844.504 58C844.504 58.7467 844.663 59.4093 844.98 59.988C845.297 60.5667 845.736 61.0147 846.296 61.332C846.875 61.6493 847.537 61.808 848.284 61.808ZM863.913 70.88C862.495 70.88 861.253 70.6187 860.189 70.096C859.125 69.592 858.267 68.8733 857.613 67.94L859.629 65.924C860.171 66.596 860.787 67.1 861.477 67.436C862.168 67.772 862.999 67.94 863.969 67.94C865.183 67.94 866.144 67.6227 866.853 66.988C867.563 66.372 867.917 65.5227 867.917 64.44V61.136L868.449 58.168L867.917 55.172V51.56H870.997V64.44C870.997 65.728 870.699 66.848 870.101 67.8C869.504 68.7707 868.673 69.5267 867.609 70.068C866.545 70.6093 865.313 70.88 863.913 70.88ZM863.773 64.72C862.579 64.72 861.496 64.4307 860.525 63.852C859.573 63.2547 858.817 62.4427 858.257 61.416C857.716 60.3893 857.445 59.2413 857.445 57.972C857.445 56.7027 857.716 55.564 858.257 54.556C858.817 53.548 859.573 52.7547 860.525 52.176C861.496 51.5787 862.579 51.28 863.773 51.28C864.837 51.28 865.771 51.4947 866.573 51.924C867.376 52.3533 868.001 52.9507 868.449 53.716C868.897 54.4627 869.121 55.34 869.121 56.348V59.652C869.121 60.6413 868.888 61.5187 868.421 62.284C867.973 63.0493 867.348 63.6467 866.545 64.076C865.743 64.5053 864.819 64.72 863.773 64.72ZM864.389 61.808C865.136 61.808 865.789 61.6493 866.349 61.332C866.909 61.0147 867.339 60.576 867.637 60.016C867.955 59.4373 868.113 58.7653 868.113 58C868.113 57.2347 867.955 56.572 867.637 56.012C867.339 55.4333 866.909 54.9853 866.349 54.668C865.789 54.3507 865.136 54.192 864.389 54.192C863.643 54.192 862.98 54.3507 862.401 54.668C861.841 54.9853 861.403 55.4333 861.085 56.012C860.768 56.572 860.609 57.2347 860.609 58C860.609 58.7467 860.768 59.4093 861.085 59.988C861.403 60.5667 861.841 61.0147 862.401 61.332C862.98 61.6493 863.643 61.808 864.389 61.808ZM880.663 65.28C879.319 65.28 878.106 64.9813 877.023 64.384C875.959 63.768 875.11 62.928 874.475 61.864C873.859 60.8 873.551 59.6053 873.551 58.28C873.551 56.9547 873.859 55.7693 874.475 54.724C875.091 53.66 875.922 52.82 876.967 52.204C878.031 51.588 879.207 51.28 880.495 51.28C881.746 51.28 882.847 51.5693 883.799 52.148C884.77 52.7267 885.526 53.52 886.067 54.528C886.627 55.536 886.907 56.684 886.907 57.972C886.907 58.196 886.888 58.4293 886.851 58.672C886.832 58.896 886.795 59.148 886.739 59.428H875.707V56.908H885.143L883.995 57.916C883.958 57.0947 883.799 56.404 883.519 55.844C883.239 55.284 882.838 54.8547 882.315 54.556C881.811 54.2573 881.186 54.108 880.439 54.108C879.655 54.108 878.974 54.276 878.395 54.612C877.816 54.948 877.368 55.424 877.051 56.04C876.734 56.6373 876.575 57.356 876.575 58.196C876.575 59.036 876.743 59.7733 877.079 60.408C877.415 61.0427 877.891 61.5373 878.507 61.892C879.123 62.228 879.832 62.396 880.635 62.396C881.326 62.396 881.96 62.2747 882.539 62.032C883.136 61.7893 883.64 61.4347 884.051 60.968L886.011 62.956C885.358 63.7213 884.564 64.3 883.631 64.692C882.698 65.084 881.708 65.28 880.663 65.28ZM896.572 65.28C895.545 65.28 894.631 65.0653 893.828 64.636C893.025 64.188 892.391 63.5813 891.924 62.816C891.476 62.0507 891.252 61.1827 891.252 60.212V56.348C891.252 55.3773 891.485 54.5093 891.952 53.744C892.419 52.9787 893.053 52.3813 893.856 51.952C894.659 51.504 895.564 51.28 896.572 51.28C897.785 51.28 898.877 51.5973 899.848 52.232C900.837 52.848 901.612 53.688 902.172 54.752C902.751 55.7973 903.04 56.9827 903.04 58.308C903.04 59.6147 902.751 60.8 902.172 61.864C901.612 62.9093 900.837 63.74 899.848 64.356C898.877 64.972 897.785 65.28 896.572 65.28ZM896.068 62.368C896.815 62.368 897.468 62.2 898.028 61.864C898.607 61.5093 899.055 61.024 899.372 60.408C899.708 59.792 899.876 59.0827 899.876 58.28C899.876 57.4773 899.708 56.768 899.372 56.152C899.055 55.536 898.607 55.06 898.028 54.724C897.468 54.3693 896.815 54.192 896.068 54.192C895.321 54.192 894.659 54.3693 894.08 54.724C893.501 55.06 893.053 55.536 892.736 56.152C892.419 56.768 892.26 57.4773 892.26 58.28C892.26 59.0827 892.419 59.792 892.736 60.408C893.053 61.024 893.501 61.5093 894.08 61.864C894.659 62.2 895.321 62.368 896.068 62.368ZM889.376 65V44.84H892.456V54.864L891.924 58.112L892.456 61.388V65H889.376ZM905.618 65V51.56H908.698V65H905.618ZM908.698 57.524L907.634 56.992C907.634 55.2933 908.007 53.9213 908.754 52.876C909.519 51.812 910.667 51.28 912.198 51.28C912.87 51.28 913.477 51.4013 914.018 51.644C914.559 51.8867 915.063 52.2787 915.53 52.82L913.514 54.892C913.271 54.6307 913.001 54.444 912.702 54.332C912.403 54.22 912.058 54.164 911.666 54.164C910.807 54.164 910.098 54.4347 909.538 54.976C908.978 55.5173 908.698 56.3667 908.698 57.524ZM922.238 65.28C921.025 65.28 919.924 64.972 918.934 64.356C917.964 63.74 917.189 62.9093 916.61 61.864C916.05 60.8 915.77 59.6147 915.77 58.308C915.77 56.9827 916.05 55.7973 916.61 54.752C917.189 53.688 917.964 52.848 918.934 52.232C919.924 51.5973 921.025 51.28 922.238 51.28C923.265 51.28 924.17 51.504 924.954 51.952C925.757 52.3813 926.392 52.9787 926.858 53.744C927.325 54.5093 927.558 55.3773 927.558 56.348V60.212C927.558 61.1827 927.325 62.0507 926.858 62.816C926.41 63.5813 925.785 64.188 924.982 64.636C924.18 65.0653 923.265 65.28 922.238 65.28ZM922.742 62.368C923.881 62.368 924.796 61.9853 925.486 61.22C926.196 60.4547 926.55 59.4747 926.55 58.28C926.55 57.4773 926.392 56.768 926.074 56.152C925.757 55.536 925.309 55.06 924.73 54.724C924.17 54.3693 923.508 54.192 922.742 54.192C921.996 54.192 921.333 54.3693 920.754 54.724C920.194 55.06 919.746 55.536 919.41 56.152C919.093 56.768 918.934 57.4773 918.934 58.28C918.934 59.0827 919.093 59.792 919.41 60.408C919.746 61.024 920.194 61.5093 920.754 61.864C921.333 62.2 921.996 62.368 922.742 62.368ZM926.354 65V61.388L926.886 58.112L926.354 54.864V51.56H929.434V65H926.354ZM939.041 65.28C937.715 65.28 936.511 64.972 935.429 64.356C934.365 63.74 933.525 62.9 932.909 61.836C932.293 60.772 931.985 59.5867 931.985 58.28C931.985 56.9547 932.293 55.7693 932.909 54.724C933.525 53.66 934.365 52.82 935.429 52.204C936.511 51.588 937.715 51.28 939.041 51.28C940.086 51.28 941.057 51.4853 941.953 51.896C942.867 52.288 943.642 52.8573 944.277 53.604L942.261 55.648C941.869 55.1813 941.393 54.836 940.833 54.612C940.291 54.3693 939.694 54.248 939.041 54.248C938.275 54.248 937.594 54.4253 936.997 54.78C936.418 55.116 935.961 55.5827 935.625 56.18C935.307 56.7773 935.149 57.4773 935.149 58.28C935.149 59.064 935.307 59.764 935.625 60.38C935.961 60.9773 936.418 61.4533 936.997 61.808C937.594 62.144 938.275 62.312 939.041 62.312C939.694 62.312 940.291 62.2 940.833 61.976C941.393 61.7333 941.869 61.3787 942.261 60.912L944.277 62.956C943.642 63.7027 942.867 64.2813 941.953 64.692C941.057 65.084 940.086 65.28 939.041 65.28ZM955.709 65V57.244C955.709 56.348 955.42 55.6107 954.841 55.032C954.281 54.4533 953.553 54.164 952.657 54.164C952.06 54.164 951.528 54.2947 951.061 54.556C950.594 54.8173 950.23 55.1813 949.969 55.648C949.708 56.1147 949.577 56.6467 949.577 57.244L948.373 56.572C948.373 55.5453 948.597 54.64 949.045 53.856C949.493 53.0533 950.109 52.428 950.893 51.98C951.696 51.5133 952.592 51.28 953.581 51.28C954.589 51.28 955.485 51.504 956.269 51.952C957.053 52.4 957.669 53.0253 958.117 53.828C958.565 54.612 958.789 55.5267 958.789 56.572V65H955.709ZM946.497 65V44.84H949.577V65H946.497ZM963.799 65V45.96H966.879V65H963.799ZM960.579 54.36V51.56H970.099V54.36H960.579Z" fill="white"/>
<path d="M495 45L475.062 64L466 55.3636" stroke="white" stroke-width="5" stroke-linecap="round" stroke-linejoin="round"/>
</svg>
