<svg width="1440" height="1024" viewBox="0 0 1440 1024" fill="none" xmlns="http://www.w3.org/2000/svg">
<rect width="1440" height="1024" fill="#1D243A"/>
<path d="M19.596 1005L11.672 985.4H15.172L21.36 1001.28H20.128L26.372 985.4H29.816L21.836 1005H19.596ZM35.4383 1005.28C34.1316 1005.28 32.9463 1004.97 31.8823 1004.36C30.8183 1003.72 29.969 1002.87 29.3343 1001.81C28.7183 1000.74 28.4103 999.559 28.4103 998.252C28.4103 996.945 28.7183 995.769 29.3343 994.724C29.969 993.679 30.8183 992.848 31.8823 992.232C32.9463 991.597 34.1316 991.28 35.4383 991.28C36.7636 991.28 37.9583 991.588 39.0223 992.204C40.0863 992.82 40.9263 993.66 41.5423 994.724C42.177 995.769 42.4943 996.945 42.4943 998.252C42.4943 999.559 42.177 1000.74 41.5423 1001.81C40.9263 1002.87 40.0863 1003.72 39.0223 1004.36C37.9583 1004.97 36.7636 1005.28 35.4383 1005.28ZM35.4383 1002.31C36.2036 1002.31 36.8756 1002.14 37.4543 1001.81C38.0516 1001.45 38.509 1000.97 38.8263 1000.35C39.1623 999.736 39.3303 999.036 39.3303 998.252C39.3303 997.468 39.1623 996.777 38.8263 996.18C38.4903 995.583 38.033 995.116 37.4543 994.78C36.8756 994.425 36.2036 994.248 35.4383 994.248C34.6916 994.248 34.0196 994.425 33.4223 994.78C32.8436 995.116 32.3863 995.583 32.0503 996.18C31.733 996.777 31.5743 997.468 31.5743 998.252C31.5743 999.036 31.733 999.736 32.0503 1000.35C32.3863 1000.97 32.8436 1001.45 33.4223 1001.81C34.0196 1002.14 34.6916 1002.31 35.4383 1002.31ZM51.2997 1005.28C49.9557 1005.28 48.7423 1004.98 47.6597 1004.38C46.5957 1003.77 45.7463 1002.93 45.1117 1001.86C44.4957 1000.8 44.1877 999.605 44.1877 998.28C44.1877 996.955 44.4957 995.769 45.1117 994.724C45.7277 993.66 46.5583 992.82 47.6037 992.204C48.6677 991.588 49.8437 991.28 51.1317 991.28C52.3823 991.28 53.4837 991.569 54.4357 992.148C55.4063 992.727 56.1623 993.52 56.7037 994.528C57.2637 995.536 57.5437 996.684 57.5437 997.972C57.5437 998.196 57.525 998.429 57.4877 998.672C57.469 998.896 57.4317 999.148 57.3757 999.428H46.3437V996.908H55.7797L54.6317 997.916C54.5943 997.095 54.4357 996.404 54.1557 995.844C53.8757 995.284 53.4743 994.855 52.9517 994.556C52.4477 994.257 51.8223 994.108 51.0757 994.108C50.2917 994.108 49.6103 994.276 49.0317 994.612C48.453 994.948 48.005 995.424 47.6877 996.04C47.3703 996.637 47.2117 997.356 47.2117 998.196C47.2117 999.036 47.3797 999.773 47.7157 1000.41C48.0517 1001.04 48.5277 1001.54 49.1437 1001.89C49.7597 1002.23 50.469 1002.4 51.2717 1002.4C51.9623 1002.4 52.597 1002.27 53.1757 1002.03C53.773 1001.79 54.277 1001.43 54.6877 1000.97L56.6477 1002.96C55.9943 1003.72 55.201 1004.3 54.2677 1004.69C53.3343 1005.08 52.345 1005.28 51.2997 1005.28ZM60.0127 1005V991.56H63.0927V1005H60.0127ZM63.0927 997.524L62.0287 996.992C62.0287 995.293 62.402 993.921 63.1487 992.876C63.914 991.812 65.062 991.28 66.5927 991.28C67.2647 991.28 67.8714 991.401 68.4127 991.644C68.954 991.887 69.458 992.279 69.9247 992.82L67.9087 994.892C67.666 994.631 67.3954 994.444 67.0967 994.332C66.798 994.22 66.4527 994.164 66.0607 994.164C65.202 994.164 64.4927 994.435 63.9327 994.976C63.3727 995.517 63.0927 996.367 63.0927 997.524ZM83.7007 1005.28C82.3754 1005.28 81.1714 1004.97 80.0887 1004.36C79.0247 1003.74 78.1847 1002.9 77.5687 1001.84C76.9527 1000.77 76.6447 999.587 76.6447 998.28C76.6447 996.955 76.9527 995.769 77.5687 994.724C78.1847 993.66 79.0247 992.82 80.0887 992.204C81.1714 991.588 82.3754 991.28 83.7007 991.28C84.746 991.28 85.7167 991.485 86.6127 991.896C87.5274 992.288 88.302 992.857 88.9367 993.604L86.9207 995.648C86.5287 995.181 86.0527 994.836 85.4927 994.612C84.9514 994.369 84.354 994.248 83.7007 994.248C82.9354 994.248 82.254 994.425 81.6567 994.78C81.078 995.116 80.6207 995.583 80.2847 996.18C79.9674 996.777 79.8087 997.477 79.8087 998.28C79.8087 999.064 79.9674 999.764 80.2847 1000.38C80.6207 1000.98 81.078 1001.45 81.6567 1001.81C82.254 1002.14 82.9354 1002.31 83.7007 1002.31C84.354 1002.31 84.9514 1002.2 85.4927 1001.98C86.0527 1001.73 86.5287 1001.38 86.9207 1000.91L88.9367 1002.96C88.302 1003.7 87.5274 1004.28 86.6127 1004.69C85.7167 1005.08 84.746 1005.28 83.7007 1005.28ZM97.0438 1005.28C95.7371 1005.28 94.5518 1004.97 93.4878 1004.36C92.4238 1003.72 91.5744 1002.87 90.9398 1001.81C90.3238 1000.74 90.0158 999.559 90.0158 998.252C90.0158 996.945 90.3238 995.769 90.9398 994.724C91.5744 993.679 92.4238 992.848 93.4878 992.232C94.5518 991.597 95.7371 991.28 97.0438 991.28C98.3691 991.28 99.5638 991.588 100.628 992.204C101.692 992.82 102.532 993.66 103.148 994.724C103.782 995.769 104.1 996.945 104.1 998.252C104.1 999.559 103.782 1000.74 103.148 1001.81C102.532 1002.87 101.692 1003.72 100.628 1004.36C99.5638 1004.97 98.3691 1005.28 97.0438 1005.28ZM97.0438 1002.31C97.8091 1002.31 98.4811 1002.14 99.0598 1001.81C99.6571 1001.45 100.114 1000.97 100.432 1000.35C100.768 999.736 100.936 999.036 100.936 998.252C100.936 997.468 100.768 996.777 100.432 996.18C100.096 995.583 99.6384 995.116 99.0598 994.78C98.4811 994.425 97.8091 994.248 97.0438 994.248C96.2971 994.248 95.6251 994.425 95.0278 994.78C94.4491 995.116 93.9918 995.583 93.6558 996.18C93.3384 996.777 93.1798 997.468 93.1798 998.252C93.1798 999.036 93.3384 999.736 93.6558 1000.35C93.9918 1000.97 94.4491 1001.45 95.0278 1001.81C95.6251 1002.14 96.2971 1002.31 97.0438 1002.31ZM112.289 1005.28C111.076 1005.28 109.974 1004.97 108.985 1004.36C108.014 1003.74 107.24 1002.91 106.661 1001.86C106.101 1000.8 105.821 999.615 105.821 998.308C105.821 996.983 106.101 995.797 106.661 994.752C107.24 993.688 108.014 992.848 108.985 992.232C109.974 991.597 111.076 991.28 112.289 991.28C113.316 991.28 114.221 991.504 115.005 991.952C115.808 992.381 116.442 992.979 116.909 993.744C117.376 994.509 117.609 995.377 117.609 996.348V1000.21C117.609 1001.18 117.376 1002.05 116.909 1002.82C116.461 1003.58 115.836 1004.19 115.033 1004.64C114.23 1005.07 113.316 1005.28 112.289 1005.28ZM112.793 1002.37C113.558 1002.37 114.221 1002.2 114.781 1001.86C115.36 1001.51 115.808 1001.02 116.125 1000.41C116.442 999.792 116.601 999.083 116.601 998.28C116.601 997.477 116.442 996.768 116.125 996.152C115.808 995.536 115.36 995.06 114.781 994.724C114.221 994.369 113.558 994.192 112.793 994.192C112.046 994.192 111.384 994.369 110.805 994.724C110.245 995.06 109.797 995.536 109.461 996.152C109.144 996.768 108.985 997.477 108.985 998.28C108.985 999.083 109.144 999.792 109.461 1000.41C109.797 1001.02 110.245 1001.51 110.805 1001.86C111.384 1002.2 112.046 1002.37 112.793 1002.37ZM119.485 1005H116.405V1001.39L116.937 998.112L116.405 994.864V984.84H119.485V1005ZM129.147 1005.28C127.803 1005.28 126.59 1004.98 125.507 1004.38C124.443 1003.77 123.594 1002.93 122.959 1001.86C122.343 1000.8 122.035 999.605 122.035 998.28C122.035 996.955 122.343 995.769 122.959 994.724C123.575 993.66 124.406 992.82 125.451 992.204C126.515 991.588 127.691 991.28 128.979 991.28C130.23 991.28 131.331 991.569 132.283 992.148C133.254 992.727 134.01 993.52 134.551 994.528C135.111 995.536 135.391 996.684 135.391 997.972C135.391 998.196 135.373 998.429 135.335 998.672C135.317 998.896 135.279 999.148 135.223 999.428H124.191V996.908H133.627L132.479 997.916C132.442 997.095 132.283 996.404 132.003 995.844C131.723 995.284 131.322 994.855 130.799 994.556C130.295 994.257 129.67 994.108 128.923 994.108C128.139 994.108 127.458 994.276 126.879 994.612C126.301 994.948 125.853 995.424 125.535 996.04C125.218 996.637 125.059 997.356 125.059 998.196C125.059 999.036 125.227 999.773 125.563 1000.41C125.899 1001.04 126.375 1001.54 126.991 1001.89C127.607 1002.23 128.317 1002.4 129.119 1002.4C129.81 1002.4 130.445 1002.27 131.023 1002.03C131.621 1001.79 132.125 1001.43 132.535 1000.97L134.495 1002.96C133.842 1003.72 133.049 1004.3 132.115 1004.69C131.182 1005.08 130.193 1005.28 129.147 1005.28ZM152.678 1005V997.244C152.678 996.348 152.388 995.611 151.81 995.032C151.25 994.453 150.522 994.164 149.626 994.164C149.028 994.164 148.496 994.295 148.03 994.556C147.563 994.817 147.199 995.181 146.938 995.648C146.676 996.115 146.546 996.647 146.546 997.244L145.342 996.572C145.342 995.545 145.566 994.64 146.014 993.856C146.462 993.053 147.078 992.428 147.862 991.98C148.664 991.513 149.56 991.28 150.55 991.28C151.558 991.28 152.454 991.504 153.238 991.952C154.022 992.4 154.638 993.025 155.086 993.828C155.534 994.612 155.758 995.527 155.758 996.572V1005H152.678ZM143.466 1005V984.84H146.546V1005H143.466ZM164.516 1005.28C163.302 1005.28 162.201 1004.97 161.212 1004.36C160.241 1003.74 159.466 1002.91 158.888 1001.86C158.328 1000.8 158.048 999.615 158.048 998.308C158.048 996.983 158.328 995.797 158.888 994.752C159.466 993.688 160.241 992.848 161.212 992.232C162.201 991.597 163.302 991.28 164.516 991.28C165.542 991.28 166.448 991.504 167.232 991.952C168.034 992.381 168.669 992.979 169.136 993.744C169.602 994.509 169.836 995.377 169.836 996.348V1000.21C169.836 1001.18 169.602 1002.05 169.136 1002.82C168.688 1003.58 168.062 1004.19 167.26 1004.64C166.457 1005.07 165.542 1005.28 164.516 1005.28ZM165.02 1002.37C166.158 1002.37 167.073 1001.99 167.764 1001.22C168.473 1000.45 168.828 999.475 168.828 998.28C168.828 997.477 168.669 996.768 168.352 996.152C168.034 995.536 167.586 995.06 167.008 994.724C166.448 994.369 165.785 994.192 165.02 994.192C164.273 994.192 163.61 994.369 163.032 994.724C162.472 995.06 162.024 995.536 161.688 996.152C161.37 996.768 161.212 997.477 161.212 998.28C161.212 999.083 161.37 999.792 161.688 1000.41C162.024 1001.02 162.472 1001.51 163.032 1001.86C163.61 1002.2 164.273 1002.37 165.02 1002.37ZM168.632 1005V1001.39L169.164 998.112L168.632 994.864V991.56H171.712V1005H168.632ZM184.342 1005V997.244C184.342 996.348 184.053 995.611 183.474 995.032C182.914 994.453 182.186 994.164 181.29 994.164C180.693 994.164 180.161 994.295 179.694 994.556C179.227 994.817 178.863 995.181 178.602 995.648C178.341 996.115 178.21 996.647 178.21 997.244L177.006 996.572C177.006 995.545 177.23 994.64 177.678 993.856C178.126 993.053 178.742 992.428 179.526 991.98C180.329 991.513 181.225 991.28 182.214 991.28C183.222 991.28 184.118 991.541 184.902 992.064C185.686 992.568 186.302 993.231 186.75 994.052C187.198 994.855 187.422 995.695 187.422 996.572V1005H184.342ZM175.13 1005V991.56H178.21V1005H175.13ZM196.18 1005.28C194.966 1005.28 193.865 1004.97 192.876 1004.36C191.905 1003.74 191.13 1002.91 190.552 1001.86C189.992 1000.8 189.712 999.615 189.712 998.308C189.712 996.983 189.992 995.797 190.552 994.752C191.13 993.688 191.905 992.848 192.876 992.232C193.865 991.597 194.966 991.28 196.18 991.28C197.206 991.28 198.112 991.504 198.896 991.952C199.698 992.381 200.333 992.979 200.8 993.744C201.266 994.509 201.5 995.377 201.5 996.348V1000.21C201.5 1001.18 201.266 1002.05 200.8 1002.82C200.352 1003.58 199.726 1004.19 198.924 1004.64C198.121 1005.07 197.206 1005.28 196.18 1005.28ZM196.684 1002.37C197.449 1002.37 198.112 1002.2 198.672 1001.86C199.25 1001.51 199.698 1001.02 200.016 1000.41C200.333 999.792 200.492 999.083 200.492 998.28C200.492 997.477 200.333 996.768 200.016 996.152C199.698 995.536 199.25 995.06 198.672 994.724C198.112 994.369 197.449 994.192 196.684 994.192C195.937 994.192 195.274 994.369 194.696 994.724C194.136 995.06 193.688 995.536 193.352 996.152C193.034 996.768 192.876 997.477 192.876 998.28C192.876 999.083 193.034 999.792 193.352 1000.41C193.688 1001.02 194.136 1001.51 194.696 1001.86C195.274 1002.2 195.937 1002.37 196.684 1002.37ZM203.376 1005H200.296V1001.39L200.828 998.112L200.296 994.864V984.84H203.376V1005ZM206.794 1005V991.56H209.874V1005H206.794ZM215.726 1005V996.992C215.726 996.096 215.446 995.405 214.886 994.92C214.326 994.416 213.635 994.164 212.814 994.164C212.254 994.164 211.75 994.276 211.302 994.5C210.873 994.724 210.527 995.051 210.266 995.48C210.005 995.891 209.874 996.395 209.874 996.992L208.67 996.32C208.67 995.293 208.894 994.407 209.342 993.66C209.79 992.913 210.397 992.335 211.162 991.924C211.927 991.495 212.786 991.28 213.738 991.28C214.69 991.28 215.549 991.485 216.314 991.896C217.079 992.307 217.686 992.885 218.134 993.632C218.582 994.379 218.806 995.275 218.806 996.32V1005H215.726ZM224.658 1005V996.992C224.658 996.096 224.378 995.405 223.818 994.92C223.258 994.416 222.567 994.164 221.746 994.164C221.205 994.164 220.71 994.276 220.262 994.5C219.814 994.724 219.459 995.051 219.198 995.48C218.937 995.891 218.806 996.395 218.806 996.992L217.07 996.32C217.163 995.293 217.462 994.407 217.966 993.66C218.47 992.913 219.114 992.335 219.898 991.924C220.701 991.495 221.578 991.28 222.53 991.28C223.501 991.28 224.378 991.485 225.162 991.896C225.946 992.307 226.571 992.885 227.038 993.632C227.505 994.379 227.738 995.275 227.738 996.32V1005H224.658ZM236.539 1005.28C235.326 1005.28 234.224 1004.97 233.235 1004.36C232.264 1003.74 231.49 1002.91 230.911 1001.86C230.351 1000.8 230.071 999.615 230.071 998.308C230.071 996.983 230.351 995.797 230.911 994.752C231.49 993.688 232.264 992.848 233.235 992.232C234.224 991.597 235.326 991.28 236.539 991.28C237.566 991.28 238.471 991.504 239.255 991.952C240.058 992.381 240.692 992.979 241.159 993.744C241.626 994.509 241.859 995.377 241.859 996.348V1000.21C241.859 1001.18 241.626 1002.05 241.159 1002.82C240.711 1003.58 240.086 1004.19 239.283 1004.64C238.48 1005.07 237.566 1005.28 236.539 1005.28ZM237.043 1002.37C238.182 1002.37 239.096 1001.99 239.787 1001.22C240.496 1000.45 240.851 999.475 240.851 998.28C240.851 997.477 240.692 996.768 240.375 996.152C240.058 995.536 239.61 995.06 239.031 994.724C238.471 994.369 237.808 994.192 237.043 994.192C236.296 994.192 235.634 994.369 235.055 994.724C234.495 995.06 234.047 995.536 233.711 996.152C233.394 996.768 233.235 997.477 233.235 998.28C233.235 999.083 233.394 999.792 233.711 1000.41C234.047 1001.02 234.495 1001.51 235.055 1001.86C235.634 1002.2 236.296 1002.37 237.043 1002.37ZM240.655 1005V1001.39L241.187 998.112L240.655 994.864V991.56H243.735V1005H240.655ZM249.197 1005V985.96H252.277V1005H249.197ZM245.977 994.36V991.56H255.497V994.36H245.977ZM257.763 1005V991.56H260.843V1005H257.763ZM259.303 989.096C258.781 989.096 258.342 988.919 257.987 988.564C257.651 988.209 257.483 987.771 257.483 987.248C257.483 986.725 257.651 986.287 257.987 985.932C258.342 985.577 258.781 985.4 259.303 985.4C259.845 985.4 260.283 985.577 260.619 985.932C260.955 986.287 261.123 986.725 261.123 987.248C261.123 987.771 260.955 988.209 260.619 988.564C260.283 988.919 259.845 989.096 259.303 989.096ZM269.898 1010.88C268.479 1010.88 267.238 1010.62 266.174 1010.1C265.11 1009.59 264.251 1008.87 263.598 1007.94L265.614 1005.92C266.155 1006.6 266.771 1007.1 267.462 1007.44C268.153 1007.77 268.983 1007.94 269.954 1007.94C271.167 1007.94 272.129 1007.62 272.838 1006.99C273.547 1006.37 273.902 1005.52 273.902 1004.44V1001.14L274.434 998.168L273.902 995.172V991.56H276.982V1004.44C276.982 1005.73 276.683 1006.85 276.086 1007.8C275.489 1008.77 274.658 1009.53 273.594 1010.07C272.53 1010.61 271.298 1010.88 269.898 1010.88ZM269.758 1004.72C268.563 1004.72 267.481 1004.43 266.51 1003.85C265.558 1003.25 264.802 1002.44 264.242 1001.42C263.701 1000.39 263.43 999.241 263.43 997.972C263.43 996.703 263.701 995.564 264.242 994.556C264.802 993.548 265.558 992.755 266.51 992.176C267.481 991.579 268.563 991.28 269.758 991.28C270.822 991.28 271.755 991.495 272.558 991.924C273.361 992.353 273.986 992.951 274.434 993.716C274.882 994.463 275.106 995.34 275.106 996.348V999.652C275.106 1000.64 274.873 1001.52 274.406 1002.28C273.958 1003.05 273.333 1003.65 272.53 1004.08C271.727 1004.51 270.803 1004.72 269.758 1004.72ZM270.374 1001.81C271.121 1001.81 271.774 1001.65 272.334 1001.33C272.894 1001.01 273.323 1000.58 273.622 1000.02C273.939 999.437 274.098 998.765 274.098 998C274.098 997.235 273.939 996.572 273.622 996.012C273.323 995.433 272.894 994.985 272.334 994.668C271.774 994.351 271.121 994.192 270.374 994.192C269.627 994.192 268.965 994.351 268.386 994.668C267.826 994.985 267.387 995.433 267.07 996.012C266.753 996.572 266.594 997.235 266.594 998C266.594 998.747 266.753 999.409 267.07 999.988C267.387 1000.57 267.826 1001.01 268.386 1001.33C268.965 1001.65 269.627 1001.81 270.374 1001.81ZM286.037 1005V991.56H289.117V1005H286.037ZM287.577 989.096C287.054 989.096 286.615 988.919 286.261 988.564C285.925 988.209 285.757 987.771 285.757 987.248C285.757 986.725 285.925 986.287 286.261 985.932C286.615 985.577 287.054 985.4 287.577 985.4C288.118 985.4 288.557 985.577 288.893 985.932C289.229 986.287 289.397 986.725 289.397 987.248C289.397 987.771 289.229 988.209 288.893 988.564C288.557 988.919 288.118 989.096 287.577 989.096ZM301.783 1005V997.244C301.783 996.348 301.494 995.611 300.915 995.032C300.355 994.453 299.627 994.164 298.731 994.164C298.134 994.164 297.602 994.295 297.135 994.556C296.669 994.817 296.305 995.181 296.043 995.648C295.782 996.115 295.651 996.647 295.651 997.244L294.447 996.572C294.447 995.545 294.671 994.64 295.119 993.856C295.567 993.053 296.183 992.428 296.967 991.98C297.77 991.513 298.666 991.28 299.655 991.28C300.663 991.28 301.559 991.541 302.343 992.064C303.127 992.568 303.743 993.231 304.191 994.052C304.639 994.855 304.863 995.695 304.863 996.572V1005H301.783ZM292.571 1005V991.56H295.651V1005H292.571Z" fill="#A0A0A0"/>
<rect x="350" y="18" width="739" height="73" rx="8" fill="#B90000"/>
<path d="M450.128 65V45.4H453.348V65H450.128ZM452.34 65V62.06H463.316V65H452.34ZM452.34 56.404V53.576H462.364V56.404H452.34ZM452.34 48.34V45.4H463.176V48.34H452.34ZM466.224 65V51.56H469.304V65H466.224ZM469.304 57.524L468.24 56.992C468.24 55.2933 468.613 53.9213 469.36 52.876C470.125 51.812 471.273 51.28 472.804 51.28C473.476 51.28 474.082 51.4013 474.624 51.644C475.165 51.8867 475.669 52.2787 476.136 52.82L474.12 54.892C473.877 54.6307 473.606 54.444 473.308 54.332C473.009 54.22 472.664 54.164 472.272 54.164C471.413 54.164 470.704 54.4347 470.144 54.976C469.584 55.5173 469.304 56.3667 469.304 57.524ZM483.752 65V51.56H486.832V65H483.752ZM485.292 49.096C484.769 49.096 484.33 48.9187 483.976 48.564C483.64 48.2093 483.472 47.7707 483.472 47.248C483.472 46.7253 483.64 46.2867 483.976 45.932C484.33 45.5773 484.769 45.4 485.292 45.4C485.833 45.4 486.272 45.5773 486.608 45.932C486.944 46.2867 487.112 46.7253 487.112 47.248C487.112 47.7707 486.944 48.2093 486.608 48.564C486.272 48.9187 485.833 49.096 485.292 49.096ZM494.682 65.28C493.935 65.28 493.217 65.1867 492.526 65C491.835 64.7947 491.201 64.5147 490.622 64.16C490.043 63.7867 489.539 63.3387 489.11 62.816L491.07 60.856C491.537 61.3973 492.069 61.808 492.666 62.088C493.282 62.3493 493.973 62.48 494.738 62.48C495.429 62.48 495.951 62.3773 496.306 62.172C496.661 61.9667 496.838 61.668 496.838 61.276C496.838 60.8653 496.67 60.548 496.334 60.324C495.998 60.1 495.559 59.9133 495.018 59.764C494.495 59.596 493.935 59.428 493.338 59.26C492.759 59.092 492.199 58.868 491.658 58.588C491.135 58.2893 490.706 57.888 490.37 57.384C490.034 56.88 489.866 56.2267 489.866 55.424C489.866 54.5653 490.062 53.828 490.454 53.212C490.865 52.596 491.434 52.12 492.162 51.784C492.909 51.448 493.795 51.28 494.822 51.28C495.905 51.28 496.857 51.476 497.678 51.868C498.518 52.2413 499.218 52.8107 499.778 53.576L497.818 55.536C497.426 55.0507 496.978 54.6867 496.474 54.444C495.97 54.2013 495.391 54.08 494.738 54.08C494.122 54.08 493.646 54.1733 493.31 54.36C492.974 54.5467 492.806 54.8173 492.806 55.172C492.806 55.5453 492.974 55.8347 493.31 56.04C493.646 56.2453 494.075 56.4227 494.598 56.572C495.139 56.7213 495.699 56.8893 496.278 57.076C496.875 57.244 497.435 57.4867 497.958 57.804C498.499 58.1027 498.938 58.5133 499.274 59.036C499.61 59.54 499.778 60.2027 499.778 61.024C499.778 62.3307 499.321 63.3667 498.406 64.132C497.491 64.8973 496.25 65.28 494.682 65.28ZM514.167 65.28C512.823 65.28 511.61 64.9813 510.527 64.384C509.463 63.768 508.614 62.928 507.979 61.864C507.363 60.8 507.055 59.6053 507.055 58.28C507.055 56.9547 507.363 55.7693 507.979 54.724C508.595 53.66 509.426 52.82 510.471 52.204C511.535 51.588 512.711 51.28 513.999 51.28C515.25 51.28 516.351 51.5693 517.303 52.148C518.274 52.7267 519.03 53.52 519.571 54.528C520.131 55.536 520.411 56.684 520.411 57.972C520.411 58.196 520.392 58.4293 520.355 58.672C520.336 58.896 520.299 59.148 520.243 59.428H509.211V56.908H518.647L517.499 57.916C517.462 57.0947 517.303 56.404 517.023 55.844C516.743 55.284 516.342 54.8547 515.819 54.556C515.315 54.2573 514.69 54.108 513.943 54.108C513.159 54.108 512.478 54.276 511.899 54.612C511.32 54.948 510.872 55.424 510.555 56.04C510.238 56.6373 510.079 57.356 510.079 58.196C510.079 59.036 510.247 59.7733 510.583 60.408C510.919 61.0427 511.395 61.5373 512.011 61.892C512.627 62.228 513.336 62.396 514.139 62.396C514.83 62.396 515.464 62.2747 516.043 62.032C516.64 61.7893 517.144 61.4347 517.555 60.968L519.515 62.956C518.862 63.7213 518.068 64.3 517.135 64.692C516.202 65.084 515.212 65.28 514.167 65.28ZM529.124 65.28C527.78 65.28 526.567 64.9813 525.484 64.384C524.42 63.768 523.571 62.928 522.936 61.864C522.32 60.8 522.012 59.6053 522.012 58.28C522.012 56.9547 522.32 55.7693 522.936 54.724C523.552 53.66 524.383 52.82 525.428 52.204C526.492 51.588 527.668 51.28 528.956 51.28C530.207 51.28 531.308 51.5693 532.26 52.148C533.231 52.7267 533.987 53.52 534.528 54.528C535.088 55.536 535.368 56.684 535.368 57.972C535.368 58.196 535.349 58.4293 535.312 58.672C535.293 58.896 535.256 59.148 535.2 59.428H524.168V56.908H533.604L532.456 57.916C532.419 57.0947 532.26 56.404 531.98 55.844C531.7 55.284 531.299 54.8547 530.776 54.556C530.272 54.2573 529.647 54.108 528.9 54.108C528.116 54.108 527.435 54.276 526.856 54.612C526.277 54.948 525.829 55.424 525.512 56.04C525.195 56.6373 525.036 57.356 525.036 58.196C525.036 59.036 525.204 59.7733 525.54 60.408C525.876 61.0427 526.352 61.5373 526.968 61.892C527.584 62.228 528.293 62.396 529.096 62.396C529.787 62.396 530.421 62.2747 531 62.032C531.597 61.7893 532.101 61.4347 532.512 60.968L534.472 62.956C533.819 63.7213 533.025 64.3 532.092 64.692C531.159 65.084 530.169 65.28 529.124 65.28ZM547.049 65V57.244C547.049 56.348 546.76 55.6107 546.181 55.032C545.621 54.4533 544.893 54.164 543.997 54.164C543.4 54.164 542.868 54.2947 542.401 54.556C541.934 54.8173 541.57 55.1813 541.309 55.648C541.048 56.1147 540.917 56.6467 540.917 57.244L539.713 56.572C539.713 55.5453 539.937 54.64 540.385 53.856C540.833 53.0533 541.449 52.428 542.233 51.98C543.036 51.5133 543.932 51.28 544.921 51.28C545.929 51.28 546.825 51.5413 547.609 52.064C548.393 52.568 549.009 53.2307 549.457 54.052C549.905 54.8547 550.129 55.6947 550.129 56.572V65H547.049ZM537.837 65V51.56H540.917V65H537.837ZM560.712 65V49.796C560.712 48.7693 560.936 47.864 561.384 47.08C561.851 46.296 562.486 45.68 563.288 45.232C564.11 44.784 565.052 44.56 566.116 44.56C566.938 44.56 567.638 44.7 568.216 44.98C568.795 45.26 569.336 45.6613 569.84 46.184L567.852 48.172C567.628 47.948 567.386 47.7707 567.124 47.64C566.863 47.5093 566.527 47.444 566.116 47.444C565.37 47.444 564.791 47.6493 564.38 48.06C563.988 48.452 563.792 49.0213 563.792 49.768V65H560.712ZM557.492 54.36V51.56H567.852V54.36H557.492ZM575.634 65.28C574.327 65.28 573.142 64.972 572.078 64.356C571.014 63.7213 570.164 62.872 569.53 61.808C568.914 60.744 568.606 59.5587 568.606 58.252C568.606 56.9453 568.914 55.7693 569.53 54.724C570.164 53.6787 571.014 52.848 572.078 52.232C573.142 51.5973 574.327 51.28 575.634 51.28C576.959 51.28 578.154 51.588 579.218 52.204C580.282 52.82 581.122 53.66 581.738 54.724C582.372 55.7693 582.69 56.9453 582.69 58.252C582.69 59.5587 582.372 60.744 581.738 61.808C581.122 62.872 580.282 63.7213 579.218 64.356C578.154 64.972 576.959 65.28 575.634 65.28ZM575.634 62.312C576.399 62.312 577.071 62.144 577.65 61.808C578.247 61.4533 578.704 60.968 579.022 60.352C579.358 59.736 579.526 59.036 579.526 58.252C579.526 57.468 579.358 56.7773 579.022 56.18C578.686 55.5827 578.228 55.116 577.65 54.78C577.071 54.4253 576.399 54.248 575.634 54.248C574.887 54.248 574.215 54.4253 573.618 54.78C573.039 55.116 572.582 55.5827 572.246 56.18C571.928 56.7773 571.77 57.468 571.77 58.252C571.77 59.036 571.928 59.736 572.246 60.352C572.582 60.968 573.039 61.4533 573.618 61.808C574.215 62.144 574.887 62.312 575.634 62.312ZM590.767 65.28C589.628 65.28 588.611 65.028 587.715 64.524C586.838 64.02 586.147 63.3293 585.643 62.452C585.158 61.556 584.915 60.5293 584.915 59.372V51.56H587.995V59.232C587.995 59.8853 588.098 60.4453 588.303 60.912C588.527 61.36 588.844 61.7053 589.255 61.948C589.684 62.1907 590.188 62.312 590.767 62.312C591.663 62.312 592.344 62.0507 592.811 61.528C593.296 60.9867 593.539 60.2213 593.539 59.232V51.56H596.619V59.372C596.619 60.548 596.367 61.584 595.863 62.48C595.378 63.3573 594.696 64.048 593.819 64.552C592.942 65.0373 591.924 65.28 590.767 65.28ZM601.76 65V45.96H604.84V65H601.76ZM598.54 54.36V51.56H608.06V54.36H598.54ZM622.063 65.28C620.757 65.28 619.571 64.972 618.507 64.356C617.443 63.7213 616.594 62.872 615.959 61.808C615.343 60.744 615.035 59.5587 615.035 58.252C615.035 56.9453 615.343 55.7693 615.959 54.724C616.594 53.6787 617.443 52.848 618.507 52.232C619.571 51.5973 620.757 51.28 622.063 51.28C623.389 51.28 624.583 51.588 625.647 52.204C626.711 52.82 627.551 53.66 628.167 54.724C628.802 55.7693 629.119 56.9453 629.119 58.252C629.119 59.5587 628.802 60.744 628.167 61.808C627.551 62.872 626.711 63.7213 625.647 64.356C624.583 64.972 623.389 65.28 622.063 65.28ZM622.063 62.312C622.829 62.312 623.501 62.144 624.079 61.808C624.677 61.4533 625.134 60.968 625.451 60.352C625.787 59.736 625.955 59.036 625.955 58.252C625.955 57.468 625.787 56.7773 625.451 56.18C625.115 55.5827 624.658 55.116 624.079 54.78C623.501 54.4253 622.829 54.248 622.063 54.248C621.317 54.248 620.645 54.4253 620.047 54.78C619.469 55.116 619.011 55.5827 618.675 56.18C618.358 56.7773 618.199 57.468 618.199 58.252C618.199 59.036 618.358 59.736 618.675 60.352C619.011 60.968 619.469 61.4533 620.047 61.808C620.645 62.144 621.317 62.312 622.063 62.312ZM638.877 65.28C637.85 65.28 636.935 65.0653 636.133 64.636C635.33 64.188 634.695 63.5813 634.229 62.816C633.781 62.0507 633.557 61.1827 633.557 60.212V56.348C633.557 55.3773 633.79 54.5093 634.257 53.744C634.723 52.9787 635.358 52.3813 636.161 51.952C636.963 51.504 637.869 51.28 638.877 51.28C640.09 51.28 641.182 51.5973 642.153 52.232C643.142 52.848 643.917 53.688 644.477 54.752C645.055 55.7973 645.345 56.9827 645.345 58.308C645.345 59.6147 645.055 60.8 644.477 61.864C643.917 62.9093 643.142 63.74 642.153 64.356C641.182 64.972 640.09 65.28 638.877 65.28ZM638.373 62.368C639.119 62.368 639.773 62.2 640.333 61.864C640.911 61.5093 641.359 61.024 641.677 60.408C642.013 59.792 642.181 59.0827 642.181 58.28C642.181 57.4773 642.013 56.768 641.677 56.152C641.359 55.536 640.911 55.06 640.333 54.724C639.773 54.3693 639.119 54.192 638.373 54.192C637.626 54.192 636.963 54.3693 636.385 54.724C635.806 55.06 635.358 55.536 635.041 56.152C634.723 56.768 634.565 57.4773 634.565 58.28C634.565 59.0827 634.723 59.792 635.041 60.408C635.358 61.024 635.806 61.5093 636.385 61.864C636.963 62.2 637.626 62.368 638.373 62.368ZM631.681 70.6V51.56H634.761V55.172L634.229 58.448L634.761 61.696V70.6H631.681ZM653.523 70.88C652.104 70.88 650.863 70.6187 649.799 70.096C648.735 69.592 647.876 68.8733 647.223 67.94L649.239 65.924C649.78 66.596 650.396 67.1 651.087 67.436C651.778 67.772 652.608 67.94 653.579 67.94C654.792 67.94 655.754 67.6227 656.463 66.988C657.172 66.372 657.527 65.5227 657.527 64.44V61.136L658.059 58.168L657.527 55.172V51.56H660.607V64.44C660.607 65.728 660.308 66.848 659.711 67.8C659.114 68.7707 658.283 69.5267 657.219 70.068C656.155 70.6093 654.923 70.88 653.523 70.88ZM653.383 64.72C652.188 64.72 651.106 64.4307 650.135 63.852C649.183 63.2547 648.427 62.4427 647.867 61.416C647.326 60.3893 647.055 59.2413 647.055 57.972C647.055 56.7027 647.326 55.564 647.867 54.556C648.427 53.548 649.183 52.7547 650.135 52.176C651.106 51.5787 652.188 51.28 653.383 51.28C654.447 51.28 655.38 51.4947 656.183 51.924C656.986 52.3533 657.611 52.9507 658.059 53.716C658.507 54.4627 658.731 55.34 658.731 56.348V59.652C658.731 60.6413 658.498 61.5187 658.031 62.284C657.583 63.0493 656.958 63.6467 656.155 64.076C655.352 64.5053 654.428 64.72 653.383 64.72ZM653.999 61.808C654.746 61.808 655.399 61.6493 655.959 61.332C656.519 61.0147 656.948 60.576 657.247 60.016C657.564 59.4373 657.723 58.7653 657.723 58C657.723 57.2347 657.564 56.572 657.247 56.012C656.948 55.4333 656.519 54.9853 655.959 54.668C655.399 54.3507 654.746 54.192 653.999 54.192C653.252 54.192 652.59 54.3507 652.011 54.668C651.451 54.9853 651.012 55.4333 650.695 56.012C650.378 56.572 650.219 57.2347 650.219 58C650.219 58.7467 650.378 59.4093 650.695 59.988C651.012 60.5667 651.451 61.0147 652.011 61.332C652.59 61.6493 653.252 61.808 653.999 61.808ZM670.272 65.28C668.928 65.28 667.715 64.9813 666.632 64.384C665.568 63.768 664.719 62.928 664.084 61.864C663.468 60.8 663.16 59.6053 663.16 58.28C663.16 56.9547 663.468 55.7693 664.084 54.724C664.7 53.66 665.531 52.82 666.576 52.204C667.64 51.588 668.816 51.28 670.104 51.28C671.355 51.28 672.456 51.5693 673.408 52.148C674.379 52.7267 675.135 53.52 675.676 54.528C676.236 55.536 676.516 56.684 676.516 57.972C676.516 58.196 676.498 58.4293 676.46 58.672C676.442 58.896 676.404 59.148 676.348 59.428H665.316V56.908H674.752L673.604 57.916C673.567 57.0947 673.408 56.404 673.128 55.844C672.848 55.284 672.447 54.8547 671.924 54.556C671.42 54.2573 670.795 54.108 670.048 54.108C669.264 54.108 668.583 54.276 668.004 54.612C667.426 54.948 666.978 55.424 666.66 56.04C666.343 56.6373 666.184 57.356 666.184 58.196C666.184 59.036 666.352 59.7733 666.688 60.408C667.024 61.0427 667.5 61.5373 668.116 61.892C668.732 62.228 669.442 62.396 670.244 62.396C670.935 62.396 671.57 62.2747 672.148 62.032C672.746 61.7893 673.25 61.4347 673.66 60.968L675.62 62.956C674.967 63.7213 674.174 64.3 673.24 64.692C672.307 65.084 671.318 65.28 670.272 65.28ZM680.674 65V45.96H683.754V65H680.674ZM677.454 54.36V51.56H686.974V54.36H677.454ZM689.212 65V51.56H692.292V65H689.212ZM692.292 57.524L691.228 56.992C691.228 55.2933 691.601 53.9213 692.348 52.876C693.113 51.812 694.261 51.28 695.792 51.28C696.464 51.28 697.071 51.4013 697.612 51.644C698.153 51.8867 698.657 52.2787 699.124 52.82L697.108 54.892C696.865 54.6307 696.595 54.444 696.296 54.332C695.997 54.22 695.652 54.164 695.26 54.164C694.401 54.164 693.692 54.4347 693.132 54.976C692.572 55.5173 692.292 56.3667 692.292 57.524ZM706.448 65.28C705.104 65.28 703.891 64.9813 702.808 64.384C701.744 63.768 700.895 62.928 700.26 61.864C699.644 60.8 699.336 59.6053 699.336 58.28C699.336 56.9547 699.644 55.7693 700.26 54.724C700.876 53.66 701.707 52.82 702.752 52.204C703.816 51.588 704.992 51.28 706.28 51.28C707.531 51.28 708.632 51.5693 709.584 52.148C710.555 52.7267 711.311 53.52 711.852 54.528C712.412 55.536 712.692 56.684 712.692 57.972C712.692 58.196 712.673 58.4293 712.636 58.672C712.617 58.896 712.58 59.148 712.524 59.428H701.492V56.908H710.928L709.78 57.916C709.743 57.0947 709.584 56.404 709.304 55.844C709.024 55.284 708.623 54.8547 708.1 54.556C707.596 54.2573 706.971 54.108 706.224 54.108C705.44 54.108 704.759 54.276 704.18 54.612C703.601 54.948 703.153 55.424 702.836 56.04C702.519 56.6373 702.36 57.356 702.36 58.196C702.36 59.036 702.528 59.7733 702.864 60.408C703.2 61.0427 703.676 61.5373 704.292 61.892C704.908 62.228 705.617 62.396 706.42 62.396C707.111 62.396 707.745 62.2747 708.324 62.032C708.921 61.7893 709.425 61.4347 709.836 60.968L711.796 62.956C711.143 63.7213 710.349 64.3 709.416 64.692C708.483 65.084 707.493 65.28 706.448 65.28ZM720.789 65.28C719.576 65.28 718.474 64.972 717.485 64.356C716.514 63.74 715.74 62.9093 715.161 61.864C714.601 60.8 714.321 59.6147 714.321 58.308C714.321 56.9827 714.601 55.7973 715.161 54.752C715.74 53.688 716.514 52.848 717.485 52.232C718.474 51.5973 719.576 51.28 720.789 51.28C721.816 51.28 722.721 51.504 723.505 51.952C724.308 52.3813 724.942 52.9787 725.409 53.744C725.876 54.5093 726.109 55.3773 726.109 56.348V60.212C726.109 61.1827 725.876 62.0507 725.409 62.816C724.961 63.5813 724.336 64.188 723.533 64.636C722.73 65.0653 721.816 65.28 720.789 65.28ZM721.293 62.368C722.058 62.368 722.721 62.2 723.281 61.864C723.86 61.5093 724.308 61.024 724.625 60.408C724.942 59.792 725.101 59.0827 725.101 58.28C725.101 57.4773 724.942 56.768 724.625 56.152C724.308 55.536 723.86 55.06 723.281 54.724C722.721 54.3693 722.058 54.192 721.293 54.192C720.546 54.192 719.884 54.3693 719.305 54.724C718.745 55.06 718.297 55.536 717.961 56.152C717.644 56.768 717.485 57.4773 717.485 58.28C717.485 59.0827 717.644 59.792 717.961 60.408C718.297 61.024 718.745 61.5093 719.305 61.864C719.884 62.2 720.546 62.368 721.293 62.368ZM727.985 65H724.905V61.388L725.437 58.112L724.905 54.864V44.84H727.985V65ZM737.647 65.28C736.303 65.28 735.09 64.9813 734.007 64.384C732.943 63.768 732.094 62.928 731.459 61.864C730.843 60.8 730.535 59.6053 730.535 58.28C730.535 56.9547 730.843 55.7693 731.459 54.724C732.075 53.66 732.906 52.82 733.951 52.204C735.015 51.588 736.191 51.28 737.479 51.28C738.73 51.28 739.831 51.5693 740.783 52.148C741.754 52.7267 742.51 53.52 743.051 54.528C743.611 55.536 743.891 56.684 743.891 57.972C743.891 58.196 743.873 58.4293 743.835 58.672C743.817 58.896 743.779 59.148 743.723 59.428H732.691V56.908H742.127L740.979 57.916C740.942 57.0947 740.783 56.404 740.503 55.844C740.223 55.284 739.822 54.8547 739.299 54.556C738.795 54.2573 738.17 54.108 737.423 54.108C736.639 54.108 735.958 54.276 735.379 54.612C734.801 54.948 734.353 55.424 734.035 56.04C733.718 56.6373 733.559 57.356 733.559 58.196C733.559 59.036 733.727 59.7733 734.063 60.408C734.399 61.0427 734.875 61.5373 735.491 61.892C736.107 62.228 736.817 62.396 737.619 62.396C738.31 62.396 738.945 62.2747 739.523 62.032C740.121 61.7893 740.625 61.4347 741.035 60.968L742.995 62.956C742.342 63.7213 741.549 64.3 740.615 64.692C739.682 65.084 738.693 65.28 737.647 65.28ZM755.572 65V57.244C755.572 56.348 755.283 55.6107 754.704 55.032C754.144 54.4533 753.416 54.164 752.52 54.164C751.923 54.164 751.391 54.2947 750.924 54.556C750.458 54.8173 750.094 55.1813 749.832 55.648C749.571 56.1147 749.44 56.6467 749.44 57.244L748.236 56.572C748.236 55.5453 748.46 54.64 748.908 53.856C749.356 53.0533 749.972 52.428 750.756 51.98C751.559 51.5133 752.455 51.28 753.444 51.28C754.452 51.28 755.348 51.5413 756.132 52.064C756.916 52.568 757.532 53.2307 757.98 54.052C758.428 54.8547 758.652 55.6947 758.652 56.572V65H755.572ZM746.36 65V51.56H749.44V65H746.36ZM764.134 65.28C763.537 65.28 763.042 65.084 762.65 64.692C762.277 64.2813 762.09 63.7867 762.09 63.208C762.09 62.6107 762.277 62.116 762.65 61.724C763.042 61.332 763.537 61.136 764.134 61.136C764.732 61.136 765.217 61.332 765.59 61.724C765.982 62.116 766.178 62.6107 766.178 63.208C766.178 63.7867 765.982 64.2813 765.59 64.692C765.217 65.084 764.732 65.28 764.134 65.28ZM778.141 57.608V54.808H783.041C783.713 54.808 784.301 54.6773 784.805 54.416C785.327 54.136 785.738 53.7533 786.037 53.268C786.335 52.764 786.485 52.176 786.485 51.504C786.485 50.832 786.335 50.2533 786.037 49.768C785.738 49.264 785.327 48.8813 784.805 48.62C784.301 48.34 783.713 48.2 783.041 48.2H778.141V45.4H783.209C784.441 45.4 785.542 45.652 786.513 46.156C787.502 46.66 788.277 47.3693 788.837 48.284C789.415 49.1987 789.705 50.272 789.705 51.504C789.705 52.736 789.415 53.8093 788.837 54.724C788.277 55.6387 787.502 56.348 786.513 56.852C785.542 57.356 784.441 57.608 783.209 57.608H778.141ZM775.929 65V45.4H779.149V65H775.929ZM792.407 65V51.56H795.487V65H792.407ZM795.487 57.524L794.423 56.992C794.423 55.2933 794.797 53.9213 795.543 52.876C796.309 51.812 797.457 51.28 798.987 51.28C799.659 51.28 800.266 51.4013 800.807 51.644C801.349 51.8867 801.853 52.2787 802.319 52.82L800.303 54.892C800.061 54.6307 799.79 54.444 799.491 54.332C799.193 54.22 798.847 54.164 798.455 54.164C797.597 54.164 796.887 54.4347 796.327 54.976C795.767 55.5173 795.487 56.3667 795.487 57.524ZM809.559 65.28C808.253 65.28 807.067 64.972 806.003 64.356C804.939 63.7213 804.09 62.872 803.455 61.808C802.839 60.744 802.531 59.5587 802.531 58.252C802.531 56.9453 802.839 55.7693 803.455 54.724C804.09 53.6787 804.939 52.848 806.003 52.232C807.067 51.5973 808.253 51.28 809.559 51.28C810.885 51.28 812.079 51.588 813.143 52.204C814.207 52.82 815.047 53.66 815.663 54.724C816.298 55.7693 816.615 56.9453 816.615 58.252C816.615 59.5587 816.298 60.744 815.663 61.808C815.047 62.872 814.207 63.7213 813.143 64.356C812.079 64.972 810.885 65.28 809.559 65.28ZM809.559 62.312C810.325 62.312 810.997 62.144 811.575 61.808C812.173 61.4533 812.63 60.968 812.947 60.352C813.283 59.736 813.451 59.036 813.451 58.252C813.451 57.468 813.283 56.7773 812.947 56.18C812.611 55.5827 812.154 55.116 811.575 54.78C810.997 54.4253 810.325 54.248 809.559 54.248C808.813 54.248 808.141 54.4253 807.543 54.78C806.965 55.116 806.507 55.5827 806.171 56.18C805.854 56.7773 805.695 57.468 805.695 58.252C805.695 59.036 805.854 59.736 806.171 60.352C806.507 60.968 806.965 61.4533 807.543 61.808C808.141 62.144 808.813 62.312 809.559 62.312ZM826.373 65.28C825.346 65.28 824.431 65.0653 823.629 64.636C822.826 64.188 822.191 63.5813 821.725 62.816C821.277 62.0507 821.053 61.1827 821.053 60.212V56.348C821.053 55.3773 821.286 54.5093 821.753 53.744C822.219 52.9787 822.854 52.3813 823.657 51.952C824.459 51.504 825.365 51.28 826.373 51.28C827.586 51.28 828.678 51.5973 829.649 52.232C830.638 52.848 831.413 53.688 831.973 54.752C832.551 55.7973 832.841 56.9827 832.841 58.308C832.841 59.6147 832.551 60.8 831.973 61.864C831.413 62.9093 830.638 63.74 829.649 64.356C828.678 64.972 827.586 65.28 826.373 65.28ZM825.869 62.368C826.615 62.368 827.269 62.2 827.829 61.864C828.407 61.5093 828.855 61.024 829.173 60.408C829.509 59.792 829.677 59.0827 829.677 58.28C829.677 57.4773 829.509 56.768 829.173 56.152C828.855 55.536 828.407 55.06 827.829 54.724C827.269 54.3693 826.615 54.192 825.869 54.192C825.122 54.192 824.459 54.3693 823.881 54.724C823.302 55.06 822.854 55.536 822.537 56.152C822.219 56.768 822.061 57.4773 822.061 58.28C822.061 59.0827 822.219 59.792 822.537 60.408C822.854 61.024 823.302 61.5093 823.881 61.864C824.459 62.2 825.122 62.368 825.869 62.368ZM819.177 65V44.84H822.257V54.864L821.725 58.112L822.257 61.388V65H819.177ZM841.663 65.28C840.319 65.28 839.106 64.9813 838.023 64.384C836.959 63.768 836.11 62.928 835.475 61.864C834.859 60.8 834.551 59.6053 834.551 58.28C834.551 56.9547 834.859 55.7693 835.475 54.724C836.091 53.66 836.922 52.82 837.967 52.204C839.031 51.588 840.207 51.28 841.495 51.28C842.746 51.28 843.847 51.5693 844.799 52.148C845.77 52.7267 846.526 53.52 847.067 54.528C847.627 55.536 847.907 56.684 847.907 57.972C847.907 58.196 847.888 58.4293 847.851 58.672C847.832 58.896 847.795 59.148 847.739 59.428H836.707V56.908H846.143L844.995 57.916C844.958 57.0947 844.799 56.404 844.519 55.844C844.239 55.284 843.838 54.8547 843.315 54.556C842.811 54.2573 842.186 54.108 841.439 54.108C840.655 54.108 839.974 54.276 839.395 54.612C838.816 54.948 838.368 55.424 838.051 56.04C837.734 56.6373 837.575 57.356 837.575 58.196C837.575 59.036 837.743 59.7733 838.079 60.408C838.415 61.0427 838.891 61.5373 839.507 61.892C840.123 62.228 840.832 62.396 841.635 62.396C842.326 62.396 842.96 62.2747 843.539 62.032C844.136 61.7893 844.64 61.4347 845.051 60.968L847.011 62.956C846.358 63.7213 845.564 64.3 844.631 64.692C843.698 65.084 842.708 65.28 841.663 65.28ZM856.62 65.28C855.276 65.28 854.063 64.9813 852.98 64.384C851.916 63.768 851.067 62.928 850.432 61.864C849.816 60.8 849.508 59.6053 849.508 58.28C849.508 56.9547 849.816 55.7693 850.432 54.724C851.048 53.66 851.879 52.82 852.924 52.204C853.988 51.588 855.164 51.28 856.452 51.28C857.703 51.28 858.804 51.5693 859.756 52.148C860.727 52.7267 861.483 53.52 862.024 54.528C862.584 55.536 862.864 56.684 862.864 57.972C862.864 58.196 862.845 58.4293 862.808 58.672C862.789 58.896 862.752 59.148 862.696 59.428H851.664V56.908H861.1L859.952 57.916C859.915 57.0947 859.756 56.404 859.476 55.844C859.196 55.284 858.795 54.8547 858.272 54.556C857.768 54.2573 857.143 54.108 856.396 54.108C855.612 54.108 854.931 54.276 854.352 54.612C853.773 54.948 853.325 55.424 853.008 56.04C852.691 56.6373 852.532 57.356 852.532 58.196C852.532 59.036 852.7 59.7733 853.036 60.408C853.372 61.0427 853.848 61.5373 854.464 61.892C855.08 62.228 855.789 62.396 856.592 62.396C857.283 62.396 857.917 62.2747 858.496 62.032C859.093 61.7893 859.597 61.4347 860.008 60.968L861.968 62.956C861.315 63.7213 860.521 64.3 859.588 64.692C858.655 65.084 857.665 65.28 856.62 65.28ZM865.333 65V51.56H868.413V65H865.333ZM868.413 57.524L867.349 56.992C867.349 55.2933 867.722 53.9213 868.469 52.876C869.234 51.812 870.382 51.28 871.913 51.28C872.585 51.28 873.192 51.4013 873.733 51.644C874.274 51.8867 874.778 52.2787 875.245 52.82L873.229 54.892C872.986 54.6307 872.716 54.444 872.417 54.332C872.118 54.22 871.773 54.164 871.381 54.164C870.522 54.164 869.813 54.4347 869.253 54.976C868.693 55.5173 868.413 56.3667 868.413 57.524ZM892.045 65V57.244C892.045 56.348 891.756 55.6107 891.177 55.032C890.617 54.4533 889.889 54.164 888.993 54.164C888.396 54.164 887.864 54.2947 887.397 54.556C886.93 54.8173 886.566 55.1813 886.305 55.648C886.044 56.1147 885.913 56.6467 885.913 57.244L884.709 56.572C884.709 55.5453 884.933 54.64 885.381 53.856C885.829 53.0533 886.445 52.428 887.229 51.98C888.032 51.5133 888.928 51.28 889.917 51.28C890.925 51.28 891.821 51.504 892.605 51.952C893.389 52.4 894.005 53.0253 894.453 53.828C894.901 54.612 895.125 55.5267 895.125 56.572V65H892.045ZM882.833 65V44.84H885.913V65H882.833ZM904.499 65.28C903.155 65.28 901.942 64.9813 900.859 64.384C899.795 63.768 898.946 62.928 898.311 61.864C897.695 60.8 897.387 59.6053 897.387 58.28C897.387 56.9547 897.695 55.7693 898.311 54.724C898.927 53.66 899.758 52.82 900.803 52.204C901.867 51.588 903.043 51.28 904.331 51.28C905.582 51.28 906.683 51.5693 907.635 52.148C908.606 52.7267 909.362 53.52 909.903 54.528C910.463 55.536 910.743 56.684 910.743 57.972C910.743 58.196 910.724 58.4293 910.687 58.672C910.668 58.896 910.631 59.148 910.575 59.428H899.543V56.908H908.979L907.831 57.916C907.794 57.0947 907.635 56.404 907.355 55.844C907.075 55.284 906.674 54.8547 906.151 54.556C905.647 54.2573 905.022 54.108 904.275 54.108C903.491 54.108 902.81 54.276 902.231 54.612C901.652 54.948 901.204 55.424 900.887 56.04C900.57 56.6373 900.411 57.356 900.411 58.196C900.411 59.036 900.579 59.7733 900.915 60.408C901.251 61.0427 901.727 61.5373 902.343 61.892C902.959 62.228 903.668 62.396 904.471 62.396C905.162 62.396 905.796 62.2747 906.375 62.032C906.972 61.7893 907.476 61.4347 907.887 60.968L909.847 62.956C909.194 63.7213 908.4 64.3 907.467 64.692C906.534 65.084 905.544 65.28 904.499 65.28ZM914.9 65V45.96H917.98V65H914.9ZM911.68 54.36V51.56H921.2V54.36H911.68ZM938.256 65V57.244C938.256 56.348 937.967 55.6107 937.388 55.032C936.828 54.4533 936.1 54.164 935.204 54.164C934.607 54.164 934.075 54.2947 933.608 54.556C933.141 54.8173 932.777 55.1813 932.516 55.648C932.255 56.1147 932.124 56.6467 932.124 57.244L930.92 56.572C930.92 55.5453 931.144 54.64 931.592 53.856C932.04 53.0533 932.656 52.428 933.44 51.98C934.243 51.5133 935.139 51.28 936.128 51.28C937.136 51.28 938.032 51.5413 938.816 52.064C939.6 52.568 940.216 53.2307 940.664 54.052C941.112 54.8547 941.336 55.6947 941.336 56.572V65H938.256ZM929.044 65V51.56H932.124V65H929.044ZM950.626 65.28C949.319 65.28 948.134 64.972 947.07 64.356C946.006 63.7213 945.156 62.872 944.522 61.808C943.906 60.744 943.598 59.5587 943.598 58.252C943.598 56.9453 943.906 55.7693 944.522 54.724C945.156 53.6787 946.006 52.848 947.07 52.232C948.134 51.5973 949.319 51.28 950.626 51.28C951.951 51.28 953.146 51.588 954.21 52.204C955.274 52.82 956.114 53.66 956.73 54.724C957.364 55.7693 957.682 56.9453 957.682 58.252C957.682 59.5587 957.364 60.744 956.73 61.808C956.114 62.872 955.274 63.7213 954.21 64.356C953.146 64.972 951.951 65.28 950.626 65.28ZM950.626 62.312C951.391 62.312 952.063 62.144 952.642 61.808C953.239 61.4533 953.696 60.968 954.014 60.352C954.35 59.736 954.518 59.036 954.518 58.252C954.518 57.468 954.35 56.7773 954.014 56.18C953.678 55.5827 953.22 55.116 952.642 54.78C952.063 54.4253 951.391 54.248 950.626 54.248C949.879 54.248 949.207 54.4253 948.61 54.78C948.031 55.116 947.574 55.5827 947.238 56.18C946.92 56.7773 946.762 57.468 946.762 58.252C946.762 59.036 946.92 59.736 947.238 60.352C947.574 60.968 948.031 61.4533 948.61 61.808C949.207 62.144 949.879 62.312 950.626 62.312ZM965.843 70.88C964.424 70.88 963.183 70.6187 962.119 70.096C961.055 69.592 960.196 68.8733 959.543 67.94L961.559 65.924C962.1 66.596 962.716 67.1 963.407 67.436C964.098 67.772 964.928 67.94 965.899 67.94C967.112 67.94 968.074 67.6227 968.783 66.988C969.492 66.372 969.847 65.5227 969.847 64.44V61.136L970.379 58.168L969.847 55.172V51.56H972.927V64.44C972.927 65.728 972.628 66.848 972.031 67.8C971.434 68.7707 970.603 69.5267 969.539 70.068C968.475 70.6093 967.243 70.88 965.843 70.88ZM965.703 64.72C964.508 64.72 963.426 64.4307 962.455 63.852C961.503 63.2547 960.747 62.4427 960.187 61.416C959.646 60.3893 959.375 59.2413 959.375 57.972C959.375 56.7027 959.646 55.564 960.187 54.556C960.747 53.548 961.503 52.7547 962.455 52.176C963.426 51.5787 964.508 51.28 965.703 51.28C966.767 51.28 967.7 51.4947 968.503 51.924C969.306 52.3533 969.931 52.9507 970.379 53.716C970.827 54.4627 971.051 55.34 971.051 56.348V59.652C971.051 60.6413 970.818 61.5187 970.351 62.284C969.903 63.0493 969.278 63.6467 968.475 64.076C967.672 64.5053 966.748 64.72 965.703 64.72ZM966.319 61.808C967.066 61.808 967.719 61.6493 968.279 61.332C968.839 61.0147 969.268 60.576 969.567 60.016C969.884 59.4373 970.043 58.7653 970.043 58C970.043 57.2347 969.884 56.572 969.567 56.012C969.268 55.4333 968.839 54.9853 968.279 54.668C967.719 54.3507 967.066 54.192 966.319 54.192C965.572 54.192 964.91 54.3507 964.331 54.668C963.771 54.9853 963.332 55.4333 963.015 56.012C962.698 56.572 962.539 57.2347 962.539 58C962.539 58.7467 962.698 59.4093 963.015 59.988C963.332 60.5667 963.771 61.0147 964.331 61.332C964.91 61.6493 965.572 61.808 966.319 61.808ZM988.198 65.28C986.854 65.28 985.641 64.9813 984.558 64.384C983.494 63.768 982.645 62.928 982.01 61.864C981.394 60.8 981.086 59.6053 981.086 58.28C981.086 56.9547 981.394 55.7693 982.01 54.724C982.626 53.66 983.457 52.82 984.502 52.204C985.566 51.588 986.742 51.28 988.03 51.28C989.281 51.28 990.382 51.5693 991.334 52.148C992.305 52.7267 993.061 53.52 993.602 54.528C994.162 55.536 994.442 56.684 994.442 57.972C994.442 58.196 994.423 58.4293 994.386 58.672C994.367 58.896 994.33 59.148 994.274 59.428H983.242V56.908H992.678L991.53 57.916C991.493 57.0947 991.334 56.404 991.054 55.844C990.774 55.284 990.373 54.8547 989.85 54.556C989.346 54.2573 988.721 54.108 987.974 54.108C987.19 54.108 986.509 54.276 985.93 54.612C985.351 54.948 984.903 55.424 984.586 56.04C984.269 56.6373 984.11 57.356 984.11 58.196C984.11 59.036 984.278 59.7733 984.614 60.408C984.95 61.0427 985.426 61.5373 986.042 61.892C986.658 62.228 987.367 62.396 988.17 62.396C988.861 62.396 989.495 62.2747 990.074 62.032C990.671 61.7893 991.175 61.4347 991.586 60.968L993.546 62.956C992.893 63.7213 992.099 64.3 991.166 64.692C990.233 65.084 989.243 65.28 988.198 65.28ZM1003.16 65.28C1001.81 65.28 1000.6 64.9813 999.515 64.384C998.451 63.768 997.602 62.928 996.967 61.864C996.351 60.8 996.043 59.6053 996.043 58.28C996.043 56.9547 996.351 55.7693 996.967 54.724C997.583 53.66 998.414 52.82 999.459 52.204C1000.52 51.588 1001.7 51.28 1002.99 51.28C1004.24 51.28 1005.34 51.5693 1006.29 52.148C1007.26 52.7267 1008.02 53.52 1008.56 54.528C1009.12 55.536 1009.4 56.684 1009.4 57.972C1009.4 58.196 1009.38 58.4293 1009.34 58.672C1009.32 58.896 1009.29 59.148 1009.23 59.428H998.199V56.908H1007.64L1006.49 57.916C1006.45 57.0947 1006.29 56.404 1006.01 55.844C1005.73 55.284 1005.33 54.8547 1004.81 54.556C1004.3 54.2573 1003.68 54.108 1002.93 54.108C1002.15 54.108 1001.47 54.276 1000.89 54.612C1000.31 54.948 999.86 55.424 999.543 56.04C999.226 56.6373 999.067 57.356 999.067 58.196C999.067 59.036 999.235 59.7733 999.571 60.408C999.907 61.0427 1000.38 61.5373 1001 61.892C1001.62 62.228 1002.32 62.396 1003.13 62.396C1003.82 62.396 1004.45 62.2747 1005.03 62.032C1005.63 61.7893 1006.13 61.4347 1006.54 60.968L1008.5 62.956C1007.85 63.7213 1007.06 64.3 1006.12 64.692C1005.19 65.084 1004.2 65.28 1003.16 65.28ZM1021.08 65V57.244C1021.08 56.348 1020.79 55.6107 1020.21 55.032C1019.65 54.4533 1018.92 54.164 1018.03 54.164C1017.43 54.164 1016.9 54.2947 1016.43 54.556C1015.97 54.8173 1015.6 55.1813 1015.34 55.648C1015.08 56.1147 1014.95 56.6467 1014.95 57.244L1013.74 56.572C1013.74 55.5453 1013.97 54.64 1014.42 53.856C1014.86 53.0533 1015.48 52.428 1016.26 51.98C1017.07 51.5133 1017.96 51.28 1018.95 51.28C1019.96 51.28 1020.86 51.5413 1021.64 52.064C1022.42 52.568 1023.04 53.2307 1023.49 54.052C1023.94 54.8547 1024.16 55.6947 1024.16 56.572V65H1021.08ZM1011.87 65V51.56H1014.95V65H1011.87ZM1031.69 65.28C1030.94 65.28 1030.22 65.1867 1029.53 65C1028.84 64.7947 1028.2 64.5147 1027.63 64.16C1027.05 63.7867 1026.54 63.3387 1026.11 62.816L1028.07 60.856C1028.54 61.3973 1029.07 61.808 1029.67 62.088C1030.29 62.3493 1030.98 62.48 1031.74 62.48C1032.43 62.48 1032.96 62.3773 1033.31 62.172C1033.66 61.9667 1033.84 61.668 1033.84 61.276C1033.84 60.8653 1033.67 60.548 1033.34 60.324C1033 60.1 1032.56 59.9133 1032.02 59.764C1031.5 59.596 1030.94 59.428 1030.34 59.26C1029.76 59.092 1029.2 58.868 1028.66 58.588C1028.14 58.2893 1027.71 57.888 1027.37 57.384C1027.04 56.88 1026.87 56.2267 1026.87 55.424C1026.87 54.5653 1027.07 53.828 1027.46 53.212C1027.87 52.596 1028.44 52.12 1029.17 51.784C1029.91 51.448 1030.8 51.28 1031.83 51.28C1032.91 51.28 1033.86 51.476 1034.68 51.868C1035.52 52.2413 1036.22 52.8107 1036.78 53.576L1034.82 55.536C1034.43 55.0507 1033.98 54.6867 1033.48 54.444C1032.97 54.2013 1032.4 54.08 1031.74 54.08C1031.13 54.08 1030.65 54.1733 1030.31 54.36C1029.98 54.5467 1029.81 54.8173 1029.81 55.172C1029.81 55.5453 1029.98 55.8347 1030.31 56.04C1030.65 56.2453 1031.08 56.4227 1031.6 56.572C1032.14 56.7213 1032.7 56.8893 1033.28 57.076C1033.88 57.244 1034.44 57.4867 1034.96 57.804C1035.5 58.1027 1035.94 58.5133 1036.28 59.036C1036.61 59.54 1036.78 60.2027 1036.78 61.024C1036.78 62.3307 1036.32 63.3667 1035.41 64.132C1034.5 64.8973 1033.25 65.28 1031.69 65.28ZM1041.67 65.28C1041.08 65.28 1040.58 65.084 1040.19 64.692C1039.82 64.2813 1039.63 63.7867 1039.63 63.208C1039.63 62.6107 1039.82 62.116 1040.19 61.724C1040.58 61.332 1041.08 61.136 1041.67 61.136C1042.27 61.136 1042.76 61.332 1043.13 61.724C1043.52 62.116 1043.72 62.6107 1043.72 63.208C1043.72 63.7867 1043.52 64.2813 1043.13 64.692C1042.76 65.084 1042.27 65.28 1041.67 65.28Z" fill="white"/>
<path d="M402 43L426.217 67.2168" stroke="white" stroke-width="6.25196" stroke-linecap="round" stroke-linejoin="round"/>
<path d="M402 67.2168L426.217 43" stroke="white" stroke-width="6.25196" stroke-linecap="round" stroke-linejoin="round"/>
<rect x="439" y="432" width="561" height="189" rx="8" fill="white"/>
<rect x="568" y="481.424" width="391" height="55.2386" rx="8" fill="#D9D9D9"/>
<path d="M519.226 483.362H524.969C529.387 483.362 532.969 486.944 532.969 491.362V496.68M532.969 523.315V528.632C532.969 533.051 529.387 536.632 524.969 536.632H519.226M491.742 536.632H486C481.582 536.632 478 533.051 478 528.632V523.315M478 496.68V491.362C478 486.944 481.582 483.362 486 483.362H491.742" stroke="black" stroke-width="6.10762" stroke-linecap="round" stroke-linejoin="round"/>
<path d="M484.108 509.997H526.861" stroke="black" stroke-width="6.10762" stroke-linecap="round" stroke-linejoin="round"/>
<path d="M617 568C617 561.373 622.373 556 629 556H811C817.627 556 823 561.373 823 568V590C823 596.627 817.627 602 811 602H629C622.373 602 617 596.627 617 590V568Z" fill="#E57E1F"/>
<path d="M679.025 592.04L695.105 568.44H698.585L682.505 592.04H679.025ZM679.025 594V592.04L681.545 591.32H698.265V594H679.025ZM679.785 569.16V566.48H698.585V568.44L696.025 569.16H679.785ZM710.423 594.4C708.609 594.4 706.956 593.96 705.463 593.08C703.996 592.2 702.823 591.013 701.943 589.52C701.089 588.027 700.663 586.36 700.663 584.52C700.663 582.707 701.089 581.067 701.943 579.6C702.823 578.133 703.996 576.973 705.463 576.12C706.956 575.24 708.609 574.8 710.423 574.8C712.263 574.8 713.916 575.227 715.383 576.08C716.849 576.933 718.009 578.107 718.863 579.6C719.743 581.067 720.182 582.707 720.182 584.52C720.182 586.387 719.743 588.067 718.863 589.56C718.009 591.027 716.849 592.2 715.383 593.08C713.916 593.96 712.263 594.4 710.423 594.4ZM710.423 591.68C711.756 591.68 712.929 591.373 713.943 590.76C714.983 590.147 715.796 589.293 716.383 588.2C716.996 587.107 717.303 585.88 717.303 584.52C717.303 583.16 716.996 581.96 716.383 580.92C715.796 579.853 714.983 579.013 713.943 578.4C712.929 577.787 711.756 577.48 710.423 577.48C709.116 577.48 707.943 577.787 706.903 578.4C705.863 579.013 705.049 579.853 704.463 580.92C703.876 581.96 703.583 583.16 703.583 584.52C703.583 585.907 703.876 587.147 704.463 588.24C705.049 589.307 705.863 590.147 706.903 590.76C707.943 591.373 709.116 591.68 710.423 591.68ZM733.317 594.4C731.424 594.4 729.73 593.973 728.237 593.12C726.744 592.267 725.557 591.093 724.677 589.6C723.824 588.107 723.397 586.427 723.397 584.56C723.397 582.72 723.824 581.067 724.677 579.6C725.53 578.107 726.69 576.933 728.157 576.08C729.624 575.227 731.264 574.8 733.077 574.8C734.784 574.8 736.29 575.187 737.597 575.96C738.93 576.733 739.97 577.813 740.717 579.2C741.49 580.56 741.877 582.133 741.877 583.92C741.877 584.133 741.864 584.387 741.837 584.68C741.81 584.947 741.757 585.267 741.677 585.64H725.397V583.24H740.157L739.157 584.12C739.184 582.733 738.944 581.547 738.437 580.56C737.957 579.547 737.25 578.773 736.317 578.24C735.41 577.68 734.304 577.4 732.997 577.4C731.637 577.4 730.45 577.693 729.437 578.28C728.424 578.867 727.624 579.693 727.037 580.76C726.477 581.8 726.197 583.04 726.197 584.48C726.197 585.92 726.49 587.187 727.077 588.28C727.69 589.373 728.53 590.227 729.597 590.84C730.69 591.453 731.944 591.76 733.357 591.76C734.504 591.76 735.557 591.56 736.517 591.16C737.477 590.733 738.29 590.107 738.957 589.28L740.757 591.12C739.877 592.16 738.784 592.973 737.477 593.56C736.197 594.12 734.81 594.4 733.317 594.4ZM758.28 594L748.68 584.36L758.12 575.2H761.6L751.32 585.08L751.4 583.48L762 594H758.28ZM746.16 594V565.68H748.96V594H746.16Z" fill="white"/>
<path d="M429.313 248.594C426.181 248.594 423.481 248.09 421.213 247.082C418.981 246.038 416.929 244.472 415.057 242.384L420.565 236.93C421.789 238.334 423.139 239.432 424.615 240.224C426.127 240.98 427.873 241.358 429.853 241.358C431.653 241.358 433.039 241.034 434.011 240.386C435.019 239.738 435.523 238.838 435.523 237.686C435.523 236.642 435.199 235.796 434.551 235.148C433.903 234.5 433.039 233.942 431.959 233.474C430.915 233.006 429.745 232.556 428.449 232.124C427.189 231.692 425.929 231.206 424.669 230.666C423.409 230.09 422.239 229.388 421.159 228.56C420.115 227.696 419.269 226.634 418.621 225.374C417.973 224.078 417.649 222.458 417.649 220.514C417.649 218.174 418.207 216.158 419.323 214.466C420.475 212.774 422.059 211.496 424.075 210.632C426.091 209.732 428.413 209.282 431.041 209.282C433.705 209.282 436.135 209.75 438.331 210.686C440.563 211.622 442.399 212.9 443.839 214.52L438.331 219.974C437.179 218.786 436.009 217.904 434.821 217.328C433.669 216.752 432.355 216.464 430.879 216.464C429.403 216.464 428.233 216.752 427.369 217.328C426.505 217.868 426.073 218.66 426.073 219.704C426.073 220.676 426.397 221.468 427.045 222.08C427.693 222.656 428.539 223.16 429.583 223.592C430.663 224.024 431.833 224.456 433.093 224.888C434.389 225.32 435.667 225.824 436.927 226.4C438.187 226.976 439.339 227.714 440.383 228.614C441.463 229.478 442.327 230.594 442.975 231.962C443.623 233.294 443.947 234.95 443.947 236.93C443.947 240.566 442.651 243.428 440.059 245.516C437.467 247.568 433.885 248.594 429.313 248.594ZM461.124 248.594C458.424 248.594 455.976 248 453.78 246.812C451.584 245.624 449.856 243.986 448.596 241.898C447.336 239.81 446.706 237.47 446.706 234.878C446.706 232.25 447.336 229.91 448.596 227.858C449.892 225.77 451.638 224.132 453.834 222.944C456.03 221.756 458.496 221.162 461.232 221.162C463.284 221.162 465.156 221.522 466.848 222.242C468.576 222.926 470.106 223.97 471.438 225.374L466.146 230.666C465.534 229.982 464.814 229.478 463.986 229.154C463.194 228.83 462.276 228.668 461.232 228.668C460.044 228.668 458.982 228.938 458.046 229.478C457.146 229.982 456.426 230.702 455.886 231.638C455.382 232.538 455.13 233.6 455.13 234.824C455.13 236.048 455.382 237.128 455.886 238.064C456.426 239 457.164 239.738 458.1 240.278C459.036 240.818 460.08 241.088 461.232 241.088C462.312 241.088 463.266 240.908 464.094 240.548C464.958 240.152 465.696 239.612 466.308 238.928L471.546 244.22C470.178 245.66 468.63 246.758 466.902 247.514C465.174 248.234 463.248 248.594 461.124 248.594ZM485.552 248.54C483.14 248.54 480.98 247.946 479.072 246.758C477.2 245.57 475.706 243.95 474.59 241.898C473.51 239.846 472.97 237.506 472.97 234.878C472.97 232.25 473.51 229.91 474.59 227.858C475.706 225.806 477.2 224.186 479.072 222.998C480.98 221.81 483.14 221.216 485.552 221.216C487.316 221.216 488.9 221.558 490.304 222.242C491.744 222.926 492.914 223.88 493.814 225.104C494.714 226.292 495.218 227.66 495.326 229.208V240.548C495.218 242.096 494.714 243.482 493.814 244.706C492.95 245.894 491.798 246.83 490.358 247.514C488.918 248.198 487.316 248.54 485.552 248.54ZM487.226 241.088C488.99 241.088 490.412 240.512 491.492 239.36C492.572 238.172 493.112 236.678 493.112 234.878C493.112 233.654 492.86 232.574 492.356 231.638C491.888 230.702 491.204 229.982 490.304 229.478C489.44 228.938 488.432 228.668 487.28 228.668C486.128 228.668 485.102 228.938 484.202 229.478C483.338 229.982 482.636 230.702 482.096 231.638C481.592 232.574 481.34 233.654 481.34 234.878C481.34 236.066 481.592 237.128 482.096 238.064C482.6 239 483.302 239.738 484.202 240.278C485.102 240.818 486.11 241.088 487.226 241.088ZM492.788 248V240.926L494.03 234.554L492.788 228.182V221.756H500.888V248H492.788ZM524.039 248V233.042C524.039 231.674 523.607 230.576 522.743 229.748C521.915 228.884 520.853 228.452 519.557 228.452C518.657 228.452 517.865 228.65 517.181 229.046C516.497 229.406 515.957 229.946 515.561 230.666C515.165 231.35 514.967 232.142 514.967 233.042L511.781 231.476C511.781 229.424 512.231 227.624 513.131 226.076C514.031 224.528 515.273 223.34 516.857 222.512C518.477 221.648 520.295 221.216 522.311 221.216C524.255 221.216 525.965 221.684 527.441 222.62C528.953 223.52 530.141 224.726 531.005 226.238C531.869 227.75 532.301 229.406 532.301 231.206V248H524.039ZM506.705 248V221.756H514.967V248H506.705ZM559.555 248.594C557.143 248.594 555.001 248.108 553.129 247.136C551.293 246.128 549.853 244.76 548.809 243.032C547.765 241.268 547.243 239.252 547.243 236.984V221.756H555.505V236.876C555.505 237.776 555.649 238.55 555.937 239.198C556.261 239.846 556.729 240.35 557.341 240.71C557.953 241.07 558.691 241.25 559.555 241.25C560.779 241.25 561.751 240.872 562.471 240.116C563.191 239.324 563.551 238.244 563.551 236.876V221.756H571.813V236.93C571.813 239.234 571.291 241.268 570.247 243.032C569.203 244.76 567.763 246.128 565.927 247.136C564.091 248.108 561.967 248.594 559.555 248.594ZM583.426 248L574.354 221.756H582.454L588.07 240.818L585.694 240.872L591.904 221.756H598.6L604.864 240.872L602.434 240.818L608.104 221.756H616.204L607.132 248H600.382L594.28 229.856H596.332L590.122 248H583.426ZM644.802 248.54C643.038 248.54 641.418 248.198 639.942 247.514C638.466 246.83 637.26 245.894 636.324 244.706C635.388 243.482 634.848 242.096 634.704 240.548V229.478C634.848 227.93 635.388 226.526 636.324 225.266C637.26 224.006 638.466 223.016 639.942 222.296C641.418 221.576 643.038 221.216 644.802 221.216C647.286 221.216 649.482 221.81 651.39 222.998C653.334 224.186 654.846 225.806 655.926 227.858C657.042 229.91 657.6 232.25 657.6 234.878C657.6 237.506 657.042 239.846 655.926 241.898C654.846 243.95 653.334 245.57 651.39 246.758C649.482 247.946 647.286 248.54 644.802 248.54ZM643.29 241.088C644.478 241.088 645.504 240.818 646.368 240.278C647.268 239.738 647.97 239 648.474 238.064C648.978 237.128 649.23 236.066 649.23 234.878C649.23 233.654 648.978 232.574 648.474 231.638C647.97 230.702 647.268 229.982 646.368 229.478C645.504 228.938 644.496 228.668 643.344 228.668C642.192 228.668 641.166 228.938 640.266 229.478C639.402 229.982 638.718 230.702 638.214 231.638C637.71 232.574 637.458 233.654 637.458 234.878C637.458 236.066 637.692 237.128 638.16 238.064C638.664 239 639.366 239.738 640.266 240.278C641.166 240.818 642.174 241.088 643.29 241.088ZM629.682 259.07V221.756H637.944V228.506L636.594 234.878L637.836 241.25V259.07H629.682ZM672.759 248.54C670.347 248.54 668.187 247.946 666.279 246.758C664.407 245.57 662.913 243.95 661.797 241.898C660.717 239.846 660.177 237.506 660.177 234.878C660.177 232.25 660.717 229.91 661.797 227.858C662.913 225.806 664.407 224.186 666.279 222.998C668.187 221.81 670.347 221.216 672.759 221.216C674.523 221.216 676.107 221.558 677.511 222.242C678.951 222.926 680.121 223.88 681.021 225.104C681.921 226.292 682.425 227.66 682.533 229.208V240.548C682.425 242.096 681.921 243.482 681.021 244.706C680.157 245.894 679.005 246.83 677.565 247.514C676.125 248.198 674.523 248.54 672.759 248.54ZM674.433 241.088C676.197 241.088 677.619 240.512 678.699 239.36C679.779 238.172 680.319 236.678 680.319 234.878C680.319 233.654 680.067 232.574 679.563 231.638C679.095 230.702 678.411 229.982 677.511 229.478C676.647 228.938 675.639 228.668 674.487 228.668C673.335 228.668 672.309 228.938 671.409 229.478C670.545 229.982 669.843 230.702 669.303 231.638C668.799 232.574 668.547 233.654 668.547 234.878C668.547 236.066 668.799 237.128 669.303 238.064C669.807 239 670.509 239.738 671.409 240.278C672.309 240.818 673.317 241.088 674.433 241.088ZM679.995 248V240.926L681.237 234.554L679.995 228.182V221.756H688.095V248H679.995ZM703.47 248.648C701.922 248.648 700.392 248.45 698.88 248.054C697.404 247.658 696.018 247.1 694.722 246.38C693.462 245.624 692.382 244.76 691.482 243.788L696.18 239.036C697.044 239.972 698.07 240.71 699.258 241.25C700.446 241.754 701.742 242.006 703.146 242.006C704.118 242.006 704.856 241.862 705.36 241.574C705.9 241.286 706.17 240.89 706.17 240.386C706.17 239.738 705.846 239.252 705.198 238.928C704.586 238.568 703.794 238.262 702.822 238.01C701.85 237.722 700.824 237.416 699.744 237.092C698.664 236.768 697.638 236.318 696.666 235.742C695.694 235.166 694.902 234.374 694.29 233.366C693.678 232.322 693.372 231.008 693.372 229.424C693.372 227.732 693.804 226.274 694.668 225.05C695.532 223.79 696.756 222.8 698.34 222.08C699.924 221.36 701.778 221 703.902 221C706.134 221 708.186 221.396 710.058 222.188C711.966 222.944 713.514 224.078 714.702 225.59L710.004 230.342C709.176 229.37 708.24 228.686 707.196 228.29C706.188 227.894 705.198 227.696 704.226 227.696C703.29 227.696 702.588 227.84 702.12 228.128C701.652 228.38 701.418 228.758 701.418 229.262C701.418 229.802 701.724 230.234 702.336 230.558C702.948 230.882 703.74 231.17 704.712 231.422C705.684 231.674 706.71 231.98 707.79 232.34C708.87 232.7 709.896 233.186 710.868 233.798C711.84 234.41 712.632 235.238 713.244 236.282C713.856 237.29 714.162 238.622 714.162 240.278C714.162 242.834 713.19 244.868 711.246 246.38C709.338 247.892 706.746 248.648 703.47 248.648ZM741.564 248.594C738.864 248.594 736.416 248 734.22 246.812C732.06 245.588 730.35 243.932 729.09 241.844C727.83 239.756 727.2 237.416 727.2 234.824C727.2 232.232 727.83 229.91 729.09 227.858C730.35 225.806 732.06 224.186 734.22 222.998C736.38 221.774 738.828 221.162 741.564 221.162C744.3 221.162 746.748 221.756 748.908 222.944C751.068 224.132 752.778 225.77 754.038 227.858C755.298 229.91 755.928 232.232 755.928 234.824C755.928 237.416 755.298 239.756 754.038 241.844C752.778 243.932 751.068 245.588 748.908 246.812C746.748 248 744.3 248.594 741.564 248.594ZM741.564 241.088C742.752 241.088 743.796 240.836 744.696 240.332C745.596 239.792 746.28 239.054 746.748 238.118C747.252 237.146 747.504 236.048 747.504 234.824C747.504 233.6 747.252 232.538 746.748 231.638C746.244 230.702 745.542 229.982 744.642 229.478C743.778 228.938 742.752 228.668 741.564 228.668C740.412 228.668 739.386 228.938 738.486 229.478C737.586 229.982 736.884 230.702 736.38 231.638C735.876 232.574 735.624 233.654 735.624 234.878C735.624 236.066 735.876 237.146 736.38 238.118C736.884 239.054 737.586 239.792 738.486 240.332C739.386 240.836 740.412 241.088 741.564 241.088ZM760.041 248V221.756H768.303V248H760.041ZM776.835 248V232.664C776.835 231.332 776.421 230.306 775.593 229.586C774.801 228.83 773.811 228.452 772.623 228.452C771.795 228.452 771.057 228.632 770.409 228.992C769.761 229.316 769.239 229.784 768.843 230.396C768.483 231.008 768.303 231.764 768.303 232.664L765.117 231.26C765.117 229.172 765.567 227.39 766.467 225.914C767.367 224.402 768.591 223.25 770.139 222.458C771.687 221.63 773.433 221.216 775.377 221.216C777.213 221.216 778.851 221.63 780.291 222.458C781.767 223.286 782.937 224.438 783.801 225.914C784.665 227.39 785.097 229.154 785.097 231.206V248H776.835ZM793.629 248V232.664C793.629 231.332 793.215 230.306 792.387 229.586C791.595 228.83 790.605 228.452 789.417 228.452C788.589 228.452 787.851 228.632 787.203 228.992C786.555 229.316 786.033 229.784 785.637 230.396C785.277 231.008 785.097 231.764 785.097 232.664L780.345 232.016C780.417 229.784 780.939 227.876 781.911 226.292C782.919 224.672 784.233 223.43 785.853 222.566C787.509 221.666 789.363 221.216 791.415 221.216C793.431 221.216 795.213 221.648 796.761 222.512C798.345 223.34 799.587 224.546 800.487 226.13C801.423 227.678 801.891 229.55 801.891 231.746V248H793.629ZM821.195 248V210.902H829.457V248H821.195ZM815.255 228.776V221.756H835.397V228.776H815.255ZM851.47 248.594C848.626 248.594 846.088 248.018 843.856 246.866C841.66 245.678 839.932 244.04 838.672 241.952C837.412 239.864 836.782 237.506 836.782 234.878C836.782 232.25 837.394 229.91 838.618 227.858C839.878 225.77 841.57 224.132 843.694 222.944C845.818 221.756 848.212 221.162 850.876 221.162C853.468 221.162 855.754 221.72 857.734 222.836C859.714 223.952 861.262 225.5 862.378 227.48C863.53 229.46 864.106 231.728 864.106 234.284C864.106 234.752 864.07 235.256 863.998 235.796C863.962 236.3 863.872 236.894 863.728 237.578L841.102 237.632V231.962L860.218 231.908L856.654 234.284C856.618 232.772 856.384 231.53 855.952 230.558C855.52 229.55 854.872 228.794 854.008 228.29C853.18 227.75 852.154 227.48 850.93 227.48C849.634 227.48 848.5 227.786 847.528 228.398C846.592 228.974 845.854 229.802 845.314 230.882C844.81 231.962 844.558 233.276 844.558 234.824C844.558 236.372 844.828 237.704 845.368 238.82C845.944 239.9 846.736 240.746 847.744 241.358C848.788 241.934 850.012 242.222 851.416 242.222C852.712 242.222 853.882 242.006 854.926 241.574C855.97 241.106 856.888 240.422 857.68 239.522L862.216 244.058C860.92 245.57 859.354 246.704 857.518 247.46C855.682 248.216 853.666 248.594 851.47 248.594ZM878.377 248V208.796H886.639V248H878.377ZM905.417 248.594C902.573 248.594 900.035 248.018 897.803 246.866C895.607 245.678 893.879 244.04 892.619 241.952C891.359 239.864 890.729 237.506 890.729 234.878C890.729 232.25 891.341 229.91 892.565 227.858C893.825 225.77 895.517 224.132 897.641 222.944C899.765 221.756 902.159 221.162 904.823 221.162C907.415 221.162 909.701 221.72 911.681 222.836C913.661 223.952 915.209 225.5 916.325 227.48C917.477 229.46 918.053 231.728 918.053 234.284C918.053 234.752 918.017 235.256 917.945 235.796C917.909 236.3 917.819 236.894 917.675 237.578L895.049 237.632V231.962L914.165 231.908L910.601 234.284C910.565 232.772 910.331 231.53 909.899 230.558C909.467 229.55 908.819 228.794 907.955 228.29C907.127 227.75 906.101 227.48 904.877 227.48C903.581 227.48 902.447 227.786 901.475 228.398C900.539 228.974 899.801 229.802 899.261 230.882C898.757 231.962 898.505 233.276 898.505 234.824C898.505 236.372 898.775 237.704 899.315 238.82C899.891 239.9 900.683 240.746 901.691 241.358C902.735 241.934 903.959 242.222 905.363 242.222C906.659 242.222 907.829 242.006 908.873 241.574C909.917 241.106 910.835 240.422 911.627 239.522L916.163 244.058C914.867 245.57 913.301 246.704 911.465 247.46C909.629 248.216 907.613 248.594 905.417 248.594ZM939.375 248V233.042C939.375 231.674 938.943 230.576 938.079 229.748C937.251 228.884 936.189 228.452 934.893 228.452C933.993 228.452 933.201 228.65 932.517 229.046C931.833 229.406 931.293 229.946 930.897 230.666C930.501 231.35 930.303 232.142 930.303 233.042L927.117 231.476C927.117 229.424 927.567 227.624 928.467 226.076C929.367 224.528 930.609 223.34 932.193 222.512C933.813 221.648 935.631 221.216 937.647 221.216C939.591 221.216 941.301 221.684 942.777 222.62C944.289 223.52 945.477 224.726 946.341 226.238C947.205 227.75 947.637 229.406 947.637 231.206V248H939.375ZM922.041 248V221.756H930.303V248H922.041ZM965.903 248.594C963.059 248.594 960.521 248.018 958.289 246.866C956.093 245.678 954.365 244.04 953.105 241.952C951.845 239.864 951.215 237.506 951.215 234.878C951.215 232.25 951.827 229.91 953.051 227.858C954.311 225.77 956.003 224.132 958.127 222.944C960.251 221.756 962.645 221.162 965.309 221.162C967.901 221.162 970.187 221.72 972.167 222.836C974.147 223.952 975.695 225.5 976.811 227.48C977.963 229.46 978.539 231.728 978.539 234.284C978.539 234.752 978.503 235.256 978.431 235.796C978.395 236.3 978.305 236.894 978.161 237.578L955.535 237.632V231.962L974.651 231.908L971.087 234.284C971.051 232.772 970.817 231.53 970.385 230.558C969.953 229.55 969.305 228.794 968.441 228.29C967.613 227.75 966.587 227.48 965.363 227.48C964.067 227.48 962.933 227.786 961.961 228.398C961.025 228.974 960.287 229.802 959.747 230.882C959.243 231.962 958.991 233.276 958.991 234.824C958.991 236.372 959.261 237.704 959.801 238.82C960.377 239.9 961.169 240.746 962.177 241.358C963.221 241.934 964.445 242.222 965.849 242.222C967.145 242.222 968.315 242.006 969.359 241.574C970.403 241.106 971.321 240.422 972.113 239.522L976.649 244.058C975.353 245.57 973.787 246.704 971.951 247.46C970.115 248.216 968.099 248.594 965.903 248.594ZM999.861 248V233.042C999.861 231.674 999.429 230.576 998.565 229.748C997.737 228.884 996.675 228.452 995.379 228.452C994.479 228.452 993.687 228.65 993.003 229.046C992.319 229.406 991.779 229.946 991.383 230.666C990.987 231.35 990.789 232.142 990.789 233.042L987.603 231.476C987.603 229.424 988.053 227.624 988.953 226.076C989.853 224.528 991.095 223.34 992.679 222.512C994.299 221.648 996.117 221.216 998.133 221.216C1000.08 221.216 1001.79 221.684 1003.26 222.62C1004.78 223.52 1005.96 224.726 1006.83 226.238C1007.69 227.75 1008.12 229.406 1008.12 231.206V248H999.861ZM982.527 248V221.756H990.789V248H982.527ZM1013.43 254.48L1017.37 247.136L1019.8 246.434C1019.55 246.974 1019.24 247.424 1018.88 247.784C1018.52 248.108 1018.11 248.27 1017.64 248.27C1016.6 248.27 1015.64 247.838 1014.78 246.974C1013.92 246.11 1013.48 245.03 1013.48 243.734C1013.48 242.33 1013.95 241.124 1014.89 240.116C1015.86 239.108 1017.05 238.604 1018.45 238.604C1019.78 238.604 1020.94 239.108 1021.91 240.116C1022.92 241.088 1023.42 242.294 1023.42 243.734C1023.42 244.31 1023.31 244.976 1023.1 245.732C1022.88 246.488 1022.45 247.478 1021.8 248.702L1017.43 256.694L1013.43 254.48ZM316.024 316.594C313.324 316.594 310.876 316 308.68 314.812C306.52 313.588 304.81 311.932 303.55 309.844C302.29 307.756 301.66 305.416 301.66 302.824C301.66 300.232 302.29 297.91 303.55 295.858C304.81 293.806 306.52 292.186 308.68 290.998C310.84 289.774 313.288 289.162 316.024 289.162C318.76 289.162 321.208 289.756 323.368 290.944C325.528 292.132 327.238 293.77 328.498 295.858C329.758 297.91 330.388 300.232 330.388 302.824C330.388 305.416 329.758 307.756 328.498 309.844C327.238 311.932 325.528 313.588 323.368 314.812C321.208 316 318.76 316.594 316.024 316.594ZM316.024 309.088C317.212 309.088 318.256 308.836 319.156 308.332C320.056 307.792 320.74 307.054 321.208 306.118C321.712 305.146 321.964 304.048 321.964 302.824C321.964 301.6 321.712 300.538 321.208 299.638C320.704 298.702 320.002 297.982 319.102 297.478C318.238 296.938 317.212 296.668 316.024 296.668C314.872 296.668 313.846 296.938 312.946 297.478C312.046 297.982 311.344 298.702 310.84 299.638C310.336 300.574 310.084 301.654 310.084 302.878C310.084 304.066 310.336 305.146 310.84 306.118C311.344 307.054 312.046 307.792 312.946 308.332C313.846 308.836 314.872 309.088 316.024 309.088ZM337.322 316V287.488C337.322 285.364 337.79 283.456 338.726 281.764C339.698 280.036 341.048 278.686 342.776 277.714C344.504 276.706 346.556 276.202 348.932 276.202C350.732 276.202 352.298 276.508 353.63 277.12C354.998 277.696 356.186 278.506 357.194 279.55L352.01 284.734C351.65 284.374 351.236 284.104 350.768 283.924C350.336 283.708 349.814 283.6 349.202 283.6C348.086 283.6 347.204 283.924 346.556 284.572C345.908 285.22 345.584 286.102 345.584 287.218V316H337.322ZM331.544 296.776V289.756H353.144V296.776H331.544ZM380.736 316.594C377.892 316.594 375.354 316.018 373.122 314.866C370.926 313.678 369.198 312.04 367.938 309.952C366.678 307.864 366.048 305.506 366.048 302.878C366.048 300.25 366.66 297.91 367.884 295.858C369.144 293.77 370.836 292.132 372.96 290.944C375.084 289.756 377.478 289.162 380.142 289.162C382.734 289.162 385.02 289.72 387 290.836C388.98 291.952 390.528 293.5 391.644 295.48C392.796 297.46 393.372 299.728 393.372 302.284C393.372 302.752 393.336 303.256 393.264 303.796C393.228 304.3 393.138 304.894 392.994 305.578L370.368 305.632V299.962L389.484 299.908L385.92 302.284C385.884 300.772 385.65 299.53 385.218 298.558C384.786 297.55 384.138 296.794 383.274 296.29C382.446 295.75 381.42 295.48 380.196 295.48C378.9 295.48 377.766 295.786 376.794 296.398C375.858 296.974 375.12 297.802 374.58 298.882C374.076 299.962 373.824 301.276 373.824 302.824C373.824 304.372 374.094 305.704 374.634 306.82C375.21 307.9 376.002 308.746 377.01 309.358C378.054 309.934 379.278 310.222 380.682 310.222C381.978 310.222 383.148 310.006 384.192 309.574C385.236 309.106 386.154 308.422 386.946 307.522L391.482 312.058C390.186 313.57 388.62 314.704 386.784 315.46C384.948 316.216 382.932 316.594 380.736 316.594ZM410.32 316.594C407.476 316.594 404.938 316.018 402.706 314.866C400.51 313.678 398.782 312.04 397.522 309.952C396.262 307.864 395.632 305.506 395.632 302.878C395.632 300.25 396.244 297.91 397.468 295.858C398.728 293.77 400.42 292.132 402.544 290.944C404.668 289.756 407.062 289.162 409.726 289.162C412.318 289.162 414.604 289.72 416.584 290.836C418.564 291.952 420.112 293.5 421.228 295.48C422.38 297.46 422.956 299.728 422.956 302.284C422.956 302.752 422.92 303.256 422.848 303.796C422.812 304.3 422.722 304.894 422.578 305.578L399.952 305.632V299.962L419.068 299.908L415.504 302.284C415.468 300.772 415.234 299.53 414.802 298.558C414.37 297.55 413.722 296.794 412.858 296.29C412.03 295.75 411.004 295.48 409.78 295.48C408.484 295.48 407.35 295.786 406.378 296.398C405.442 296.974 404.704 297.802 404.164 298.882C403.66 299.962 403.408 301.276 403.408 302.824C403.408 304.372 403.678 305.704 404.218 306.82C404.794 307.9 405.586 308.746 406.594 309.358C407.638 309.934 408.862 310.222 410.266 310.222C411.562 310.222 412.732 310.006 413.776 309.574C414.82 309.106 415.738 308.422 416.53 307.522L421.066 312.058C419.77 313.57 418.204 314.704 416.368 315.46C414.532 316.216 412.516 316.594 410.32 316.594ZM444.278 316V301.042C444.278 299.674 443.846 298.576 442.982 297.748C442.154 296.884 441.092 296.452 439.796 296.452C438.896 296.452 438.104 296.65 437.42 297.046C436.736 297.406 436.196 297.946 435.8 298.666C435.404 299.35 435.206 300.142 435.206 301.042L432.02 299.476C432.02 297.424 432.47 295.624 433.37 294.076C434.27 292.528 435.512 291.34 437.096 290.512C438.716 289.648 440.534 289.216 442.55 289.216C444.494 289.216 446.204 289.684 447.68 290.62C449.192 291.52 450.38 292.726 451.244 294.238C452.108 295.75 452.54 297.406 452.54 299.206V316H444.278ZM426.944 316V289.756H435.206V316H426.944ZM479.092 316.54C476.68 316.54 474.52 315.946 472.612 314.758C470.74 313.57 469.246 311.95 468.13 309.898C467.05 307.846 466.51 305.506 466.51 302.878C466.51 300.25 467.05 297.91 468.13 295.858C469.246 293.806 470.74 292.186 472.612 290.998C474.52 289.81 476.68 289.216 479.092 289.216C480.856 289.216 482.44 289.558 483.844 290.242C485.284 290.926 486.454 291.88 487.354 293.104C488.254 294.292 488.758 295.66 488.866 297.208V308.548C488.758 310.096 488.254 311.482 487.354 312.706C486.49 313.894 485.338 314.83 483.898 315.514C482.458 316.198 480.856 316.54 479.092 316.54ZM480.766 309.088C482.53 309.088 483.952 308.512 485.032 307.36C486.112 306.172 486.652 304.678 486.652 302.878C486.652 301.654 486.4 300.574 485.896 299.638C485.428 298.702 484.744 297.982 483.844 297.478C482.98 296.938 481.972 296.668 480.82 296.668C479.668 296.668 478.642 296.938 477.742 297.478C476.878 297.982 476.176 298.702 475.636 299.638C475.132 300.574 474.88 301.654 474.88 302.878C474.88 304.066 475.132 305.128 475.636 306.064C476.14 307 476.842 307.738 477.742 308.278C478.642 308.818 479.65 309.088 480.766 309.088ZM486.328 316V308.926L487.57 302.554L486.328 296.182V289.756H494.428V316H486.328ZM500.245 316V289.756H508.507V316H500.245ZM508.507 301.582L505.051 298.882C505.735 295.822 506.887 293.446 508.507 291.754C510.127 290.062 512.377 289.216 515.257 289.216C516.517 289.216 517.615 289.414 518.551 289.81C519.523 290.17 520.369 290.746 521.089 291.538L516.175 297.748C515.815 297.352 515.365 297.046 514.825 296.83C514.285 296.614 513.673 296.506 512.989 296.506C511.621 296.506 510.523 296.938 509.695 297.802C508.903 298.63 508.507 299.89 508.507 301.582ZM527.28 316V278.902H535.542V316H527.28ZM521.34 296.776V289.756H541.482V296.776H521.34ZM545.122 316V289.756H553.384V316H545.122ZM549.28 286.138C547.984 286.138 546.904 285.706 546.04 284.842C545.212 283.942 544.798 282.862 544.798 281.602C544.798 280.306 545.212 279.226 546.04 278.362C546.904 277.498 547.984 277.066 549.28 277.066C550.576 277.066 551.638 277.498 552.466 278.362C553.294 279.226 553.708 280.306 553.708 281.602C553.708 282.862 553.294 283.942 552.466 284.842C551.638 285.706 550.576 286.138 549.28 286.138ZM575.996 316L566.816 302.392L575.942 289.756H585.176L574.16 303.958L574.43 300.556L585.716 316H575.996ZM559.202 316V276.796H567.464V316H559.202ZM600.48 316.594C597.636 316.594 595.098 316.018 592.866 314.866C590.67 313.678 588.942 312.04 587.682 309.952C586.422 307.864 585.792 305.506 585.792 302.878C585.792 300.25 586.404 297.91 587.628 295.858C588.888 293.77 590.58 292.132 592.704 290.944C594.828 289.756 597.222 289.162 599.886 289.162C602.478 289.162 604.764 289.72 606.744 290.836C608.724 291.952 610.272 293.5 611.388 295.48C612.54 297.46 613.116 299.728 613.116 302.284C613.116 302.752 613.08 303.256 613.008 303.796C612.972 304.3 612.882 304.894 612.738 305.578L590.112 305.632V299.962L609.228 299.908L605.664 302.284C605.628 300.772 605.394 299.53 604.962 298.558C604.53 297.55 603.882 296.794 603.018 296.29C602.19 295.75 601.164 295.48 599.94 295.48C598.644 295.48 597.51 295.786 596.538 296.398C595.602 296.974 594.864 297.802 594.324 298.882C593.82 299.962 593.568 301.276 593.568 302.824C593.568 304.372 593.838 305.704 594.378 306.82C594.954 307.9 595.746 308.746 596.754 309.358C597.798 309.934 599.022 310.222 600.426 310.222C601.722 310.222 602.892 310.006 603.936 309.574C604.98 309.106 605.898 308.422 606.69 307.522L611.226 312.058C609.93 313.57 608.364 314.704 606.528 315.46C604.692 316.216 602.676 316.594 600.48 316.594ZM617.104 316V276.796H625.366V316H617.104ZM654.104 316.594C651.404 316.594 648.956 316 646.76 314.812C644.6 313.588 642.89 311.932 641.63 309.844C640.37 307.756 639.74 305.416 639.74 302.824C639.74 300.232 640.37 297.91 641.63 295.858C642.89 293.806 644.6 292.186 646.76 290.998C648.92 289.774 651.368 289.162 654.104 289.162C656.84 289.162 659.288 289.756 661.448 290.944C663.608 292.132 665.318 293.77 666.578 295.858C667.838 297.91 668.468 300.232 668.468 302.824C668.468 305.416 667.838 307.756 666.578 309.844C665.318 311.932 663.608 313.588 661.448 314.812C659.288 316 656.84 316.594 654.104 316.594ZM654.104 309.088C655.292 309.088 656.336 308.836 657.236 308.332C658.136 307.792 658.82 307.054 659.288 306.118C659.792 305.146 660.044 304.048 660.044 302.824C660.044 301.6 659.792 300.538 659.288 299.638C658.784 298.702 658.082 297.982 657.182 297.478C656.318 296.938 655.292 296.668 654.104 296.668C652.952 296.668 651.926 296.938 651.026 297.478C650.126 297.982 649.424 298.702 648.92 299.638C648.416 300.574 648.164 301.654 648.164 302.878C648.164 304.066 648.416 305.146 648.92 306.118C649.424 307.054 650.126 307.792 651.026 308.332C651.926 308.836 652.952 309.088 654.104 309.088ZM672.581 316V289.756H680.843V316H672.581ZM689.375 316V300.664C689.375 299.332 688.961 298.306 688.133 297.586C687.341 296.83 686.351 296.452 685.163 296.452C684.335 296.452 683.597 296.632 682.949 296.992C682.301 297.316 681.779 297.784 681.383 298.396C681.023 299.008 680.843 299.764 680.843 300.664L677.657 299.26C677.657 297.172 678.107 295.39 679.007 293.914C679.907 292.402 681.131 291.25 682.679 290.458C684.227 289.63 685.973 289.216 687.917 289.216C689.753 289.216 691.391 289.63 692.831 290.458C694.307 291.286 695.477 292.438 696.341 293.914C697.205 295.39 697.637 297.154 697.637 299.206V316H689.375ZM706.169 316V300.664C706.169 299.332 705.755 298.306 704.927 297.586C704.135 296.83 703.145 296.452 701.957 296.452C701.129 296.452 700.391 296.632 699.743 296.992C699.095 297.316 698.573 297.784 698.177 298.396C697.817 299.008 697.637 299.764 697.637 300.664L692.885 300.016C692.957 297.784 693.479 295.876 694.451 294.292C695.459 292.672 696.773 291.43 698.393 290.566C700.049 289.666 701.903 289.216 703.955 289.216C705.971 289.216 707.753 289.648 709.301 290.512C710.885 291.34 712.127 292.546 713.027 294.13C713.963 295.678 714.431 297.55 714.431 299.746V316H706.169ZM733.735 316V278.902H741.997V316H733.735ZM727.795 296.776V289.756H747.937V296.776H727.795ZM764.01 316.594C761.166 316.594 758.628 316.018 756.396 314.866C754.2 313.678 752.472 312.04 751.212 309.952C749.952 307.864 749.322 305.506 749.322 302.878C749.322 300.25 749.934 297.91 751.158 295.858C752.418 293.77 754.11 292.132 756.234 290.944C758.358 289.756 760.752 289.162 763.416 289.162C766.008 289.162 768.294 289.72 770.274 290.836C772.254 291.952 773.802 293.5 774.918 295.48C776.07 297.46 776.646 299.728 776.646 302.284C776.646 302.752 776.61 303.256 776.538 303.796C776.502 304.3 776.412 304.894 776.268 305.578L753.642 305.632V299.962L772.758 299.908L769.194 302.284C769.158 300.772 768.924 299.53 768.492 298.558C768.06 297.55 767.412 296.794 766.548 296.29C765.72 295.75 764.694 295.48 763.47 295.48C762.174 295.48 761.04 295.786 760.068 296.398C759.132 296.974 758.394 297.802 757.854 298.882C757.35 299.962 757.098 301.276 757.098 302.824C757.098 304.372 757.368 305.704 757.908 306.82C758.484 307.9 759.276 308.746 760.284 309.358C761.328 309.934 762.552 310.222 763.956 310.222C765.252 310.222 766.422 310.006 767.466 309.574C768.51 309.106 769.428 308.422 770.22 307.522L774.756 312.058C773.46 313.57 771.894 314.704 770.058 315.46C768.222 316.216 766.206 316.594 764.01 316.594ZM780.634 316V289.756H788.896V316H780.634ZM788.896 301.582L785.44 298.882C786.124 295.822 787.276 293.446 788.896 291.754C790.516 290.062 792.766 289.216 795.646 289.216C796.906 289.216 798.004 289.414 798.94 289.81C799.912 290.17 800.758 290.746 801.478 291.538L796.564 297.748C796.204 297.352 795.754 297.046 795.214 296.83C794.674 296.614 794.062 296.506 793.378 296.506C792.01 296.506 790.912 296.938 790.084 297.802C789.292 298.63 788.896 299.89 788.896 301.582ZM815.343 316.594C812.931 316.594 810.789 316.108 808.917 315.136C807.081 314.128 805.641 312.76 804.597 311.032C803.553 309.268 803.031 307.252 803.031 304.984V289.756H811.293V304.876C811.293 305.776 811.437 306.55 811.725 307.198C812.049 307.846 812.517 308.35 813.129 308.71C813.741 309.07 814.479 309.25 815.343 309.25C816.567 309.25 817.539 308.872 818.259 308.116C818.979 307.324 819.339 306.244 819.339 304.876V289.756H827.601V304.93C827.601 307.234 827.079 309.268 826.035 311.032C824.991 312.76 823.551 314.128 821.715 315.136C819.879 316.108 817.755 316.594 815.343 316.594ZM843.912 327.772C841.032 327.772 838.494 327.268 836.298 326.26C834.138 325.288 832.428 323.902 831.168 322.102L836.244 317.026C837.18 318.142 838.224 318.988 839.376 319.564C840.564 320.14 841.986 320.428 843.642 320.428C845.694 320.428 847.296 319.924 848.448 318.916C849.636 317.908 850.23 316.486 850.23 314.65V307.954L851.634 302.23L850.392 296.506V289.756H858.492V314.434C858.492 317.134 857.862 319.474 856.602 321.454C855.342 323.434 853.614 324.982 851.418 326.098C849.222 327.214 846.72 327.772 843.912 327.772ZM843.534 315.19C841.122 315.19 838.98 314.614 837.108 313.462C835.236 312.31 833.76 310.744 832.68 308.764C831.6 306.784 831.06 304.588 831.06 302.176C831.06 299.728 831.6 297.532 832.68 295.588C833.76 293.608 835.236 292.06 837.108 290.944C838.98 289.792 841.122 289.216 843.534 289.216C845.334 289.216 846.936 289.558 848.34 290.242C849.78 290.89 850.932 291.826 851.796 293.05C852.696 294.238 853.2 295.624 853.308 297.208V307.198C853.2 308.746 852.696 310.132 851.796 311.356C850.932 312.544 849.78 313.48 848.34 314.164C846.9 314.848 845.298 315.19 843.534 315.19ZM845.1 307.846C846.252 307.846 847.242 307.594 848.07 307.09C848.934 306.586 849.582 305.92 850.014 305.092C850.482 304.228 850.716 303.256 850.716 302.176C850.716 301.096 850.482 300.124 850.014 299.26C849.582 298.396 848.934 297.712 848.07 297.208C847.242 296.704 846.252 296.452 845.1 296.452C843.984 296.452 842.994 296.704 842.13 297.208C841.266 297.712 840.6 298.396 840.132 299.26C839.664 300.124 839.43 301.096 839.43 302.176C839.43 303.184 839.664 304.138 840.132 305.038C840.6 305.902 841.248 306.586 842.076 307.09C842.94 307.594 843.948 307.846 845.1 307.846ZM878.332 316V278.902H886.594V316H878.332ZM872.392 296.776V289.756H892.534V296.776H872.392ZM908.607 316.594C905.763 316.594 903.225 316.018 900.993 314.866C898.797 313.678 897.069 312.04 895.809 309.952C894.549 307.864 893.919 305.506 893.919 302.878C893.919 300.25 894.531 297.91 895.755 295.858C897.015 293.77 898.707 292.132 900.831 290.944C902.955 289.756 905.349 289.162 908.013 289.162C910.605 289.162 912.891 289.72 914.871 290.836C916.851 291.952 918.399 293.5 919.515 295.48C920.667 297.46 921.243 299.728 921.243 302.284C921.243 302.752 921.207 303.256 921.135 303.796C921.099 304.3 921.009 304.894 920.865 305.578L898.239 305.632V299.962L917.355 299.908L913.791 302.284C913.755 300.772 913.521 299.53 913.089 298.558C912.657 297.55 912.009 296.794 911.145 296.29C910.317 295.75 909.291 295.48 908.067 295.48C906.771 295.48 905.637 295.786 904.665 296.398C903.729 296.974 902.991 297.802 902.451 298.882C901.947 299.962 901.695 301.276 901.695 302.824C901.695 304.372 901.965 305.704 902.505 306.82C903.081 307.9 903.873 308.746 904.881 309.358C905.925 309.934 907.149 310.222 908.553 310.222C909.849 310.222 911.019 310.006 912.063 309.574C913.107 309.106 914.025 308.422 914.817 307.522L919.353 312.058C918.057 313.57 916.491 314.704 914.655 315.46C912.819 316.216 910.803 316.594 908.607 316.594ZM950.635 316.54C948.871 316.54 947.251 316.18 945.775 315.46C944.299 314.704 943.093 313.714 942.157 312.49C941.221 311.23 940.681 309.826 940.537 308.278V297.208C940.681 295.66 941.221 294.292 942.157 293.104C943.093 291.88 944.299 290.926 945.775 290.242C947.251 289.558 948.871 289.216 950.635 289.216C953.119 289.216 955.315 289.81 957.223 290.998C959.167 292.186 960.679 293.806 961.759 295.858C962.875 297.91 963.433 300.25 963.433 302.878C963.433 305.506 962.875 307.846 961.759 309.898C960.679 311.95 959.167 313.57 957.223 314.758C955.315 315.946 953.119 316.54 950.635 316.54ZM949.177 309.088C950.329 309.088 951.337 308.818 952.201 308.278C953.101 307.738 953.803 307 954.307 306.064C954.811 305.128 955.063 304.066 955.063 302.878C955.063 301.654 954.811 300.574 954.307 299.638C953.803 298.702 953.101 297.982 952.201 297.478C951.337 296.938 950.329 296.668 949.177 296.668C948.025 296.668 946.999 296.938 946.099 297.478C945.199 297.982 944.497 298.702 943.993 299.638C943.525 300.574 943.291 301.654 943.291 302.878C943.291 304.102 943.543 305.182 944.047 306.118C944.551 307.054 945.235 307.792 946.099 308.332C946.999 308.836 948.025 309.088 949.177 309.088ZM935.515 316V276.796H943.777V296.182L942.427 302.554L943.669 308.926V316H935.515ZM967.63 316V289.756H975.892V316H967.63ZM975.892 301.582L972.436 298.882C973.12 295.822 974.272 293.446 975.892 291.754C977.512 290.062 979.762 289.216 982.642 289.216C983.902 289.216 985 289.414 985.936 289.81C986.908 290.17 987.754 290.746 988.474 291.538L983.56 297.748C983.2 297.352 982.75 297.046 982.21 296.83C981.67 296.614 981.058 296.506 980.374 296.506C979.006 296.506 977.908 296.938 977.08 297.802C976.288 298.63 975.892 299.89 975.892 301.582ZM1002.9 316.594C1000.05 316.594 997.515 316.018 995.283 314.866C993.087 313.678 991.359 312.04 990.099 309.952C988.839 307.864 988.209 305.506 988.209 302.878C988.209 300.25 988.821 297.91 990.045 295.858C991.305 293.77 992.997 292.132 995.121 290.944C997.245 289.756 999.639 289.162 1002.3 289.162C1004.89 289.162 1007.18 289.72 1009.16 290.836C1011.14 291.952 1012.69 293.5 1013.8 295.48C1014.96 297.46 1015.53 299.728 1015.53 302.284C1015.53 302.752 1015.5 303.256 1015.42 303.796C1015.39 304.3 1015.3 304.894 1015.15 305.578L992.529 305.632V299.962L1011.64 299.908L1008.08 302.284C1008.04 300.772 1007.81 299.53 1007.38 298.558C1006.95 297.55 1006.3 296.794 1005.43 296.29C1004.61 295.75 1003.58 295.48 1002.36 295.48C1001.06 295.48 999.927 295.786 998.955 296.398C998.019 296.974 997.281 297.802 996.741 298.882C996.237 299.962 995.985 301.276 995.985 302.824C995.985 304.372 996.255 305.704 996.795 306.82C997.371 307.9 998.163 308.746 999.171 309.358C1000.21 309.934 1001.44 310.222 1002.84 310.222C1004.14 310.222 1005.31 310.006 1006.35 309.574C1007.4 309.106 1008.31 308.422 1009.11 307.522L1013.64 312.058C1012.35 313.57 1010.78 314.704 1008.94 315.46C1007.11 316.216 1005.09 316.594 1002.9 316.594ZM1036.85 316V301.042C1036.85 299.674 1036.42 298.576 1035.56 297.748C1034.73 296.884 1033.67 296.452 1032.37 296.452C1031.47 296.452 1030.68 296.65 1030 297.046C1029.31 297.406 1028.77 297.946 1028.38 298.666C1027.98 299.35 1027.78 300.142 1027.78 301.042L1024.6 299.476C1024.6 297.424 1025.05 295.624 1025.95 294.076C1026.85 292.528 1028.09 291.34 1029.67 290.512C1031.29 289.648 1033.11 289.216 1035.13 289.216C1037.07 289.216 1038.78 289.684 1040.26 290.62C1041.77 291.52 1042.96 292.726 1043.82 294.238C1044.68 295.75 1045.12 297.406 1045.12 299.206V316H1036.85ZM1019.52 316V289.756H1027.78V316H1019.52ZM1061.55 327.772C1058.67 327.772 1056.13 327.268 1053.93 326.26C1051.77 325.288 1050.06 323.902 1048.8 322.102L1053.88 317.026C1054.81 318.142 1055.86 318.988 1057.01 319.564C1058.2 320.14 1059.62 320.428 1061.28 320.428C1063.33 320.428 1064.93 319.924 1066.08 318.916C1067.27 317.908 1067.86 316.486 1067.86 314.65V307.954L1069.27 302.23L1068.03 296.506V289.756H1076.13V314.434C1076.13 317.134 1075.5 319.474 1074.24 321.454C1072.98 323.434 1071.25 324.982 1069.05 326.098C1066.86 327.214 1064.35 327.772 1061.55 327.772ZM1061.17 315.19C1058.76 315.19 1056.61 314.614 1054.74 313.462C1052.87 312.31 1051.39 310.744 1050.31 308.764C1049.23 306.784 1048.69 304.588 1048.69 302.176C1048.69 299.728 1049.23 297.532 1050.31 295.588C1051.39 293.608 1052.87 292.06 1054.74 290.944C1056.61 289.792 1058.76 289.216 1061.17 289.216C1062.97 289.216 1064.57 289.558 1065.97 290.242C1067.41 290.89 1068.57 291.826 1069.43 293.05C1070.33 294.238 1070.83 295.624 1070.94 297.208V307.198C1070.83 308.746 1070.33 310.132 1069.43 311.356C1068.57 312.544 1067.41 313.48 1065.97 314.164C1064.53 314.848 1062.93 315.19 1061.17 315.19ZM1062.73 307.846C1063.89 307.846 1064.88 307.594 1065.7 307.09C1066.57 306.586 1067.22 305.92 1067.65 305.092C1068.12 304.228 1068.35 303.256 1068.35 302.176C1068.35 301.096 1068.12 300.124 1067.65 299.26C1067.22 298.396 1066.57 297.712 1065.7 297.208C1064.88 296.704 1063.89 296.452 1062.73 296.452C1061.62 296.452 1060.63 296.704 1059.76 297.208C1058.9 297.712 1058.23 298.396 1057.77 299.26C1057.3 300.124 1057.06 301.096 1057.06 302.176C1057.06 303.184 1057.3 304.138 1057.77 305.038C1058.23 305.902 1058.88 306.586 1059.71 307.09C1060.57 307.594 1061.58 307.846 1062.73 307.846ZM1094.92 316.594C1092.07 316.594 1089.54 316.018 1087.3 314.866C1085.11 313.678 1083.38 312.04 1082.12 309.952C1080.86 307.864 1080.23 305.506 1080.23 302.878C1080.23 300.25 1080.84 297.91 1082.07 295.858C1083.33 293.77 1085.02 292.132 1087.14 290.944C1089.27 289.756 1091.66 289.162 1094.32 289.162C1096.92 289.162 1099.2 289.72 1101.18 290.836C1103.16 291.952 1104.71 293.5 1105.83 295.48C1106.98 297.46 1107.55 299.728 1107.55 302.284C1107.55 302.752 1107.52 303.256 1107.45 303.796C1107.41 304.3 1107.32 304.894 1107.18 305.578L1084.55 305.632V299.962L1103.67 299.908L1100.1 302.284C1100.07 300.772 1099.83 299.53 1099.4 298.558C1098.97 297.55 1098.32 296.794 1097.46 296.29C1096.63 295.75 1095.6 295.48 1094.38 295.48C1093.08 295.48 1091.95 295.786 1090.98 296.398C1090.04 296.974 1089.3 297.802 1088.76 298.882C1088.26 299.962 1088.01 301.276 1088.01 302.824C1088.01 304.372 1088.28 305.704 1088.82 306.82C1089.39 307.9 1090.18 308.746 1091.19 309.358C1092.24 309.934 1093.46 310.222 1094.86 310.222C1096.16 310.222 1097.33 310.006 1098.37 309.574C1099.42 309.106 1100.34 308.422 1101.13 307.522L1105.66 312.058C1104.37 313.57 1102.8 314.704 1100.97 315.46C1099.13 316.216 1097.11 316.594 1094.92 316.594ZM1128.88 316V301.042C1128.88 299.674 1128.44 298.576 1127.58 297.748C1126.75 296.884 1125.69 296.452 1124.39 296.452C1123.49 296.452 1122.7 296.65 1122.02 297.046C1121.33 297.406 1120.79 297.946 1120.4 298.666C1120 299.35 1119.8 300.142 1119.8 301.042L1116.62 299.476C1116.62 297.424 1117.07 295.624 1117.97 294.076C1118.87 292.528 1120.11 291.34 1121.69 290.512C1123.31 289.648 1125.13 289.216 1127.15 289.216C1129.09 289.216 1130.8 289.684 1132.28 290.62C1133.79 291.52 1134.98 292.726 1135.84 294.238C1136.71 295.75 1137.14 297.406 1137.14 299.206V316H1128.88ZM1111.54 316V289.756H1119.8V316H1111.54Z" fill="white"/>
</svg>
